{"glyphs":{"0":{"ha":931,"x_min":36,"x_max":894,"o":"m 443 1049 q 449 1047 446 1047 q 456 1047 453 1047 q 755 904 642 1047 q 890 582 868 761 q 892 563 892 572 q 893 544 893 553 q 894 525 894 535 q 894 506 894 515 q 894 499 894 503 q 894 493 894 496 q 776 144 890 303 q 472 -14 663 -14 q 153 151 271 -14 q 39 529 36 315 q 39 535 39 532 q 39 542 39 539 q 151 886 44 729 q 443 1047 258 1043 l 443 1049 m 422 932 q 197 803 279 919 q 114 542 114 686 q 114 537 114 539 q 114 532 114 535 q 222 241 118 372 q 478 111 326 110 q 480 111 479 111 q 482 111 481 111 q 727 233 643 115 q 811 494 811 350 q 810 526 811 510 q 807 557 810 542 q 686 821 789 710 q 447 932 583 932 q 435 932 442 932 q 422 931 429 932 l 422 932 z "},"1":{"ha":685,"x_min":38,"x_max":663,"o":"m 356 842 l 38 601 l 401 1028 l 478 1028 l 478 140 q 481 113 478 125 q 489 90 483 101 q 495 79 492 85 q 503 68 499 74 q 535 47 513 57 q 582 28 557 36 q 607 19 594 24 q 631 11 619 15 l 663 0 l 174 0 l 206 13 q 229 19 217 15 q 256 28 242 24 q 301 47 279 36 q 332 68 322 57 q 340 79 336 74 q 346 90 343 85 q 352 113 350 101 q 354 139 354 125 l 356 842 l 356 842 z "},"2":{"ha":810,"x_min":33,"x_max":775,"o":"m 471 383 l 400 371 q 390 369 394 369 q 379 367 385 368 q 359 365 369 365 q 338 365 349 365 q 320 365 329 365 q 301 367 311 365 q 111 457 189 379 q 35 663 33 535 q 35 671 35 667 q 35 679 35 675 q 153 925 40 826 q 399 1038 265 1024 q 405 1038 401 1038 q 411 1039 408 1039 q 417 1039 414 1039 q 424 1040 419 1039 q 429 1040 426 1040 q 435 1040 432 1040 q 459 1040 447 1040 q 482 1036 471 1039 q 681 940 590 1019 q 774 733 772 860 q 735 567 775 640 q 628 424 694 493 q 613 409 619 417 q 597 394 606 401 l 325 132 l 336 104 l 383 107 q 408 106 396 106 q 433 107 421 107 q 463 107 449 107 q 493 106 478 107 q 519 106 507 106 q 544 106 532 106 q 602 107 576 106 q 643 114 628 108 q 671 136 658 118 q 693 175 683 154 q 701 194 697 185 q 710 213 706 204 l 740 282 l 733 0 l 99 0 l 99 22 l 471 383 l 471 383 m 389 958 q 208 875 283 953 q 133 694 132 797 q 198 526 135 601 q 357 449 261 451 q 363 449 360 449 q 369 449 367 449 q 569 524 490 449 q 647 708 649 599 q 578 887 647 817 q 400 957 508 957 q 397 957 399 957 q 394 957 396 957 q 392 957 393 957 q 389 957 390 957 l 389 958 z "},"3":{"ha":767,"x_min":32,"x_max":729,"o":"m 119 792 l 93 704 l 90 1028 l 715 1028 l 419 628 l 489 615 q 656 519 593 596 q 728 336 718 443 q 728 328 728 332 q 729 321 729 325 q 729 313 729 317 q 729 306 729 310 q 608 76 729 167 q 339 -11 486 -14 q 200 13 267 -11 q 89 75 133 38 l 32 126 l 92 190 l 125 160 q 221 93 169 119 q 329 67 272 67 q 521 140 444 65 q 597 322 597 215 q 597 324 597 324 q 597 326 597 325 q 525 492 596 419 q 339 567 454 564 l 292 569 l 526 922 l 388 922 q 376 921 382 921 q 365 921 371 921 q 354 921 360 921 q 343 921 349 921 q 244 919 290 921 q 178 910 197 918 q 155 885 165 904 q 136 844 144 867 q 126 815 131 829 q 119 790 122 800 l 119 792 z "},"4":{"ha":878,"x_min":36,"x_max":843,"o":"m 660 388 l 811 388 l 811 314 l 660 314 l 660 140 q 663 113 660 125 q 671 90 665 101 q 677 79 674 85 q 685 68 681 74 q 715 47 693 57 q 761 28 736 36 q 788 19 775 24 q 811 11 800 15 l 843 0 l 354 0 l 386 13 q 410 19 397 15 q 436 28 422 24 q 481 47 460 36 q 513 68 503 57 q 520 79 517 74 q 526 90 524 85 q 533 113 531 101 q 535 139 535 125 l 535 314 l 36 314 l 36 394 l 583 1028 l 660 1028 l 660 388 l 660 388 m 172 388 l 535 388 l 535 846 l 515 846 l 172 411 l 172 388 l 172 388 z "},"5":{"ha":697,"x_min":40,"x_max":668,"o":"m 596 1026 l 596 750 l 565 831 q 565 833 565 831 q 563 836 564 835 q 546 877 556 858 q 518 906 536 896 q 474 917 504 914 q 411 919 444 919 q 399 919 406 919 q 386 919 392 919 l 185 921 l 171 650 l 218 663 q 249 671 235 667 q 275 678 263 675 q 300 682 288 681 q 326 683 313 683 q 328 683 328 683 q 331 683 329 683 q 331 683 331 683 q 333 683 332 683 q 565 590 468 682 q 665 368 663 497 q 564 97 668 203 q 303 -11 460 -10 q 189 3 240 -11 q 96 43 138 17 l 40 83 l 92 154 l 144 115 q 213 77 176 88 q 288 67 249 67 q 292 67 290 67 q 296 67 294 67 q 474 148 401 69 q 546 329 546 226 q 546 335 546 332 q 546 342 546 339 q 472 510 540 442 q 304 589 404 579 q 299 589 301 589 q 293 590 296 589 q 288 590 290 590 q 282 590 285 590 q 262 590 272 590 q 240 588 251 589 q 187 576 213 583 q 140 558 161 569 l 99 539 l 100 1026 l 596 1026 l 596 1026 z "},"6":{"ha":843,"x_min":35,"x_max":796,"o":"m 563 994 l 536 965 q 507 931 522 947 q 476 896 492 914 q 460 876 468 886 q 443 856 451 865 q 372 769 406 811 q 314 694 339 728 q 307 684 310 689 q 301 674 304 679 q 296 665 299 669 q 290 654 293 660 q 286 643 289 649 q 281 632 283 638 l 332 647 q 358 652 346 649 q 383 658 371 656 q 420 665 401 663 q 460 667 439 667 q 686 590 588 668 q 794 383 785 511 q 794 377 794 381 q 796 371 794 374 q 796 365 796 368 q 796 358 796 361 q 678 97 796 210 q 403 -14 560 -17 q 139 76 243 -12 q 36 326 35 164 q 36 333 36 329 q 36 339 36 336 q 103 565 40 461 q 254 767 167 668 q 279 794 267 781 q 304 822 292 808 l 503 1038 l 563 994 l 563 994 m 389 586 q 216 507 288 576 q 140 335 144 438 q 140 328 140 332 q 140 322 140 325 q 219 138 140 215 q 410 60 299 60 q 603 138 521 58 q 685 326 685 218 q 685 340 685 333 q 683 351 685 346 q 593 520 674 454 q 413 586 513 586 q 407 586 410 586 q 401 586 404 586 q 394 585 397 585 q 389 585 392 585 l 389 586 z "},"7":{"ha":842,"x_min":40,"x_max":803,"o":"m 803 1028 l 256 -29 l 144 43 l 653 917 l 183 917 q 153 914 167 915 q 126 907 140 913 q 122 903 125 906 q 117 900 119 901 q 97 869 104 889 q 82 826 89 849 q 81 822 82 824 q 81 818 81 821 q 75 801 78 810 q 69 785 72 793 l 53 735 l 40 1028 l 803 1028 l 803 1028 z "},"8":{"ha":785,"x_min":40,"x_max":746,"o":"m 376 1042 q 381 1040 379 1040 q 386 1040 383 1040 q 391 1040 389 1040 q 396 1040 393 1040 q 401 1040 399 1040 q 404 1040 403 1040 q 606 978 514 1038 q 701 810 697 918 q 701 806 701 808 q 701 803 701 804 q 701 799 701 801 q 701 796 701 797 q 670 681 701 728 q 585 596 639 635 l 547 571 l 604 539 q 706 447 671 501 q 746 314 742 392 q 746 306 746 310 q 746 297 746 301 q 632 77 746 167 q 379 -12 518 -12 q 376 -12 378 -12 q 375 -12 375 -12 q 372 -12 374 -12 q 369 -12 371 -12 q 142 64 243 -8 q 40 267 40 136 q 40 271 40 269 q 40 275 40 272 q 40 278 40 276 q 40 282 40 281 q 81 415 44 361 q 181 513 117 469 l 224 542 l 167 586 q 160 590 164 588 q 154 594 157 592 q 92 666 114 628 q 69 764 71 704 q 163 959 68 883 q 376 1040 257 1035 l 376 1042 m 374 515 q 224 442 285 506 q 161 289 164 379 q 226 133 160 196 q 383 65 292 71 q 390 65 386 65 q 396 65 393 65 q 560 131 489 65 q 631 290 631 197 q 631 295 631 293 q 631 299 631 297 q 558 453 629 390 q 397 515 488 515 q 386 515 392 515 q 374 514 381 515 l 374 515 m 372 972 q 238 915 296 965 q 178 788 181 865 q 178 785 178 786 q 178 782 178 785 q 235 648 178 703 q 374 588 293 593 q 380 588 376 588 q 386 588 383 588 q 532 645 468 588 q 594 783 596 703 q 594 786 594 785 q 594 789 594 788 q 594 790 594 789 q 594 793 594 792 q 526 922 589 872 q 385 971 464 972 q 378 971 382 971 q 372 971 375 971 l 372 972 z "},"9":{"ha":847,"x_min":46,"x_max":810,"o":"m 190 47 l 221 76 q 251 103 236 89 q 283 131 267 117 q 294 141 289 136 q 306 150 300 146 q 399 231 354 192 q 469 301 443 271 q 490 326 482 317 q 507 344 499 336 q 508 346 507 344 q 508 347 508 347 q 519 360 514 353 q 531 375 524 367 l 465 372 q 435 369 447 369 q 414 368 424 368 q 408 368 411 368 q 403 368 406 368 q 392 368 397 368 q 379 368 386 368 q 349 371 364 368 q 317 376 333 374 q 146 469 225 399 q 50 647 67 540 q 48 660 49 654 q 47 672 47 665 q 46 684 46 678 q 46 696 46 690 q 151 932 47 828 q 426 1035 256 1036 q 429 1035 428 1035 q 432 1035 431 1035 q 433 1035 432 1035 q 436 1035 435 1035 q 688 944 583 1031 q 808 690 793 857 q 808 685 808 688 q 810 681 808 682 q 810 675 810 678 q 810 669 810 672 q 783 554 810 614 q 714 432 757 494 q 584 283 658 357 q 429 146 510 210 l 235 -10 l 190 47 l 190 47 m 453 440 q 626 519 556 449 q 701 693 697 590 q 701 698 701 696 q 701 701 701 700 q 622 888 701 810 q 431 968 543 967 q 235 888 318 968 q 153 697 153 807 q 153 692 153 694 q 154 686 153 689 q 154 681 154 683 q 154 675 154 678 q 247 503 164 569 q 429 438 329 438 q 441 438 435 438 q 453 439 447 438 l 453 440 z "}," ":{"ha":432,"x_min":0,"x_max":0,"o":""},"!":{"ha":286,"x_min":36,"x_max":246,"o":"m 181 219 l 246 11 l 36 69 l 181 219 l 181 219 m 208 1014 l 189 283 l 118 319 l 78 1046 l 208 1014 l 208 1014 z "},"\"":{"ha":331,"x_min":38,"x_max":288,"o":"m 140 1028 l 86 653 l 38 1028 l 140 1028 l 140 1028 m 288 1028 l 233 653 l 185 1028 l 288 1028 l 288 1028 z "},"#":{"ha":781,"x_min":40,"x_max":743,"o":"m 699 292 l 558 292 l 517 0 l 425 0 l 467 292 l 279 292 l 235 0 l 143 0 l 188 292 l 40 292 l 43 374 l 197 374 l 222 565 l 78 565 l 74 651 l 233 647 l 275 953 l 367 953 l 326 647 l 514 647 l 556 953 l 647 953 l 606 647 l 743 651 l 718 565 l 597 565 l 571 374 l 713 374 l 699 292 l 699 292 m 507 565 l 314 565 l 286 372 l 479 372 l 507 565 l 507 565 z "},"$":{"ha":671,"x_min":29,"x_max":638,"o":"m 365 1000 q 391 998 379 999 q 415 996 403 997 q 438 992 426 994 q 464 988 450 990 q 494 981 481 985 q 521 972 508 976 q 543 965 532 969 q 567 956 554 961 l 543 710 l 526 775 q 522 792 524 783 q 518 810 519 801 q 506 853 513 833 q 483 888 499 874 q 463 903 475 896 q 436 915 450 910 q 400 926 417 922 q 379 931 383 931 l 360 936 l 360 544 l 403 526 q 422 517 413 521 q 439 508 431 513 q 574 413 513 474 q 636 256 635 351 q 569 77 638 153 q 399 -15 501 1 l 364 -22 l 364 -117 l 288 -117 l 288 -26 q 252 -24 268 -25 q 221 -18 236 -22 q 193 -12 207 -15 q 164 -3 179 -8 q 153 0 158 -1 q 142 3 147 1 q 123 10 132 7 q 104 18 114 14 q 81 30 93 24 q 56 44 69 36 l 38 303 l 65 235 q 81 196 74 213 q 94 165 88 179 q 123 117 107 136 q 169 79 139 97 q 182 73 175 76 q 194 67 189 69 q 235 54 215 58 q 265 50 254 50 l 288 53 l 288 446 l 240 465 q 87 566 144 506 q 31 732 29 626 q 91 892 33 825 q 240 983 149 958 l 276 994 l 293 1028 l 347 1028 l 365 1000 l 365 1000 m 361 53 l 385 53 q 403 53 393 51 q 421 60 413 56 q 502 122 465 76 q 539 221 539 167 q 538 227 538 224 q 538 233 538 231 q 507 319 532 285 q 453 374 482 354 q 413 397 432 389 q 381 408 393 406 l 361 414 l 361 53 l 361 53 m 288 924 l 264 919 q 166 864 208 910 q 124 753 124 818 q 151 665 124 706 q 211 601 178 624 q 234 586 222 592 q 257 579 246 581 l 288 575 l 288 924 l 288 924 z "},"%":{"ha":1182,"x_min":38,"x_max":1144,"o":"m 876 586 q 879 585 878 585 q 882 585 881 585 q 883 585 882 585 q 886 585 885 585 q 1069 501 997 585 q 1142 294 1140 418 q 1072 90 1144 181 q 881 -1 1000 -1 q 878 -1 879 -1 q 878 -1 878 -1 q 876 -1 876 -1 q 874 -1 875 -1 q 700 86 767 1 q 632 286 633 171 q 701 491 631 401 q 876 585 771 581 l 876 586 m 864 503 q 741 439 788 496 q 694 299 694 382 q 694 298 694 299 q 694 296 694 297 q 694 294 694 294 q 694 293 694 293 q 694 284 694 289 q 696 275 694 279 q 754 143 703 203 q 882 83 806 83 q 1024 142 965 82 q 1082 288 1083 201 q 1022 438 1081 372 q 881 503 963 503 q 877 503 879 503 q 872 503 875 503 q 869 501 871 501 q 864 501 867 501 l 864 503 m 817 1021 l 413 0 l 361 0 l 767 1021 l 817 1021 l 817 1021 m 285 1025 q 290 1024 288 1024 q 293 1024 292 1024 q 476 935 404 1024 q 549 733 547 846 q 479 526 550 619 q 289 433 408 433 q 288 433 289 433 q 286 433 288 433 q 284 433 285 433 q 283 433 283 433 q 109 525 176 438 q 39 725 42 613 q 108 930 38 840 q 285 1024 179 1019 l 285 1025 m 272 943 q 147 874 193 935 q 101 728 101 814 q 101 719 101 724 q 103 710 101 714 q 162 580 110 639 q 289 521 214 521 q 429 580 374 519 q 483 726 485 640 q 425 877 482 811 q 286 942 368 943 q 278 942 282 942 q 272 942 275 942 l 272 943 z "},"&":{"ha":1238,"x_min":40,"x_max":1204,"o":"m 550 551 q 533 548 542 549 q 517 547 525 547 q 459 556 486 547 q 408 578 432 565 l 401 553 q 435 511 419 529 q 465 476 450 493 q 477 464 471 471 q 489 451 483 457 q 522 418 504 435 q 560 382 539 401 q 606 340 585 358 q 649 304 628 321 q 666 290 657 297 q 683 276 675 283 q 723 247 703 263 q 768 215 743 232 q 781 232 775 224 q 794 247 788 240 q 813 272 804 260 q 831 297 821 285 q 845 320 838 308 q 860 344 853 332 q 879 380 871 364 q 894 413 888 396 q 906 437 901 424 q 917 464 911 450 q 922 476 919 469 q 926 490 924 483 l 888 494 q 883 493 886 493 q 879 494 881 493 q 874 494 876 494 q 869 494 872 494 q 856 494 863 494 q 842 493 849 493 q 819 489 831 492 q 797 482 807 486 q 776 468 785 476 q 761 450 768 460 q 753 438 757 444 q 743 425 749 432 l 717 396 l 750 582 q 761 576 756 578 q 772 571 767 574 q 788 567 779 568 q 806 564 796 565 q 818 563 813 563 q 829 563 824 563 q 833 563 831 563 q 836 563 835 563 q 842 563 839 563 q 850 563 846 563 l 1100 564 q 1116 563 1108 563 q 1131 564 1124 564 q 1142 567 1136 565 q 1154 569 1147 568 q 1160 572 1157 571 q 1165 574 1163 572 q 1176 578 1171 576 q 1188 583 1182 581 q 1196 588 1192 586 q 1204 593 1200 590 l 1167 376 l 1153 440 q 1144 463 1150 453 q 1125 479 1138 472 q 1105 488 1117 485 q 1079 492 1093 490 q 1065 494 1072 493 q 1050 494 1057 494 q 1045 496 1047 496 q 1042 496 1043 496 l 1007 500 q 1001 479 1004 489 q 994 461 997 469 q 986 438 990 449 q 976 417 982 428 q 961 383 969 400 q 943 346 953 365 q 928 319 936 332 q 914 293 921 306 q 900 269 907 281 q 885 246 893 258 q 859 212 872 229 q 829 174 846 194 l 865 146 q 880 134 872 139 q 897 124 888 129 q 919 112 908 118 q 943 100 931 106 q 976 86 960 93 q 1007 74 993 79 q 1046 59 1028 65 q 1081 47 1064 53 q 1117 36 1099 42 q 1158 26 1135 31 l 1072 10 q 1050 5 1063 7 q 1025 3 1038 3 q 960 10 994 4 q 890 29 926 17 q 842 49 864 39 q 801 71 821 58 q 778 87 790 78 q 753 107 765 96 l 701 76 q 637 40 668 54 q 575 15 606 25 q 513 3 544 7 q 449 -1 482 -1 q 438 -1 443 -1 q 428 -1 433 -1 q 160 97 279 3 q 42 339 40 192 q 82 497 42 426 q 182 603 122 568 l 233 635 l 215 701 q 209 729 211 715 q 207 757 207 743 q 208 777 207 767 q 211 800 210 788 q 304 969 226 903 q 483 1035 382 1035 q 663 973 585 1035 q 747 810 740 911 q 747 807 747 808 q 747 804 747 806 q 747 802 747 803 q 747 801 747 801 q 747 797 747 799 q 747 792 747 794 q 688 633 747 703 q 550 550 629 564 l 550 551 m 229 181 q 317 122 269 143 q 413 93 364 101 q 444 89 428 90 q 476 88 461 88 q 567 99 524 88 q 644 129 610 110 l 676 149 q 626 185 649 167 q 582 222 603 204 q 558 243 569 232 q 535 265 546 254 q 484 314 510 289 q 428 369 458 339 q 385 416 406 392 q 346 465 364 440 q 301 528 322 497 q 263 588 281 560 l 211 536 q 163 458 179 501 q 146 369 146 415 q 146 363 146 367 q 146 357 146 360 q 170 260 149 307 q 229 179 192 214 l 229 181 m 471 969 q 354 913 401 964 q 307 792 307 861 q 307 790 307 790 q 307 788 307 789 q 359 669 310 719 q 469 617 408 618 q 598 663 549 617 q 651 781 647 710 q 651 783 651 782 q 651 786 651 785 q 651 788 651 786 q 651 790 651 789 q 600 916 651 863 q 476 968 549 969 q 476 968 476 968 q 474 968 475 968 q 472 968 472 968 q 471 968 471 968 l 471 969 z "},"'":{"ha":182,"x_min":38,"x_max":140,"o":"m 140 1028 l 86 653 l 38 1028 l 140 1028 l 140 1028 z "},"(":{"ha":461,"x_min":42,"x_max":428,"o":"m 418 1004 l 378 968 q 340 929 360 950 q 299 883 319 908 q 181 703 235 808 q 125 483 128 599 q 125 478 125 481 q 125 472 125 475 q 208 189 125 311 q 397 -18 292 67 l 428 -42 l 400 -85 l 368 -64 q 312 -24 342 -47 q 251 29 282 0 q 108 222 174 107 q 43 475 42 338 q 43 480 43 478 q 43 483 43 482 q 103 711 46 604 q 229 897 161 818 q 294 964 263 935 q 351 1014 326 993 l 389 1044 l 418 1004 l 418 1004 z "},")":{"ha":476,"x_min":51,"x_max":435,"o":"m 60 -44 l 100 -7 q 139 29 118 8 q 181 75 160 50 q 298 256 244 151 q 353 475 351 360 q 353 481 353 478 q 353 486 353 485 q 269 769 353 647 q 81 976 186 892 l 51 1003 l 78 1044 l 110 1025 q 165 983 136 1007 q 225 929 194 960 q 369 738 304 853 q 435 488 435 624 q 435 481 435 485 q 435 475 435 478 q 374 247 432 354 q 249 61 317 140 q 183 -5 215 24 q 126 -54 151 -33 l 89 -85 l 60 -44 l 60 -44 z "},"*":{"ha":544,"x_min":46,"x_max":507,"o":"m 60 932 l 221 886 l 267 1060 l 328 883 l 497 932 l 381 796 l 507 667 l 329 710 l 278 539 l 217 714 l 46 675 l 163 799 l 60 932 l 60 932 z "},"+":{"ha":785,"x_min":39,"x_max":751,"o":"m 39 396 l 354 396 l 354 717 l 432 717 l 432 396 l 751 396 l 751 315 l 435 315 l 435 -7 l 356 -7 l 356 317 l 39 317 l 39 396 l 39 396 z "},",":{"ha":394,"x_min":43,"x_max":358,"o":"m 358 139 l 43 -199 l 218 228 l 358 139 l 358 139 z "},"-":{"ha":494,"x_min":36,"x_max":460,"o":"m 301 404 l 168 404 q 165 403 167 403 q 163 403 164 403 q 147 403 156 403 q 131 401 139 403 q 108 396 119 400 q 92 383 97 392 q 88 377 89 381 q 83 371 86 374 q 82 367 83 369 q 79 363 81 365 q 70 346 75 356 q 58 322 65 336 l 36 283 l 36 603 l 47 579 q 53 566 50 572 q 60 554 57 560 q 62 549 61 551 q 64 546 63 547 q 75 523 69 533 q 85 506 81 513 q 106 492 92 494 q 138 489 121 489 q 149 489 143 489 q 160 489 154 489 q 165 489 163 489 q 171 489 168 489 l 322 490 q 326 489 324 489 q 332 489 329 489 q 347 490 339 489 q 365 492 356 490 q 383 498 374 494 q 397 508 392 501 q 408 522 401 513 q 419 540 414 531 q 422 546 421 543 q 425 551 424 549 q 435 570 431 561 q 444 586 440 579 l 460 613 l 460 283 l 438 324 q 426 346 431 336 q 417 363 421 356 q 414 367 415 365 q 413 371 413 369 q 408 377 410 374 q 404 383 407 381 q 385 394 400 390 q 351 400 369 397 q 322 402 336 401 q 301 403 308 403 l 301 404 z "},".":{"ha":296,"x_min":36,"x_max":257,"o":"m 189 140 l 257 -86 l 36 -15 l 189 140 l 189 140 z "},"/":{"ha":625,"x_min":24,"x_max":583,"o":"m 583 1043 l 111 -14 l 24 -14 l 494 1043 l 583 1043 l 583 1043 z "},":":{"ha":296,"x_min":35,"x_max":256,"o":"m 186 140 l 256 -86 l 35 -15 l 186 140 l 186 140 m 186 638 l 256 411 l 35 481 l 186 638 l 186 638 z "},";":{"ha":397,"x_min":42,"x_max":356,"o":"m 356 139 l 42 -199 l 215 228 l 356 139 l 356 139 m 283 638 l 353 411 l 132 481 l 283 638 l 283 638 z "},"<":{"ha":607,"x_min":36,"x_max":576,"o":"m 576 626 l 576 531 l 101 307 l 576 93 l 576 0 l 36 253 l 36 367 l 576 626 l 576 626 z "},"=":{"ha":721,"x_min":40,"x_max":676,"o":"m 40 254 l 676 254 l 676 183 l 40 183 l 40 254 l 40 254 m 40 422 l 676 422 l 676 350 l 40 350 l 40 422 l 40 422 z "},">":{"ha":611,"x_min":36,"x_max":576,"o":"m 36 0 l 36 96 l 513 318 l 36 533 l 36 626 l 576 372 l 576 260 l 36 0 l 36 0 z "},"?":{"ha":715,"x_min":39,"x_max":672,"o":"m 372 140 l 438 -86 l 219 -15 l 372 140 l 372 140 m 383 208 l 421 267 q 456 320 446 303 q 474 350 467 338 q 482 363 478 356 q 492 379 486 369 q 503 402 500 393 q 510 418 507 411 q 511 421 511 419 q 511 424 511 422 q 515 433 514 428 q 519 446 517 439 l 469 425 q 466 422 468 422 q 461 419 464 421 q 448 410 456 415 q 431 400 440 406 q 388 382 414 390 q 314 371 361 374 q 310 371 313 371 q 304 371 307 371 q 267 374 286 371 q 228 382 247 376 q 99 464 158 403 q 39 633 40 525 q 129 854 39 768 q 363 950 219 940 q 367 950 365 950 q 372 950 369 950 q 376 950 374 950 q 381 950 379 950 q 583 872 496 950 q 671 676 671 794 q 649 528 672 607 q 540 321 626 449 l 432 165 l 383 208 l 383 208 m 374 461 q 501 524 447 469 q 565 640 556 578 q 566 651 565 646 q 567 661 567 656 q 567 666 567 664 q 567 669 567 668 q 499 815 561 756 q 353 875 438 874 q 349 875 351 875 q 346 875 347 875 q 190 811 254 875 q 125 647 125 747 q 125 642 125 644 q 126 638 125 639 q 126 632 126 635 q 126 626 126 629 q 199 501 133 546 q 340 457 264 457 q 357 458 349 457 q 374 460 365 458 l 374 461 z "},"@":{"ha":1065,"x_min":36,"x_max":1025,"o":"m 643 676 l 658 639 l 685 728 l 806 728 l 707 360 l 700 335 q 697 317 699 326 q 693 300 694 308 q 692 292 692 296 q 692 283 692 288 q 697 260 692 271 q 714 246 701 250 q 724 244 719 244 q 735 243 729 243 q 763 248 749 243 q 792 263 778 253 q 875 351 835 292 q 935 476 915 411 q 942 508 939 493 q 947 539 946 524 q 950 567 950 554 q 950 594 950 581 q 877 802 950 715 q 647 926 804 889 q 631 931 639 929 q 614 933 622 932 q 581 938 597 936 q 547 939 564 939 q 256 819 381 938 q 117 536 132 701 q 115 516 115 526 q 115 494 115 506 q 222 206 115 331 q 493 58 329 82 q 526 56 510 57 q 558 54 543 54 q 741 92 658 54 q 872 174 824 129 q 899 202 888 188 q 917 229 910 217 l 931 258 l 1019 258 l 1003 231 q 814 47 935 107 q 556 -12 693 -14 q 524 -12 540 -12 q 493 -10 508 -12 q 167 157 297 8 q 36 500 36 306 q 36 509 36 504 q 36 518 36 514 q 37 527 36 522 q 38 536 38 532 q 204 872 53 733 q 547 1010 356 1010 q 594 1008 571 1010 q 640 1000 617 1006 q 920 861 815 965 q 1025 603 1025 757 q 1025 588 1025 596 q 1024 571 1025 579 q 917 315 1014 425 q 685 203 819 204 q 640 219 660 203 q 607 256 619 236 q 596 276 600 265 q 590 293 592 286 l 588 322 l 561 289 q 495 229 532 250 q 415 210 458 208 q 392 211 404 210 q 369 215 381 213 q 263 294 300 235 q 226 425 225 354 q 226 439 226 432 q 228 453 226 446 q 229 467 228 460 q 232 481 231 474 q 319 638 251 569 q 463 731 386 706 q 498 739 481 736 q 532 742 515 742 q 552 741 543 742 q 571 738 561 740 q 616 716 599 732 q 643 675 633 700 l 643 676 m 383 519 q 369 476 375 499 q 358 432 363 454 q 353 399 356 415 q 351 367 351 382 q 365 297 351 328 q 413 256 379 267 q 429 251 421 253 q 446 250 438 250 q 528 297 494 250 q 586 401 563 344 q 594 426 590 414 q 603 449 599 438 q 615 483 610 465 q 624 519 619 501 q 629 556 628 538 q 631 590 631 574 q 620 653 631 625 q 583 694 610 681 q 575 699 579 697 q 567 701 571 701 q 557 703 561 703 q 549 704 553 704 q 466 659 506 704 q 400 558 426 614 q 392 538 396 549 q 383 518 388 528 l 383 519 z "},"A":{"ha":1168,"x_min":32,"x_max":1136,"o":"m 639 1028 q 644 1008 642 1017 q 650 990 647 999 q 654 972 651 981 q 660 953 657 964 q 717 788 679 893 q 796 571 754 683 q 801 557 799 564 q 807 543 804 550 q 902 290 857 406 q 963 140 947 174 q 971 121 967 129 q 979 103 975 113 q 986 88 982 96 q 994 72 990 81 q 1023 47 1001 58 q 1069 26 1044 36 q 1081 22 1075 25 q 1092 18 1086 19 q 1099 15 1096 17 q 1107 11 1103 13 l 1136 0 l 725 0 l 761 14 q 779 19 769 15 q 800 28 789 24 q 835 44 819 35 q 856 68 851 54 q 856 69 856 68 q 857 71 856 69 q 857 73 857 72 q 857 75 857 74 q 854 93 857 82 q 847 114 851 104 q 844 124 846 119 q 842 132 843 128 q 838 142 840 138 q 835 151 836 147 l 742 413 l 399 413 l 301 153 q 299 147 300 149 q 299 142 299 144 q 294 129 296 136 q 290 115 292 122 q 283 86 286 100 q 281 65 281 72 q 281 63 281 64 q 281 61 281 63 q 302 41 286 49 q 338 26 318 33 q 343 26 340 26 q 347 24 346 25 q 361 19 354 21 q 374 14 368 17 l 411 0 l 32 0 l 63 11 q 84 18 72 14 q 107 26 96 22 q 151 46 131 35 q 179 69 172 57 q 186 83 183 76 q 192 96 189 90 q 196 104 194 100 q 199 114 197 108 q 203 125 201 119 q 208 138 206 131 q 244 219 226 176 q 279 306 261 261 q 299 351 289 328 q 318 397 308 374 q 449 733 390 576 q 521 932 507 889 q 528 957 525 946 q 535 979 532 968 q 536 987 535 983 q 538 994 538 990 q 542 1010 540 1001 q 546 1026 544 1018 l 639 1028 l 639 1028 m 710 485 l 569 849 l 428 485 l 710 485 l 710 485 z "},"B":{"ha":875,"x_min":36,"x_max":838,"o":"m 36 1028 l 289 1028 q 330 1026 311 1026 q 365 1026 349 1026 q 386 1028 376 1028 q 406 1028 396 1028 q 451 1028 428 1028 q 503 1026 474 1028 q 680 964 603 1022 q 763 799 757 906 q 763 795 763 797 q 763 792 763 793 q 763 788 763 790 q 763 785 763 786 q 722 656 763 710 q 613 565 681 601 l 569 543 l 650 517 q 781 431 732 489 q 838 288 831 374 q 838 279 838 283 q 838 271 838 275 q 754 95 838 167 q 572 1 671 24 q 537 -4 554 -1 q 503 -7 519 -7 q 491 -7 497 -7 q 478 -7 485 -7 q 449 -6 463 -7 q 422 -4 435 -6 q 415 -4 418 -4 q 407 -3 411 -4 q 372 -1 390 -3 q 331 0 353 0 l 36 0 l 67 11 q 89 18 76 14 q 114 26 101 22 q 159 45 138 35 q 189 67 181 56 q 193 72 192 69 q 196 76 194 75 q 208 103 204 90 q 211 133 211 117 l 211 892 q 209 925 211 910 q 196 954 207 940 q 166 974 188 965 q 119 992 144 983 q 90 1002 104 997 q 64 1013 75 1007 l 36 1028 l 36 1028 m 358 74 q 398 62 371 67 q 456 57 425 57 q 491 58 474 57 q 525 64 508 60 q 674 144 628 89 q 718 276 719 200 q 718 291 718 283 q 717 307 718 299 q 628 444 708 400 q 451 494 547 489 q 437 496 444 496 q 421 496 429 496 l 329 497 l 329 135 q 335 99 329 115 q 358 72 342 82 l 358 74 m 465 960 q 457 958 461 958 q 447 958 453 958 q 434 958 440 958 q 421 958 428 958 q 376 954 397 957 q 346 947 354 951 q 331 925 333 939 q 329 894 329 911 q 329 893 329 894 q 329 890 329 892 l 329 560 l 394 560 q 422 560 408 558 q 449 564 435 561 q 593 631 528 578 q 658 765 658 683 q 658 770 658 768 q 658 774 658 772 q 657 778 657 776 q 657 783 657 781 q 590 921 647 886 q 465 958 533 956 l 465 960 z "},"C":{"ha":1071,"x_min":36,"x_max":1025,"o":"m 608 1067 q 653 1067 632 1067 q 693 1068 674 1068 q 749 1066 722 1068 q 804 1060 776 1064 q 858 1049 831 1056 q 914 1035 885 1043 l 954 1025 l 956 746 l 922 832 q 916 847 919 839 q 910 863 913 854 q 887 914 899 890 q 856 950 875 938 q 850 953 853 951 q 843 957 847 954 q 770 976 818 967 q 669 988 722 985 q 650 989 660 989 q 631 989 640 989 q 622 989 626 989 q 615 989 618 989 q 608 988 611 988 q 600 988 604 988 q 285 849 413 978 q 158 521 157 721 q 294 192 160 329 q 629 58 428 56 q 646 59 638 58 q 663 60 654 60 q 814 92 742 65 q 917 153 886 118 q 938 183 928 165 q 958 218 949 200 q 975 252 967 235 q 990 282 983 269 l 1025 349 l 965 51 l 915 33 q 886 22 900 26 q 858 13 872 17 q 735 -8 800 -3 q 572 -12 671 -14 q 525 -10 549 -12 q 478 -1 501 -7 q 179 167 315 32 q 36 500 43 301 q 36 505 36 503 q 36 510 36 507 q 36 514 36 511 q 36 518 36 517 q 208 903 36 753 q 608 1065 379 1054 l 608 1067 z "},"D":{"ha":1168,"x_min":36,"x_max":1124,"o":"m 1121 575 q 1123 543 1122 558 q 1124 513 1124 528 q 1046 238 1124 342 q 875 78 968 133 q 752 19 811 39 q 660 -4 693 0 q 616 -9 640 -7 q 565 -11 592 -11 q 538 -10 551 -11 q 510 -10 524 -10 q 471 -8 490 -8 q 433 -6 451 -7 q 376 -1 403 -3 q 331 0 349 0 l 36 0 l 67 11 q 89 18 76 14 q 114 26 101 22 q 159 45 138 35 q 189 67 181 56 q 193 72 192 69 q 196 76 194 75 q 208 103 204 90 q 211 133 211 117 l 211 892 q 209 925 211 910 q 196 954 207 940 q 165 974 186 965 q 119 990 143 983 q 92 999 106 996 q 68 1007 79 1003 l 38 1019 l 290 1019 q 333 1019 308 1018 q 389 1022 358 1021 q 453 1024 419 1022 q 525 1025 488 1025 q 575 1024 550 1025 q 625 1022 600 1024 q 660 1019 643 1021 q 693 1015 676 1018 q 774 995 729 1010 q 865 954 818 981 q 1031 810 954 904 q 1121 574 1108 717 l 1121 575 m 329 892 l 329 144 q 335 105 329 122 q 358 76 340 88 q 362 74 360 75 q 368 74 364 74 q 427 65 386 69 q 517 61 468 61 q 538 61 528 61 q 558 63 549 61 q 645 71 603 64 q 718 92 688 78 q 772 116 742 103 q 833 149 801 129 q 947 264 894 188 q 1006 483 1000 340 q 1006 488 1006 486 q 1006 493 1006 490 q 1006 497 1006 494 q 1006 501 1006 500 q 910 781 1006 654 q 653 943 815 907 q 593 950 636 947 q 501 951 550 953 q 499 951 500 951 q 496 951 497 951 q 405 948 447 951 q 347 936 363 944 q 333 918 336 931 q 329 890 329 906 l 329 892 z "},"E":{"ha":824,"x_min":36,"x_max":779,"o":"m 36 1028 l 732 1028 l 731 800 l 711 856 q 706 868 708 861 q 701 881 704 875 q 687 915 694 900 q 663 940 679 929 q 638 951 651 947 q 610 957 624 956 q 594 958 601 957 q 578 958 586 958 l 407 960 q 401 958 404 958 q 394 958 399 958 q 362 957 378 958 q 338 947 346 956 q 331 928 332 942 q 329 900 329 915 q 329 899 329 900 q 329 897 329 899 q 329 894 329 896 q 329 890 329 892 l 329 558 l 526 558 q 543 557 535 557 q 560 557 551 557 q 591 559 576 557 q 618 571 606 561 q 624 576 621 574 q 628 581 626 578 q 638 592 635 586 q 646 606 642 597 l 675 667 l 675 340 l 663 372 q 659 382 661 376 q 656 393 657 388 q 653 398 654 396 q 651 403 653 400 q 635 445 644 425 q 611 474 626 465 q 594 482 603 479 q 578 486 586 485 q 560 488 569 488 q 540 488 551 488 q 537 488 539 488 q 533 488 535 488 l 329 489 l 329 147 q 330 132 329 140 q 332 117 331 124 q 340 90 335 101 q 353 74 344 78 q 373 67 364 68 q 392 65 382 65 q 399 65 396 65 q 407 67 403 65 q 414 67 410 67 q 422 67 418 67 l 650 68 q 658 67 654 67 q 667 67 663 67 q 674 65 669 65 q 682 65 678 65 q 696 67 689 65 q 710 71 703 68 q 728 93 721 76 q 743 131 736 110 q 746 140 744 135 q 749 149 747 144 q 755 165 751 157 q 761 181 758 174 l 779 225 l 772 0 l 36 0 l 68 10 q 94 15 79 11 q 124 24 108 19 q 151 34 138 29 q 176 44 165 39 q 189 51 183 47 q 197 58 194 56 q 207 77 204 67 q 211 99 210 88 q 211 107 211 103 q 211 115 211 111 q 211 128 211 122 q 211 139 211 133 l 211 892 q 211 905 211 897 q 211 918 211 913 q 209 944 211 932 q 197 967 207 956 q 189 974 194 969 q 176 981 183 978 q 151 991 165 986 q 124 1001 138 996 q 94 1010 108 1006 q 68 1017 79 1014 l 36 1028 l 36 1028 z "},"F":{"ha":746,"x_min":36,"x_max":704,"o":"m 36 1028 l 704 1028 l 704 800 l 685 856 q 680 868 682 861 q 675 881 678 875 q 660 915 668 900 q 636 940 653 929 q 607 952 622 949 q 575 957 592 956 q 563 958 569 958 q 550 958 557 958 l 407 960 q 401 958 404 958 q 394 958 399 958 q 362 957 378 958 q 338 947 346 956 q 330 934 332 942 q 328 919 328 926 q 328 913 328 917 q 329 906 328 910 q 329 903 329 904 q 329 900 329 901 q 329 895 329 897 q 329 890 329 893 l 329 558 l 514 558 q 531 557 522 557 q 546 557 539 557 q 578 559 563 557 q 606 571 593 561 q 611 576 608 574 q 615 581 614 578 q 623 589 619 585 q 629 600 626 593 q 630 603 629 601 q 632 606 631 604 l 661 667 l 661 340 l 649 372 q 644 383 646 376 q 640 396 642 389 q 640 399 640 397 q 639 403 639 401 q 622 445 631 425 q 597 474 614 465 q 582 481 589 478 q 567 485 575 483 q 549 488 558 488 q 528 488 539 488 q 524 488 526 488 q 521 488 522 488 l 329 489 l 329 135 q 331 94 329 111 q 347 60 333 76 q 377 41 356 49 q 422 28 399 33 q 430 25 426 26 q 438 24 433 24 q 458 17 449 21 q 476 11 468 14 l 507 0 l 36 0 l 68 10 q 94 15 79 11 q 124 24 108 19 q 151 34 138 29 q 176 44 165 39 q 189 51 183 47 q 197 58 194 56 q 205 72 201 65 q 210 85 208 78 q 212 99 211 92 q 213 111 213 106 q 213 119 213 115 q 213 125 213 122 q 211 133 211 129 q 211 139 211 136 l 211 892 q 211 905 211 897 q 211 918 211 913 q 209 944 211 932 q 197 967 207 956 q 189 974 194 969 q 176 981 183 978 q 151 991 165 986 q 124 1001 138 996 q 94 1010 108 1006 q 68 1017 79 1014 l 36 1028 l 36 1028 z "},"G":{"ha":1154,"x_min":39,"x_max":1117,"o":"m 876 213 l 876 315 q 872 338 876 328 q 860 358 868 349 q 857 362 858 360 q 854 365 856 364 q 833 378 846 374 q 804 388 819 383 q 792 390 799 389 q 779 393 786 392 q 769 397 774 396 q 760 400 764 399 l 715 424 l 1117 424 l 1069 397 q 1064 393 1067 394 q 1058 390 1061 392 q 1047 385 1053 388 q 1035 382 1040 383 q 1010 370 1021 376 q 993 351 999 364 q 987 310 989 342 q 985 240 985 278 q 985 234 985 238 q 985 228 985 231 q 986 188 985 207 q 989 154 988 169 l 997 79 l 917 47 q 901 40 910 43 q 885 35 893 38 q 757 1 833 15 q 575 -12 681 -14 q 529 -10 553 -12 q 482 -3 506 -7 q 183 166 319 31 q 39 500 46 301 q 39 505 39 503 q 39 510 39 507 q 39 514 39 511 q 39 518 39 517 q 212 905 39 753 q 614 1067 385 1057 q 644 1068 629 1068 q 674 1068 660 1068 q 781 1061 732 1068 q 878 1042 831 1054 q 896 1035 886 1039 q 915 1029 906 1032 l 974 1011 l 953 719 l 925 832 q 905 901 917 868 q 867 950 893 933 q 855 956 863 953 q 836 964 847 960 q 769 980 810 972 q 683 990 728 988 q 654 992 669 992 q 625 993 639 993 q 613 993 619 993 q 600 993 607 993 q 288 857 415 982 q 161 539 160 732 q 161 535 161 538 q 161 531 161 532 q 161 526 161 528 q 161 521 161 524 q 301 179 169 304 q 633 57 433 54 q 656 58 644 57 q 679 60 668 58 q 796 90 742 68 q 865 139 850 113 q 869 147 868 143 q 872 153 871 150 q 876 176 875 164 q 876 211 876 189 l 876 213 z "},"H":{"ha":1238,"x_min":28,"x_max":1208,"o":"m 1050 968 q 1047 962 1049 964 q 1043 957 1044 960 q 1034 930 1035 943 q 1033 900 1033 917 q 1033 895 1033 897 q 1033 890 1033 893 l 1035 135 q 1035 128 1035 131 q 1035 124 1035 126 q 1036 90 1035 106 q 1050 60 1038 75 q 1080 41 1058 49 q 1125 28 1101 33 q 1133 25 1129 26 q 1140 24 1136 24 q 1160 17 1150 21 q 1179 11 1171 14 l 1208 0 l 739 0 l 771 10 q 797 15 782 11 q 826 24 811 19 q 854 34 840 29 q 879 44 868 39 q 892 51 886 47 q 900 58 897 56 q 905 67 903 63 q 910 75 907 71 q 913 92 913 83 q 914 108 914 100 q 914 120 914 114 q 914 133 914 126 l 914 485 l 321 485 l 321 135 q 323 94 321 111 q 339 60 325 76 q 369 41 347 49 q 414 28 390 33 q 422 25 418 26 q 429 24 425 24 q 450 17 440 21 q 468 11 460 14 l 499 0 l 28 0 l 60 10 q 85 15 71 11 q 115 24 100 19 q 143 34 129 29 q 168 44 157 39 q 181 51 175 47 q 189 58 186 56 q 197 72 193 65 q 201 85 200 78 q 203 99 203 92 q 204 111 204 106 q 204 119 204 115 q 204 125 204 122 q 203 133 203 129 q 203 139 203 136 l 203 888 q 203 892 203 889 q 204 900 203 896 q 204 907 204 903 q 204 915 204 911 q 203 926 204 921 q 201 936 203 931 q 197 952 200 944 q 189 967 194 960 q 181 974 186 969 q 168 981 175 978 q 143 991 157 986 q 115 1001 129 996 q 85 1010 100 1006 q 60 1017 71 1014 l 28 1028 l 499 1028 l 468 1015 q 449 1007 460 1010 q 425 1001 438 1004 q 419 999 422 1000 q 414 997 417 999 q 369 984 390 992 q 339 967 347 976 q 335 962 338 964 q 332 957 333 960 q 322 926 324 942 q 321 890 321 910 l 321 569 l 914 569 l 914 892 q 914 905 914 897 q 914 918 914 913 q 912 944 914 932 q 900 967 910 956 q 892 974 897 969 q 879 981 886 978 q 854 991 868 986 q 826 1001 840 996 q 797 1010 811 1006 q 771 1017 782 1014 l 739 1028 l 1208 1028 l 1179 1015 q 1160 1007 1171 1010 q 1136 1001 1149 1004 q 1131 999 1133 1000 q 1125 997 1128 999 q 1080 984 1101 992 q 1050 967 1058 976 l 1050 968 z "},"I":{"ha":540,"x_min":36,"x_max":507,"o":"m 329 892 l 329 135 q 331 94 329 111 q 347 60 333 76 q 377 41 356 49 q 422 28 399 33 q 430 25 426 26 q 438 24 433 24 q 458 17 449 21 q 476 11 468 14 l 507 0 l 36 0 l 68 10 q 94 15 79 11 q 124 24 108 19 q 151 34 138 29 q 176 44 165 39 q 189 51 183 47 q 197 58 194 56 q 205 72 201 65 q 210 85 208 78 q 212 99 211 92 q 213 111 213 106 q 213 119 213 115 q 213 125 213 122 q 211 133 211 129 q 211 139 211 136 l 211 888 q 211 892 211 889 q 213 900 211 896 q 213 907 213 903 q 213 915 213 911 q 212 926 213 921 q 210 936 211 931 q 206 952 208 944 q 197 967 203 960 q 189 974 194 969 q 176 981 183 978 q 151 991 165 986 q 124 1001 138 996 q 94 1010 108 1006 q 68 1017 79 1014 l 36 1028 l 507 1028 l 476 1015 q 457 1007 468 1010 q 433 1001 446 1004 q 428 999 431 1000 q 422 997 425 999 q 377 984 399 992 q 347 967 356 976 q 344 962 346 964 q 340 957 342 960 q 331 926 332 942 q 329 890 329 910 l 329 892 z "},"J":{"ha":588,"x_min":40,"x_max":540,"o":"m 364 324 q 342 106 364 189 q 219 -21 321 22 q 166 -40 196 -32 q 101 -47 136 -47 q 97 -47 100 -47 q 90 -47 93 -47 l 40 -46 l 76 -29 q 87 -26 82 -28 q 96 -21 92 -24 q 122 -9 110 -15 q 144 4 133 -3 q 160 15 153 10 q 176 28 168 21 q 217 81 203 50 q 239 144 232 111 q 244 181 243 163 q 246 215 246 199 l 246 888 q 246 892 246 889 q 247 900 246 896 q 247 907 247 903 q 247 915 247 911 q 247 926 247 921 q 244 936 246 931 q 240 952 243 944 q 232 967 238 960 q 224 974 229 969 q 211 981 218 978 q 186 991 200 986 q 158 1001 172 996 q 128 1010 143 1006 q 103 1017 114 1014 l 71 1028 l 540 1028 l 511 1015 q 492 1007 503 1010 q 468 1001 481 1004 q 463 999 465 1000 q 457 997 460 999 q 412 984 433 992 q 382 967 390 976 q 378 962 381 964 q 375 957 376 960 q 365 926 367 942 q 364 890 364 910 l 364 324 l 364 324 z "},"K":{"ha":1135,"x_min":36,"x_max":1103,"o":"m 329 510 l 329 135 q 331 94 329 111 q 347 60 333 76 q 377 41 356 49 q 422 28 399 33 q 430 25 426 26 q 438 24 433 24 q 458 17 449 21 q 476 11 468 14 l 507 0 l 36 0 l 68 10 q 94 15 79 11 q 124 24 108 19 q 151 34 138 29 q 176 44 165 39 q 189 51 183 47 q 197 58 194 56 q 205 72 201 65 q 210 85 208 78 q 212 99 211 92 q 213 111 213 106 q 213 119 213 115 q 213 125 213 122 q 211 133 211 129 q 211 139 211 136 l 211 888 q 211 897 211 892 q 211 910 211 903 q 211 922 211 915 q 210 935 211 928 q 206 951 208 943 q 197 967 203 960 q 190 974 194 969 q 176 981 185 978 q 153 991 167 986 q 124 1001 139 996 q 94 1010 108 1006 q 68 1017 79 1014 l 36 1028 l 507 1028 l 476 1015 q 457 1007 468 1010 q 433 1001 446 1004 q 428 999 431 1000 q 422 997 425 999 q 377 984 399 992 q 347 967 356 976 q 344 962 346 964 q 340 957 342 960 q 331 926 332 942 q 329 890 329 910 l 329 551 l 569 779 q 594 801 581 789 q 619 825 607 813 q 628 832 624 828 q 636 840 632 836 q 697 903 671 874 q 722 949 724 933 q 722 949 722 949 q 722 951 722 950 q 722 953 722 953 q 721 954 721 954 q 703 971 715 964 q 678 983 692 978 q 655 992 665 989 q 638 999 644 996 l 596 1018 l 997 1018 l 957 996 q 947 990 953 992 q 936 986 942 989 q 915 980 926 983 q 892 971 903 976 q 878 965 885 968 q 865 957 872 961 q 781 888 829 933 q 681 792 733 842 q 667 778 674 785 q 654 767 661 772 l 425 556 l 703 256 q 801 151 749 204 q 925 46 853 99 q 949 30 938 36 q 972 18 961 24 q 989 12 981 15 q 1007 6 997 8 q 1028 -1 1017 1 q 1054 -10 1040 -4 l 1103 -28 l 1039 -35 q 1035 -35 1038 -35 q 1031 -35 1033 -35 q 1028 -35 1029 -35 q 1026 -35 1028 -35 q 989 -33 1011 -35 q 943 -25 967 -31 q 890 -14 915 -21 q 851 0 865 -7 q 793 38 824 18 q 731 85 763 58 q 706 106 718 94 q 683 129 694 117 l 329 510 l 329 510 z "},"L":{"ha":792,"x_min":36,"x_max":743,"o":"m 329 892 l 329 135 q 332 106 329 119 q 344 82 335 92 q 367 71 353 74 q 394 67 381 68 q 401 67 399 67 q 407 67 404 67 l 578 68 q 598 67 588 67 q 619 71 608 68 q 647 76 633 72 q 671 88 661 81 q 700 119 690 100 q 718 163 710 139 q 722 173 719 168 q 725 182 724 178 l 743 233 l 743 0 l 36 0 l 68 10 q 94 15 79 11 q 124 24 108 19 q 151 34 138 29 q 176 44 165 39 q 189 51 183 47 q 197 58 194 56 q 202 67 200 63 q 207 75 204 71 q 210 92 210 83 q 211 108 211 100 q 211 120 211 114 q 211 133 211 126 l 211 888 q 211 892 211 889 q 213 900 211 896 q 213 907 213 903 q 213 915 213 911 q 212 926 213 921 q 210 936 211 931 q 206 952 208 944 q 197 967 203 960 q 189 974 194 969 q 176 981 183 978 q 151 991 165 986 q 124 1001 138 996 q 94 1010 108 1006 q 68 1017 79 1014 l 36 1028 l 507 1028 l 476 1015 q 457 1007 468 1010 q 433 1001 446 1004 q 428 999 431 1000 q 422 997 425 999 q 377 984 399 992 q 347 967 356 976 q 344 962 346 964 q 340 957 342 960 q 331 926 332 942 q 329 890 329 910 l 329 892 z "},"M":{"ha":1550,"x_min":36,"x_max":1517,"o":"m 354 907 q 428 765 382 847 q 524 593 474 682 q 534 574 529 583 q 544 557 539 565 q 680 327 617 432 q 761 199 743 222 q 886 420 806 271 q 1056 736 967 569 q 1064 751 1060 743 q 1072 765 1068 758 q 1098 813 1085 789 q 1124 860 1111 836 q 1144 899 1135 881 q 1161 935 1153 917 q 1165 943 1163 939 q 1168 951 1167 947 q 1184 987 1176 968 q 1201 1026 1192 1006 l 1278 1028 q 1281 982 1279 1003 q 1283 943 1282 961 q 1284 933 1283 938 q 1285 924 1285 928 q 1288 875 1286 900 q 1293 821 1290 850 q 1303 712 1297 769 q 1314 596 1308 654 q 1340 294 1328 432 q 1354 154 1353 157 q 1355 147 1354 150 q 1356 139 1356 143 q 1363 99 1358 118 q 1374 68 1368 81 q 1401 45 1381 56 q 1446 26 1422 35 q 1467 19 1457 22 q 1488 11 1478 15 l 1517 0 l 1085 0 l 1131 18 q 1141 20 1136 18 q 1151 24 1146 22 q 1153 24 1153 24 q 1156 25 1154 25 q 1198 40 1178 32 q 1225 61 1218 49 q 1240 94 1236 79 q 1243 124 1243 110 q 1242 140 1243 132 q 1240 156 1242 149 q 1238 166 1239 161 q 1238 176 1238 171 l 1181 807 q 1101 665 1156 763 q 986 456 1047 567 q 904 303 944 378 q 833 174 864 229 q 823 154 828 164 q 813 133 818 144 q 808 124 811 129 q 803 114 806 119 q 765 34 782 71 q 743 -11 747 -3 q 722 28 738 0 q 689 88 706 56 q 688 90 688 89 q 688 90 688 90 q 676 111 682 101 q 665 131 671 121 q 414 576 513 414 q 296 774 315 739 l 257 243 q 256 228 257 236 q 254 208 254 219 q 251 178 253 194 q 250 144 250 161 q 250 139 250 142 q 250 135 250 136 q 253 94 250 114 q 265 61 257 75 q 289 42 272 50 q 325 26 306 33 q 331 25 328 26 q 336 24 333 24 q 348 19 342 21 q 360 14 354 17 l 399 0 l 36 0 l 60 11 q 67 13 64 11 q 75 15 71 14 q 83 19 79 18 q 92 22 88 21 q 136 42 115 32 q 165 67 157 53 q 176 117 172 81 q 183 196 181 154 q 184 215 183 206 q 185 233 185 224 q 195 333 190 281 q 203 438 200 385 q 216 650 211 549 q 225 807 221 751 q 228 874 228 843 q 229 935 229 904 q 229 961 229 947 q 229 989 229 975 q 229 1008 229 999 q 229 1026 229 1017 l 310 1028 q 320 995 314 1014 q 335 956 326 976 q 340 939 338 947 q 347 922 343 931 q 351 914 349 918 q 354 906 353 910 l 354 907 z "},"N":{"ha":1299,"x_min":36,"x_max":1276,"o":"m 1068 -3 q 930 151 960 118 q 886 199 900 183 q 867 218 878 207 q 829 257 856 229 q 771 318 800 288 q 711 381 742 349 q 699 394 706 388 q 686 407 692 400 q 428 672 550 549 q 253 846 306 794 l 253 246 q 253 233 253 240 q 253 217 253 225 q 251 198 251 208 q 251 176 251 188 q 251 160 251 168 q 251 143 251 151 q 256 99 253 121 q 267 63 260 76 q 294 39 274 49 q 336 21 314 29 q 349 16 343 18 q 360 13 354 14 l 399 0 l 36 0 l 60 11 q 73 15 67 13 q 86 21 79 18 q 131 42 110 31 q 161 68 153 53 q 170 112 168 81 q 174 179 172 143 q 174 213 174 196 q 174 243 174 229 l 174 1028 l 254 1028 q 290 981 269 1008 q 346 918 311 954 q 474 786 404 858 q 617 639 544 714 q 892 351 764 485 q 1050 192 1021 218 l 1050 783 q 1050 805 1050 793 q 1050 829 1050 817 q 1050 853 1050 842 q 1050 876 1050 865 q 1049 927 1050 904 q 1042 960 1047 950 q 1015 983 1035 974 q 972 1001 994 993 q 968 1003 969 1003 q 965 1004 967 1004 q 951 1010 958 1007 q 938 1015 944 1013 l 914 1028 l 1276 1028 l 1238 1011 q 1230 1007 1233 1008 q 1222 1004 1226 1006 q 1183 985 1200 994 q 1151 963 1165 976 q 1141 930 1144 956 q 1136 875 1138 904 q 1135 842 1135 858 q 1135 814 1135 826 q 1135 792 1135 800 q 1135 785 1135 785 l 1135 -3 l 1068 -3 l 1068 -3 z "},"O":{"ha":1174,"x_min":39,"x_max":1135,"o":"m 563 1047 q 569 1046 565 1046 q 576 1046 572 1046 q 583 1046 579 1046 q 589 1046 586 1046 q 967 903 807 1046 q 1132 518 1126 760 q 964 128 1135 275 q 561 -15 793 -18 q 191 141 343 -14 q 39 518 39 296 q 193 886 39 735 q 563 1046 347 1038 l 563 1047 m 561 969 q 262 830 372 963 q 153 521 151 697 q 272 211 156 351 q 569 60 389 71 q 577 60 574 60 q 583 60 581 60 q 590 58 586 58 q 597 58 593 58 q 892 180 767 58 q 1017 493 1017 301 q 890 825 1017 681 q 576 968 763 969 q 573 968 575 968 q 569 968 571 968 q 565 968 567 968 q 561 968 564 968 l 561 969 z "},"P":{"ha":890,"x_min":78,"x_max":849,"o":"m 849 713 q 849 709 849 710 q 849 708 849 708 q 849 706 849 707 q 849 704 849 706 q 745 501 849 588 q 518 407 642 415 q 505 406 511 406 q 492 406 499 406 q 456 408 474 406 q 421 414 439 410 l 371 426 l 371 135 q 373 94 371 111 q 389 60 375 76 q 418 42 397 49 q 463 28 439 35 q 471 26 467 26 q 479 24 475 25 q 500 17 490 21 q 518 11 510 14 l 549 0 l 78 0 l 110 10 q 135 15 121 11 q 165 24 150 19 q 193 34 179 29 q 218 44 207 39 q 231 51 225 47 q 239 58 236 56 q 247 72 243 65 q 251 85 250 78 q 253 99 253 92 q 254 111 254 106 q 254 119 254 115 q 254 125 254 122 q 253 133 253 129 q 253 139 253 136 l 253 892 q 251 925 253 910 q 238 954 249 940 q 206 976 228 965 q 161 996 185 986 q 134 1006 147 1001 q 110 1015 121 1011 l 79 1028 l 332 1028 q 372 1027 353 1026 q 410 1028 392 1028 q 417 1028 414 1028 q 422 1028 419 1028 q 453 1029 438 1029 q 486 1029 469 1029 q 515 1029 500 1029 q 546 1028 531 1029 q 578 1025 561 1028 q 611 1018 594 1022 q 771 922 697 997 q 849 711 844 847 l 849 713 m 507 951 q 499 950 503 950 q 489 950 494 950 q 476 950 482 950 q 463 950 469 950 q 417 946 439 949 q 388 938 396 943 q 373 915 375 929 q 371 886 371 901 q 371 884 371 885 q 371 882 371 883 l 371 494 l 413 489 q 445 483 429 485 q 476 482 461 482 q 658 543 583 482 q 733 714 733 604 q 733 722 733 718 q 733 728 733 725 q 681 870 729 821 q 576 938 632 919 q 541 946 558 943 q 507 950 524 949 l 507 951 z "},"Q":{"ha":1193,"x_min":39,"x_max":1221,"o":"m 710 -11 l 676 -19 l 689 -43 q 706 -60 693 -50 q 736 -82 718 -71 q 768 -98 751 -90 q 801 -112 785 -106 q 869 -139 838 -128 q 931 -157 900 -150 q 1013 -174 971 -168 q 1107 -185 1056 -181 q 1118 -185 1113 -185 q 1128 -186 1124 -186 q 1132 -186 1131 -186 q 1136 -186 1133 -186 q 1151 -187 1143 -186 q 1169 -189 1160 -187 l 1221 -194 l 1179 -212 q 1172 -215 1175 -214 q 1164 -217 1168 -217 q 1135 -222 1150 -221 q 1101 -222 1119 -222 q 1096 -222 1099 -222 q 1090 -222 1093 -222 q 1085 -222 1088 -222 q 1079 -222 1082 -222 q 1060 -222 1069 -222 q 1042 -222 1051 -222 q 782 -190 904 -222 q 583 -108 660 -157 q 565 -97 574 -103 q 549 -85 557 -90 q 528 -68 538 -76 q 508 -51 518 -60 q 490 -33 499 -43 q 469 -12 481 -24 l 442 -7 q 405 2 424 -3 q 367 15 386 7 q 142 188 244 65 q 39 506 39 311 q 194 875 39 725 q 568 1040 350 1025 q 577 1041 572 1040 q 586 1042 582 1042 q 595 1042 590 1042 q 604 1042 600 1042 q 616 1042 610 1042 q 628 1042 622 1042 q 984 892 822 1032 q 1144 525 1146 753 q 1144 521 1144 524 q 1144 517 1144 518 q 1144 512 1144 514 q 1144 507 1144 510 q 1019 163 1136 293 q 710 -11 901 32 l 710 -11 m 567 963 q 267 826 378 956 q 156 519 156 696 q 156 517 156 518 q 156 514 156 515 q 156 511 156 513 q 156 508 156 510 q 278 189 158 315 q 574 47 397 63 q 582 47 578 47 q 590 46 586 46 q 597 46 593 46 q 606 46 601 46 q 896 169 765 47 q 1026 482 1026 290 q 899 817 1028 672 q 582 961 771 963 q 578 961 581 961 q 575 961 576 961 q 571 961 572 961 q 567 961 569 961 l 567 963 z "},"R":{"ha":1061,"x_min":36,"x_max":1011,"o":"m 528 478 l 500 472 l 654 301 q 701 248 679 272 q 743 200 722 224 q 755 187 749 193 q 767 174 761 181 q 802 138 783 156 q 842 99 821 119 q 863 78 854 88 q 882 61 872 69 q 892 53 888 57 q 904 44 897 49 q 933 27 917 36 q 974 6 949 18 l 1011 -11 l 965 -22 q 958 -24 963 -24 q 949 -24 954 -24 q 894 -16 926 -24 q 826 3 861 -8 q 733 74 788 18 q 619 193 678 129 q 617 195 618 194 q 615 197 615 196 q 592 222 603 210 q 569 247 581 235 l 367 464 l 329 464 l 329 135 q 331 94 329 111 q 347 60 333 76 q 377 41 356 49 q 422 28 399 33 q 430 25 426 26 q 438 24 433 24 q 458 17 449 21 q 476 11 468 14 l 507 0 l 36 0 l 68 10 q 94 15 79 11 q 124 24 108 19 q 153 34 139 29 q 176 44 167 39 q 190 51 185 47 q 197 58 194 56 q 207 77 204 67 q 211 99 210 88 q 211 115 211 107 q 211 131 211 122 q 211 135 211 132 q 211 139 211 138 l 211 892 q 209 925 211 910 q 196 954 207 940 q 165 976 186 965 q 119 996 143 986 q 92 1006 106 1001 q 68 1015 79 1011 l 38 1028 l 290 1028 q 329 1027 311 1026 q 365 1029 347 1028 q 371 1029 368 1029 q 376 1029 374 1029 q 407 1030 392 1029 q 439 1031 422 1031 q 470 1030 454 1031 q 504 1028 486 1029 q 526 1025 515 1026 q 547 1022 536 1024 q 701 935 631 1004 q 772 742 772 865 q 726 593 772 647 q 624 511 679 539 q 574 490 599 499 q 528 476 549 482 l 528 478 m 464 965 q 456 964 460 964 q 450 965 453 964 q 442 965 446 965 q 435 965 439 965 q 432 965 433 965 q 429 965 431 965 q 378 962 403 965 q 346 953 354 958 q 331 931 333 944 q 329 901 329 917 q 329 899 329 900 q 329 897 329 899 l 329 522 l 394 524 q 583 584 504 524 q 661 743 663 644 q 661 751 661 747 q 661 760 661 756 q 601 898 654 844 q 483 961 547 951 q 474 963 479 963 q 464 964 469 964 l 464 965 z "},"S":{"ha":681,"x_min":44,"x_max":638,"o":"m 361 1049 q 458 1041 411 1047 q 535 1026 504 1035 q 541 1026 538 1026 q 547 1024 544 1025 l 575 1017 l 578 749 l 519 890 q 460 955 500 939 q 356 974 419 971 q 353 974 354 974 q 350 974 351 974 q 347 974 349 974 q 344 974 346 974 q 202 916 260 974 q 144 778 144 858 q 178 687 144 725 q 253 622 213 649 q 295 598 275 608 q 331 581 315 588 q 352 569 342 575 q 374 558 363 564 q 553 446 475 507 q 635 269 632 385 q 544 57 638 131 q 307 -18 451 -17 q 293 -18 300 -18 q 279 -17 286 -18 q 232 -12 256 -15 q 189 -4 208 -8 q 158 3 172 0 q 136 7 144 6 l 76 24 l 69 288 l 117 165 q 178 90 136 113 q 268 61 221 68 q 284 59 276 60 q 299 57 292 58 q 306 56 303 57 q 313 56 310 56 q 319 56 315 56 q 326 56 322 56 q 472 106 408 56 q 533 233 535 156 q 533 236 533 235 q 533 239 533 238 q 533 240 533 239 q 533 243 533 242 q 484 356 529 317 q 376 428 439 396 q 340 447 358 438 q 301 468 321 457 q 253 494 276 482 q 208 519 231 507 q 94 610 139 560 q 44 757 50 660 q 44 760 44 758 q 44 764 44 763 q 44 767 44 765 q 44 771 44 769 q 142 973 44 900 q 361 1047 240 1046 l 361 1049 z "},"T":{"ha":867,"x_min":36,"x_max":822,"o":"m 36 1050 l 94 1028 l 750 1028 l 822 1054 l 819 743 l 797 817 q 795 820 796 818 q 794 824 794 822 q 790 840 792 832 q 785 857 788 849 q 764 909 775 885 q 733 940 753 933 q 719 944 726 943 q 706 946 713 946 q 692 947 699 947 q 676 947 685 947 q 672 947 674 947 q 667 947 669 947 l 483 949 l 483 135 q 485 94 483 111 q 501 60 488 76 q 531 41 510 49 q 576 28 553 33 q 584 25 581 26 q 592 24 588 24 q 613 17 603 21 q 631 11 622 14 l 661 0 l 190 0 l 222 10 q 248 15 233 11 q 278 24 263 19 q 306 34 292 29 q 331 44 319 39 q 343 51 338 47 q 351 58 349 56 q 359 72 356 65 q 364 85 363 78 q 366 99 365 92 q 367 111 367 106 q 367 119 367 115 q 367 125 367 122 q 365 133 365 129 q 365 139 365 136 l 365 949 l 150 949 q 137 947 143 947 q 125 946 131 947 q 119 943 122 944 q 113 940 115 942 q 86 901 96 929 q 69 842 76 874 q 67 833 68 838 q 65 824 67 828 q 62 810 64 817 q 58 796 60 803 l 43 749 l 36 1050 l 36 1050 z "},"U":{"ha":1225,"x_min":36,"x_max":1185,"o":"m 1008 838 l 1008 403 q 885 70 1008 163 q 603 -21 761 -22 q 331 75 451 -19 q 211 385 211 169 l 211 888 q 211 892 211 889 q 213 900 211 896 q 213 907 213 903 q 213 915 213 911 q 212 926 213 921 q 210 936 211 931 q 206 952 208 944 q 197 967 203 960 q 189 974 194 969 q 176 981 183 978 q 151 991 165 986 q 124 1001 138 996 q 94 1010 108 1006 q 68 1017 79 1014 l 36 1028 l 507 1028 l 476 1015 q 457 1007 468 1010 q 433 1001 446 1004 q 428 999 431 1000 q 422 997 425 999 q 377 984 399 992 q 347 967 356 976 q 344 962 346 964 q 340 957 342 960 q 331 926 332 942 q 329 890 329 910 l 329 381 q 405 142 329 214 q 599 51 481 69 q 619 49 610 50 q 639 49 629 49 q 842 134 754 49 q 929 363 929 219 l 929 882 q 929 883 929 882 q 929 885 929 883 q 929 905 929 894 q 926 926 929 915 q 922 943 925 935 q 913 960 918 951 q 904 966 910 963 q 890 974 899 969 q 867 983 881 978 q 840 993 854 988 q 809 1003 824 997 q 783 1013 794 1008 l 751 1028 l 1185 1028 l 1157 1013 q 1131 1001 1146 1006 q 1101 992 1117 997 q 1056 977 1078 985 q 1028 960 1035 969 q 1019 935 1022 953 q 1013 899 1015 918 q 1009 860 1010 878 q 1008 836 1008 843 l 1008 838 z "},"V":{"ha":1188,"x_min":43,"x_max":1147,"o":"m 343 874 l 619 176 l 876 875 q 881 885 879 879 q 885 899 883 892 q 891 926 889 913 q 893 947 893 939 q 893 951 893 950 q 892 954 893 953 q 868 979 888 968 q 826 999 849 990 q 811 1006 818 1003 q 797 1011 804 1008 l 760 1028 l 1147 1028 l 1117 1017 q 1110 1013 1114 1014 q 1104 1011 1107 1013 q 1086 1005 1096 1008 q 1068 999 1076 1001 q 1022 982 1043 992 q 994 960 1001 972 q 986 946 990 953 q 978 932 982 939 q 969 914 974 924 q 960 893 964 904 q 906 755 947 867 q 817 511 864 643 q 813 501 815 506 q 810 492 811 496 q 721 240 761 357 q 671 92 681 122 q 663 65 667 78 q 656 40 660 53 q 656 40 656 40 q 656 39 656 39 q 649 13 653 26 q 640 -14 644 0 l 569 -14 q 559 8 564 -1 q 550 29 554 18 q 542 49 546 39 q 533 72 538 60 q 474 236 514 132 q 388 454 433 340 q 383 466 386 460 q 378 479 381 472 q 274 733 322 617 q 213 883 226 850 q 206 899 208 892 q 200 914 203 907 q 199 917 199 915 q 197 921 199 919 q 191 935 194 928 q 183 951 188 943 q 159 973 176 964 q 119 990 142 982 q 116 992 118 990 q 111 993 114 993 q 91 1001 101 997 q 71 1011 81 1006 l 43 1028 l 453 1028 l 418 1013 q 400 1005 410 1008 q 379 997 390 1001 q 344 981 360 990 q 324 958 328 972 q 324 956 324 957 q 324 956 324 956 q 322 953 322 954 q 322 951 322 953 q 325 933 322 943 q 331 910 328 922 q 333 904 332 907 q 335 899 333 901 q 340 884 338 890 q 343 872 342 878 l 343 874 z "},"W":{"ha":1783,"x_min":36,"x_max":1749,"o":"m 976 857 q 984 839 981 847 q 990 822 988 831 q 1133 483 1065 646 q 1247 226 1200 321 l 1476 876 q 1481 888 1479 881 q 1485 900 1483 894 q 1492 929 1489 915 q 1494 951 1494 943 q 1494 953 1494 953 q 1494 956 1494 954 q 1493 958 1493 957 q 1493 958 1493 958 q 1469 981 1489 971 q 1426 1000 1450 992 q 1413 1006 1419 1003 q 1400 1011 1407 1008 l 1363 1028 l 1749 1028 l 1718 1017 q 1712 1013 1715 1014 q 1706 1011 1708 1013 q 1688 1005 1697 1008 q 1669 999 1678 1001 q 1624 982 1644 992 q 1596 960 1603 972 q 1588 946 1592 953 q 1581 932 1583 939 q 1571 914 1575 924 q 1563 893 1567 904 q 1510 756 1550 867 q 1426 514 1471 644 q 1424 505 1425 510 q 1419 496 1422 500 q 1336 247 1375 363 q 1288 100 1297 131 q 1281 72 1283 85 q 1276 46 1278 58 q 1276 33 1276 39 q 1275 19 1275 26 q 1274 3 1275 11 q 1272 -14 1274 -4 l 1204 -14 q 1197 8 1200 -1 q 1189 29 1193 18 q 1187 35 1188 32 q 1185 42 1186 39 q 1180 56 1182 49 q 1175 72 1178 64 q 1133 191 1158 124 q 1081 328 1108 258 q 1073 347 1076 338 q 1065 365 1069 357 q 986 563 1024 472 q 936 679 949 653 l 890 781 l 842 663 q 805 560 833 642 q 744 383 776 478 q 744 378 744 381 q 742 375 743 376 q 685 205 711 285 q 649 96 658 125 q 641 68 644 81 q 635 43 638 56 q 634 37 635 40 q 632 31 633 33 q 628 9 631 19 q 622 -14 625 -1 l 554 -14 q 547 8 550 -1 q 540 29 543 18 q 534 49 538 39 q 526 72 531 60 q 467 236 507 132 q 381 454 426 340 q 376 466 379 460 q 371 479 374 472 q 267 733 315 617 q 206 883 219 850 q 201 896 203 890 q 196 907 199 901 q 194 914 194 911 q 190 921 193 917 q 184 935 188 928 q 176 951 181 943 q 152 973 169 964 q 113 990 135 982 q 109 992 111 990 q 104 993 107 993 q 84 1001 94 997 q 64 1011 74 1006 l 36 1028 l 458 1028 l 422 1013 q 401 1004 414 1008 q 375 996 389 1000 q 338 979 356 989 q 317 956 321 969 q 315 949 315 953 q 315 940 315 946 q 316 925 315 933 q 318 907 317 917 q 324 885 321 896 q 329 865 326 874 l 604 211 q 676 408 625 268 q 783 704 726 547 q 810 781 797 743 q 838 857 824 819 q 856 908 847 885 q 871 954 864 932 q 872 956 872 956 q 872 957 872 956 q 889 1003 881 979 q 907 1057 897 1028 q 920 1015 914 1035 q 932 976 926 994 q 936 963 933 969 q 940 949 939 956 q 956 904 947 926 q 976 856 965 882 l 976 857 z "},"X":{"ha":1035,"x_min":36,"x_max":990,"o":"m 531 611 l 674 871 q 679 878 676 874 q 685 889 682 883 q 703 932 696 911 q 710 958 711 953 q 684 983 704 972 q 642 1003 664 993 q 631 1006 636 1004 q 619 1011 625 1008 l 582 1028 l 976 1028 l 946 1017 q 932 1010 939 1013 q 918 1006 925 1008 q 890 997 904 1001 q 860 985 875 992 q 839 972 850 979 q 817 956 828 965 q 787 922 801 942 q 758 879 772 903 l 567 543 l 806 150 q 833 106 819 126 q 856 68 846 86 q 886 43 863 54 q 935 22 910 32 q 949 17 942 19 q 961 11 956 14 l 990 0 l 603 0 l 638 14 q 640 13 639 13 q 644 15 642 14 q 650 18 647 17 q 656 19 653 19 q 690 38 674 28 q 711 65 706 47 q 711 68 711 67 q 711 71 711 69 q 708 89 711 78 q 699 113 704 100 q 694 122 697 117 q 690 132 692 126 q 685 142 688 138 q 679 151 682 147 l 507 440 l 343 151 q 335 135 339 143 q 325 119 331 128 q 324 118 325 118 q 324 117 324 118 q 306 85 314 100 q 300 65 299 69 q 322 42 306 51 q 360 22 339 32 q 369 19 364 21 q 381 14 375 17 l 418 0 l 39 0 l 69 11 q 84 15 76 13 q 99 19 92 17 q 126 28 113 24 q 156 39 140 32 q 176 52 165 44 q 199 69 188 60 q 228 103 214 85 q 256 146 242 122 l 467 506 l 236 882 q 221 903 229 893 q 204 924 213 914 q 186 940 194 932 q 171 954 178 947 q 152 968 164 961 q 126 983 140 975 q 109 990 118 986 q 92 999 100 994 q 78 1005 85 1001 q 67 1011 72 1008 l 36 1028 l 456 1028 l 419 1013 q 408 1007 414 1010 q 396 1001 403 1004 q 363 981 378 993 q 343 951 347 968 q 342 947 342 950 q 342 942 342 944 q 343 927 342 935 q 347 911 344 919 q 353 897 350 904 q 360 883 356 890 q 360 881 360 882 q 363 878 361 879 l 531 611 l 531 611 z "},"Y":{"ha":1058,"x_min":42,"x_max":1021,"o":"m 486 486 l 396 657 q 374 697 386 675 q 349 739 363 718 q 334 763 342 751 q 319 786 326 775 q 284 839 301 814 q 253 883 267 864 q 207 935 232 913 q 156 972 182 957 q 125 990 140 982 q 96 1003 110 997 l 42 1029 l 92 1040 q 102 1041 96 1040 q 114 1040 108 1042 q 160 1035 133 1040 q 214 1021 186 1031 q 265 998 240 1011 q 310 967 290 985 q 363 908 338 940 q 411 844 389 876 q 447 789 431 817 q 476 738 463 761 l 558 590 l 719 871 q 724 877 722 874 q 728 885 726 881 q 748 926 740 907 q 754 954 756 946 q 754 956 754 956 q 754 958 754 957 q 747 971 751 965 q 733 982 742 976 q 701 997 721 989 q 651 1017 682 1004 l 628 1028 l 1021 1028 l 992 1017 q 978 1010 985 1013 q 964 1006 971 1008 q 935 997 950 1001 q 906 985 921 992 q 885 972 896 979 q 863 956 874 965 q 847 938 854 949 q 833 917 840 928 q 822 897 828 907 q 810 875 817 886 l 604 526 l 603 135 q 605 98 603 114 q 617 68 607 82 q 619 64 618 65 q 622 60 621 63 q 652 41 631 49 q 697 28 674 33 q 705 25 701 26 q 713 24 708 24 q 733 17 722 21 q 751 11 743 14 l 782 0 l 311 0 l 343 10 q 369 15 354 11 q 399 24 383 19 q 426 34 413 29 q 451 44 440 39 q 464 51 458 47 q 472 58 469 56 q 480 72 476 65 q 485 85 483 78 q 487 99 486 92 q 488 111 488 106 q 488 119 488 115 q 488 125 488 122 q 486 133 486 129 q 486 139 486 136 l 486 486 l 486 486 z "},"Z":{"ha":957,"x_min":36,"x_max":917,"o":"m 917 1029 q 876 972 894 997 q 839 922 857 946 q 801 873 819 899 q 760 817 782 847 q 619 626 682 713 q 497 454 556 539 q 488 442 492 449 q 479 429 483 436 q 360 259 421 347 q 225 67 300 171 l 685 68 q 704 67 696 67 q 722 69 713 68 q 740 74 731 72 q 758 81 749 76 q 799 106 782 90 q 828 139 815 122 q 849 171 840 156 q 865 196 857 186 l 904 246 l 813 -19 l 775 0 l 36 0 l 718 957 l 236 957 q 213 954 228 956 q 183 950 199 953 q 147 944 164 947 q 125 936 131 940 q 107 910 115 931 q 92 868 99 890 q 84 840 88 854 q 78 815 81 825 l 58 751 l 54 1043 l 108 1029 l 917 1029 l 917 1029 z "},"[":{"ha":376,"x_min":38,"x_max":332,"o":"m 40 -174 l 46 -131 q 53 9 53 -87 q 51 221 53 106 q 51 269 51 244 q 50 318 50 293 q 50 388 50 353 q 50 456 50 422 q 50 532 50 493 q 50 611 50 571 q 48 810 50 715 q 44 961 46 906 q 42 988 43 976 q 42 1007 42 1000 l 38 1042 l 60 1042 q 78 1039 67 1040 q 106 1038 90 1038 q 124 1035 114 1036 q 143 1035 133 1035 q 156 1033 150 1033 q 169 1033 163 1033 q 183 1033 176 1033 q 194 1033 189 1033 q 200 1033 197 1033 q 206 1033 203 1033 q 234 1034 219 1033 q 261 1035 249 1035 q 287 1035 275 1035 q 304 1036 299 1036 l 329 1038 l 329 993 l 300 993 q 296 992 299 992 q 290 992 293 992 q 268 992 281 992 q 242 990 256 992 q 208 984 224 989 q 185 971 193 979 q 172 944 174 958 q 169 914 169 931 l 172 -44 q 176 -76 172 -62 q 190 -104 179 -90 q 215 -118 199 -114 q 247 -124 231 -122 q 258 -124 253 -124 q 269 -124 264 -124 q 283 -124 276 -124 q 296 -124 290 -124 q 305 -122 300 -122 q 313 -122 310 -122 l 331 -122 l 332 -169 l 307 -169 q 290 -169 301 -169 q 263 -168 278 -168 q 239 -167 251 -168 q 213 -167 226 -167 q 203 -167 208 -167 q 194 -167 199 -167 q 184 -167 189 -167 q 174 -167 179 -167 q 162 -167 168 -167 q 150 -168 156 -168 q 133 -169 142 -168 q 118 -169 125 -169 q 85 -172 100 -171 q 63 -174 71 -174 l 40 -174 l 40 -174 z "},"\\":{"ha":961,"x_min":44,"x_max":921,"o":"m 833 0 l 44 1028 l 133 1028 l 921 0 l 833 0 l 833 0 z "},"]":{"ha":375,"x_min":33,"x_max":329,"o":"m 319 -129 l 326 -172 l 303 -172 q 281 -171 296 -172 q 249 -168 267 -169 q 235 -167 242 -168 q 221 -167 228 -167 q 207 -166 214 -167 q 193 -165 200 -165 q 181 -165 188 -165 q 168 -165 175 -165 q 165 -165 167 -165 q 163 -165 164 -165 q 131 -166 147 -165 q 103 -167 115 -167 q 76 -167 88 -167 q 60 -168 65 -168 l 33 -168 l 36 -121 l 54 -121 q 61 -121 57 -121 q 71 -122 65 -121 q 83 -122 76 -122 q 97 -122 90 -122 q 108 -122 103 -122 q 119 -122 114 -122 q 152 -117 136 -121 q 176 -103 168 -112 q 190 -75 188 -89 q 193 -43 193 -61 l 196 917 q 196 918 196 917 q 196 921 196 919 q 194 948 196 935 q 182 972 193 961 q 158 986 174 982 q 126 992 143 990 q 110 993 118 993 q 94 993 101 993 q 78 993 85 993 q 67 993 71 993 l 36 994 l 36 1039 l 63 1039 q 80 1037 68 1038 q 107 1036 92 1036 q 138 1035 121 1036 q 171 1035 154 1035 q 174 1035 172 1035 q 176 1035 175 1035 q 187 1035 182 1035 q 197 1035 192 1035 q 210 1035 204 1035 q 222 1036 217 1035 q 242 1037 233 1036 q 261 1039 251 1038 q 288 1040 275 1039 q 306 1042 300 1042 l 329 1043 l 325 1010 q 319 860 322 976 q 315 613 317 744 q 315 533 315 572 q 315 457 315 494 q 315 389 315 424 q 315 319 315 354 q 315 258 315 289 q 314 197 315 226 q 314 0 314 89 q 319 -129 314 -89 l 319 -129 z "},"^":{"ha":444,"x_min":36,"x_max":406,"o":"m 221 896 l 36 824 l 221 1025 l 406 831 l 221 896 l 221 896 z "},"_":{"ha":969,"x_min":7,"x_max":1006,"o":"m 7 -232 l 7 -210 l 1006 -210 l 1006 -232 l 7 -232 l 7 -232 z "},"`":{"ha":308,"x_min":42,"x_max":268,"o":"m 268 721 l 42 963 l 143 1028 l 268 721 l 268 721 z "},"a":{"ha":1168,"x_min":32,"x_max":1136,"o":"m 639 1028 q 644 1008 642 1017 q 650 990 647 999 q 654 972 651 981 q 660 953 657 964 q 717 788 679 893 q 796 571 754 683 q 801 557 799 564 q 807 543 804 550 q 902 290 857 406 q 963 140 947 174 q 971 121 967 129 q 979 103 975 113 q 986 88 982 96 q 994 72 990 81 q 1023 47 1001 58 q 1069 26 1044 36 q 1081 22 1075 25 q 1092 18 1086 19 q 1099 15 1096 17 q 1107 11 1103 13 l 1136 0 l 725 0 l 761 14 q 779 19 769 15 q 800 28 789 24 q 835 44 819 35 q 856 68 851 54 q 856 69 856 68 q 857 71 856 69 q 857 73 857 72 q 857 75 857 74 q 854 93 857 82 q 847 114 851 104 q 844 124 846 119 q 842 132 843 128 q 838 142 840 138 q 835 151 836 147 l 742 413 l 399 413 l 301 153 q 299 147 300 149 q 299 142 299 144 q 294 129 296 136 q 290 115 292 122 q 283 86 286 100 q 281 65 281 72 q 281 63 281 64 q 281 61 281 63 q 302 41 286 49 q 338 26 318 33 q 343 26 340 26 q 347 24 346 25 q 361 19 354 21 q 374 14 368 17 l 411 0 l 32 0 l 63 11 q 84 18 72 14 q 107 26 96 22 q 151 46 131 35 q 179 69 172 57 q 186 83 183 76 q 192 96 189 90 q 196 104 194 100 q 199 114 197 108 q 203 125 201 119 q 208 138 206 131 q 244 219 226 176 q 279 306 261 261 q 299 351 289 328 q 318 397 308 374 q 449 733 390 576 q 521 932 507 889 q 528 957 525 946 q 535 979 532 968 q 536 987 535 983 q 538 994 538 990 q 542 1010 540 1001 q 546 1026 544 1018 l 639 1028 l 639 1028 m 710 485 l 569 849 l 428 485 l 710 485 l 710 485 z "},"b":{"ha":875,"x_min":36,"x_max":838,"o":"m 36 1028 l 289 1028 q 330 1026 311 1026 q 365 1026 349 1026 q 386 1028 376 1028 q 406 1028 396 1028 q 451 1028 428 1028 q 503 1026 474 1028 q 680 964 603 1022 q 763 799 757 906 q 763 795 763 797 q 763 792 763 793 q 763 788 763 790 q 763 785 763 786 q 722 656 763 710 q 613 565 681 601 l 569 543 l 650 517 q 781 431 732 489 q 838 288 831 374 q 838 279 838 283 q 838 271 838 275 q 754 95 838 167 q 572 1 671 24 q 537 -4 554 -1 q 503 -7 519 -7 q 491 -7 497 -7 q 478 -7 485 -7 q 449 -6 463 -7 q 422 -4 435 -6 q 415 -4 418 -4 q 407 -3 411 -4 q 372 -1 390 -3 q 331 0 353 0 l 36 0 l 67 11 q 89 18 76 14 q 114 26 101 22 q 159 45 138 35 q 189 67 181 56 q 193 72 192 69 q 196 76 194 75 q 208 103 204 90 q 211 133 211 117 l 211 892 q 209 925 211 910 q 196 954 207 940 q 166 974 188 965 q 119 992 144 983 q 90 1002 104 997 q 64 1013 75 1007 l 36 1028 l 36 1028 m 358 74 q 398 62 371 67 q 456 57 425 57 q 491 58 474 57 q 525 64 508 60 q 674 144 628 89 q 718 276 719 200 q 718 291 718 283 q 717 307 718 299 q 628 444 708 400 q 451 494 547 489 q 437 496 444 496 q 421 496 429 496 l 329 497 l 329 135 q 335 99 329 115 q 358 72 342 82 l 358 74 m 465 960 q 457 958 461 958 q 447 958 453 958 q 434 958 440 958 q 421 958 428 958 q 376 954 397 957 q 346 947 354 951 q 331 925 333 939 q 329 894 329 911 q 329 893 329 894 q 329 890 329 892 l 329 560 l 394 560 q 422 560 408 558 q 449 564 435 561 q 593 631 528 578 q 658 765 658 683 q 658 770 658 768 q 658 774 658 772 q 657 778 657 776 q 657 783 657 781 q 590 921 647 886 q 465 958 533 956 l 465 960 z "},"c":{"ha":1071,"x_min":36,"x_max":1025,"o":"m 608 1067 q 653 1067 632 1067 q 693 1068 674 1068 q 749 1066 722 1068 q 804 1060 776 1064 q 858 1049 831 1056 q 914 1035 885 1043 l 954 1025 l 956 746 l 922 832 q 916 847 919 839 q 910 863 913 854 q 887 914 899 890 q 856 950 875 938 q 850 953 853 951 q 843 957 847 954 q 770 976 818 967 q 669 988 722 985 q 650 989 660 989 q 631 989 640 989 q 622 989 626 989 q 615 989 618 989 q 608 988 611 988 q 600 988 604 988 q 285 849 413 978 q 158 521 157 721 q 294 192 160 329 q 629 58 428 56 q 646 59 638 58 q 663 60 654 60 q 814 92 742 65 q 917 153 886 118 q 938 183 928 165 q 958 218 949 200 q 975 252 967 235 q 990 282 983 269 l 1025 349 l 965 51 l 915 33 q 886 22 900 26 q 858 13 872 17 q 735 -8 800 -3 q 572 -12 671 -14 q 525 -10 549 -12 q 478 -1 501 -7 q 179 167 315 32 q 36 500 43 301 q 36 505 36 503 q 36 510 36 507 q 36 514 36 511 q 36 518 36 517 q 208 903 36 753 q 608 1065 379 1054 l 608 1067 z "},"d":{"ha":1168,"x_min":36,"x_max":1124,"o":"m 1121 575 q 1123 543 1122 558 q 1124 513 1124 528 q 1046 238 1124 342 q 875 78 968 133 q 752 19 811 39 q 660 -4 693 0 q 616 -9 640 -7 q 565 -11 592 -11 q 538 -10 551 -11 q 510 -10 524 -10 q 471 -8 490 -8 q 433 -6 451 -7 q 376 -1 403 -3 q 331 0 349 0 l 36 0 l 67 11 q 89 18 76 14 q 114 26 101 22 q 159 45 138 35 q 189 67 181 56 q 193 72 192 69 q 196 76 194 75 q 208 103 204 90 q 211 133 211 117 l 211 892 q 209 925 211 910 q 196 954 207 940 q 165 974 186 965 q 119 990 143 983 q 92 999 106 996 q 68 1007 79 1003 l 38 1019 l 290 1019 q 333 1019 308 1018 q 389 1022 358 1021 q 453 1024 419 1022 q 525 1025 488 1025 q 575 1024 550 1025 q 625 1022 600 1024 q 660 1019 643 1021 q 693 1015 676 1018 q 774 995 729 1010 q 865 954 818 981 q 1031 810 954 904 q 1121 574 1108 717 l 1121 575 m 329 892 l 329 144 q 335 105 329 122 q 358 76 340 88 q 362 74 360 75 q 368 74 364 74 q 427 65 386 69 q 517 61 468 61 q 538 61 528 61 q 558 63 549 61 q 645 71 603 64 q 718 92 688 78 q 772 116 742 103 q 833 149 801 129 q 947 264 894 188 q 1006 483 1000 340 q 1006 488 1006 486 q 1006 493 1006 490 q 1006 497 1006 494 q 1006 501 1006 500 q 910 781 1006 654 q 653 943 815 907 q 593 950 636 947 q 501 951 550 953 q 499 951 500 951 q 496 951 497 951 q 405 948 447 951 q 347 936 363 944 q 333 918 336 931 q 329 890 329 906 l 329 892 z "},"e":{"ha":824,"x_min":36,"x_max":779,"o":"m 36 1028 l 732 1028 l 731 800 l 711 856 q 706 868 708 861 q 701 881 704 875 q 687 915 694 900 q 663 940 679 929 q 638 951 651 947 q 610 957 624 956 q 594 958 601 957 q 578 958 586 958 l 407 960 q 401 958 404 958 q 394 958 399 958 q 362 957 378 958 q 338 947 346 956 q 331 928 332 942 q 329 900 329 915 q 329 899 329 900 q 329 897 329 899 q 329 894 329 896 q 329 890 329 892 l 329 558 l 526 558 q 543 557 535 557 q 560 557 551 557 q 591 559 576 557 q 618 571 606 561 q 624 576 621 574 q 628 581 626 578 q 638 592 635 586 q 646 606 642 597 l 675 667 l 675 340 l 663 372 q 659 382 661 376 q 656 393 657 388 q 653 398 654 396 q 651 403 653 400 q 635 445 644 425 q 611 474 626 465 q 594 482 603 479 q 578 486 586 485 q 560 488 569 488 q 540 488 551 488 q 537 488 539 488 q 533 488 535 488 l 329 489 l 329 147 q 330 132 329 140 q 332 117 331 124 q 340 90 335 101 q 353 74 344 78 q 373 67 364 68 q 392 65 382 65 q 399 65 396 65 q 407 67 403 65 q 414 67 410 67 q 422 67 418 67 l 650 68 q 658 67 654 67 q 667 67 663 67 q 674 65 669 65 q 682 65 678 65 q 696 67 689 65 q 710 71 703 68 q 728 93 721 76 q 743 131 736 110 q 746 140 744 135 q 749 149 747 144 q 755 165 751 157 q 761 181 758 174 l 779 225 l 772 0 l 36 0 l 68 10 q 94 15 79 11 q 124 24 108 19 q 151 34 138 29 q 176 44 165 39 q 189 51 183 47 q 197 58 194 56 q 207 77 204 67 q 211 99 210 88 q 211 107 211 103 q 211 115 211 111 q 211 128 211 122 q 211 139 211 133 l 211 892 q 211 905 211 897 q 211 918 211 913 q 209 944 211 932 q 197 967 207 956 q 189 974 194 969 q 176 981 183 978 q 151 991 165 986 q 124 1001 138 996 q 94 1010 108 1006 q 68 1017 79 1014 l 36 1028 l 36 1028 z "},"f":{"ha":746,"x_min":36,"x_max":704,"o":"m 36 1028 l 704 1028 l 704 800 l 685 856 q 680 868 682 861 q 675 881 678 875 q 660 915 668 900 q 636 940 653 929 q 607 952 622 949 q 575 957 592 956 q 563 958 569 958 q 550 958 557 958 l 407 960 q 401 958 404 958 q 394 958 399 958 q 362 957 378 958 q 338 947 346 956 q 330 934 332 942 q 328 919 328 926 q 328 913 328 917 q 329 906 328 910 q 329 903 329 904 q 329 900 329 901 q 329 895 329 897 q 329 890 329 893 l 329 558 l 514 558 q 531 557 522 557 q 546 557 539 557 q 578 559 563 557 q 606 571 593 561 q 611 576 608 574 q 615 581 614 578 q 623 589 619 585 q 629 600 626 593 q 630 603 629 601 q 632 606 631 604 l 661 667 l 661 340 l 649 372 q 644 383 646 376 q 640 396 642 389 q 640 399 640 397 q 639 403 639 401 q 622 445 631 425 q 597 474 614 465 q 582 481 589 478 q 567 485 575 483 q 549 488 558 488 q 528 488 539 488 q 524 488 526 488 q 521 488 522 488 l 329 489 l 329 135 q 331 94 329 111 q 347 60 333 76 q 377 41 356 49 q 422 28 399 33 q 430 25 426 26 q 438 24 433 24 q 458 17 449 21 q 476 11 468 14 l 507 0 l 36 0 l 68 10 q 94 15 79 11 q 124 24 108 19 q 151 34 138 29 q 176 44 165 39 q 189 51 183 47 q 197 58 194 56 q 205 72 201 65 q 210 85 208 78 q 212 99 211 92 q 213 111 213 106 q 213 119 213 115 q 213 125 213 122 q 211 133 211 129 q 211 139 211 136 l 211 892 q 211 905 211 897 q 211 918 211 913 q 209 944 211 932 q 197 967 207 956 q 189 974 194 969 q 176 981 183 978 q 151 991 165 986 q 124 1001 138 996 q 94 1010 108 1006 q 68 1017 79 1014 l 36 1028 l 36 1028 z "},"g":{"ha":1154,"x_min":39,"x_max":1117,"o":"m 876 213 l 876 315 q 872 338 876 328 q 860 358 868 349 q 857 362 858 360 q 854 365 856 364 q 833 378 846 374 q 804 388 819 383 q 792 390 799 389 q 779 393 786 392 q 769 397 774 396 q 760 400 764 399 l 715 424 l 1117 424 l 1069 397 q 1064 393 1067 394 q 1058 390 1061 392 q 1047 385 1053 388 q 1035 382 1040 383 q 1010 370 1021 376 q 993 351 999 364 q 987 310 989 342 q 985 240 985 278 q 985 234 985 238 q 985 228 985 231 q 986 188 985 207 q 989 154 988 169 l 997 79 l 917 47 q 901 40 910 43 q 885 35 893 38 q 757 1 833 15 q 575 -12 681 -14 q 529 -10 553 -12 q 482 -3 506 -7 q 183 166 319 31 q 39 500 46 301 q 39 505 39 503 q 39 510 39 507 q 39 514 39 511 q 39 518 39 517 q 212 905 39 753 q 614 1067 385 1057 q 644 1068 629 1068 q 674 1068 660 1068 q 781 1061 732 1068 q 878 1042 831 1054 q 896 1035 886 1039 q 915 1029 906 1032 l 974 1011 l 953 719 l 925 832 q 905 901 917 868 q 867 950 893 933 q 855 956 863 953 q 836 964 847 960 q 769 980 810 972 q 683 990 728 988 q 654 992 669 992 q 625 993 639 993 q 613 993 619 993 q 600 993 607 993 q 288 857 415 982 q 161 539 160 732 q 161 535 161 538 q 161 531 161 532 q 161 526 161 528 q 161 521 161 524 q 301 179 169 304 q 633 57 433 54 q 656 58 644 57 q 679 60 668 58 q 796 90 742 68 q 865 139 850 113 q 869 147 868 143 q 872 153 871 150 q 876 176 875 164 q 876 211 876 189 l 876 213 z "},"h":{"ha":1238,"x_min":28,"x_max":1208,"o":"m 1050 968 q 1047 962 1049 964 q 1043 957 1044 960 q 1034 930 1035 943 q 1033 900 1033 917 q 1033 895 1033 897 q 1033 890 1033 893 l 1035 135 q 1035 128 1035 131 q 1035 124 1035 126 q 1036 90 1035 106 q 1050 60 1038 75 q 1080 41 1058 49 q 1125 28 1101 33 q 1133 25 1129 26 q 1140 24 1136 24 q 1160 17 1150 21 q 1179 11 1171 14 l 1208 0 l 739 0 l 771 10 q 797 15 782 11 q 826 24 811 19 q 854 34 840 29 q 879 44 868 39 q 892 51 886 47 q 900 58 897 56 q 905 67 903 63 q 910 75 907 71 q 913 92 913 83 q 914 108 914 100 q 914 120 914 114 q 914 133 914 126 l 914 485 l 321 485 l 321 135 q 323 94 321 111 q 339 60 325 76 q 369 41 347 49 q 414 28 390 33 q 422 25 418 26 q 429 24 425 24 q 450 17 440 21 q 468 11 460 14 l 499 0 l 28 0 l 60 10 q 85 15 71 11 q 115 24 100 19 q 143 34 129 29 q 168 44 157 39 q 181 51 175 47 q 189 58 186 56 q 197 72 193 65 q 201 85 200 78 q 203 99 203 92 q 204 111 204 106 q 204 119 204 115 q 204 125 204 122 q 203 133 203 129 q 203 139 203 136 l 203 888 q 203 892 203 889 q 204 900 203 896 q 204 907 204 903 q 204 915 204 911 q 203 926 204 921 q 201 936 203 931 q 197 952 200 944 q 189 967 194 960 q 181 974 186 969 q 168 981 175 978 q 143 991 157 986 q 115 1001 129 996 q 85 1010 100 1006 q 60 1017 71 1014 l 28 1028 l 499 1028 l 468 1015 q 449 1007 460 1010 q 425 1001 438 1004 q 419 999 422 1000 q 414 997 417 999 q 369 984 390 992 q 339 967 347 976 q 335 962 338 964 q 332 957 333 960 q 322 926 324 942 q 321 890 321 910 l 321 569 l 914 569 l 914 892 q 914 905 914 897 q 914 918 914 913 q 912 944 914 932 q 900 967 910 956 q 892 974 897 969 q 879 981 886 978 q 854 991 868 986 q 826 1001 840 996 q 797 1010 811 1006 q 771 1017 782 1014 l 739 1028 l 1208 1028 l 1179 1015 q 1160 1007 1171 1010 q 1136 1001 1149 1004 q 1131 999 1133 1000 q 1125 997 1128 999 q 1080 984 1101 992 q 1050 967 1058 976 l 1050 968 z "},"i":{"ha":540,"x_min":36,"x_max":507,"o":"m 329 892 l 329 135 q 331 94 329 111 q 347 60 333 76 q 377 41 356 49 q 422 28 399 33 q 430 25 426 26 q 438 24 433 24 q 458 17 449 21 q 476 11 468 14 l 507 0 l 36 0 l 68 10 q 94 15 79 11 q 124 24 108 19 q 151 34 138 29 q 176 44 165 39 q 189 51 183 47 q 197 58 194 56 q 205 72 201 65 q 210 85 208 78 q 212 99 211 92 q 213 111 213 106 q 213 119 213 115 q 213 125 213 122 q 211 133 211 129 q 211 139 211 136 l 211 888 q 211 892 211 889 q 213 900 211 896 q 213 907 213 903 q 213 915 213 911 q 212 926 213 921 q 210 936 211 931 q 206 952 208 944 q 197 967 203 960 q 189 974 194 969 q 176 981 183 978 q 151 991 165 986 q 124 1001 138 996 q 94 1010 108 1006 q 68 1017 79 1014 l 36 1028 l 507 1028 l 476 1015 q 457 1007 468 1010 q 433 1001 446 1004 q 428 999 431 1000 q 422 997 425 999 q 377 984 399 992 q 347 967 356 976 q 344 962 346 964 q 340 957 342 960 q 331 926 332 942 q 329 890 329 910 l 329 892 z "},"j":{"ha":588,"x_min":40,"x_max":540,"o":"m 364 324 q 342 106 364 189 q 219 -21 321 22 q 166 -40 196 -32 q 101 -47 136 -47 q 97 -47 100 -47 q 90 -47 93 -47 l 40 -46 l 76 -29 q 87 -26 82 -28 q 96 -21 92 -24 q 122 -9 110 -15 q 144 4 133 -3 q 160 15 153 10 q 176 28 168 21 q 217 81 203 50 q 239 144 232 111 q 244 181 243 163 q 246 215 246 199 l 246 888 q 246 892 246 889 q 247 900 246 896 q 247 907 247 903 q 247 915 247 911 q 247 926 247 921 q 244 936 246 931 q 240 952 243 944 q 232 967 238 960 q 224 974 229 969 q 211 981 218 978 q 186 991 200 986 q 158 1001 172 996 q 128 1010 143 1006 q 103 1017 114 1014 l 71 1028 l 540 1028 l 511 1015 q 492 1007 503 1010 q 468 1001 481 1004 q 463 999 465 1000 q 457 997 460 999 q 412 984 433 992 q 382 967 390 976 q 378 962 381 964 q 375 957 376 960 q 365 926 367 942 q 364 890 364 910 l 364 324 l 364 324 z "},"k":{"ha":1135,"x_min":36,"x_max":1103,"o":"m 329 510 l 329 135 q 331 94 329 111 q 347 60 333 76 q 377 41 356 49 q 422 28 399 33 q 430 25 426 26 q 438 24 433 24 q 458 17 449 21 q 476 11 468 14 l 507 0 l 36 0 l 68 10 q 94 15 79 11 q 124 24 108 19 q 151 34 138 29 q 176 44 165 39 q 189 51 183 47 q 197 58 194 56 q 205 72 201 65 q 210 85 208 78 q 212 99 211 92 q 213 111 213 106 q 213 119 213 115 q 213 125 213 122 q 211 133 211 129 q 211 139 211 136 l 211 888 q 211 897 211 892 q 211 910 211 903 q 211 922 211 915 q 210 935 211 928 q 206 951 208 943 q 197 967 203 960 q 190 974 194 969 q 176 981 185 978 q 153 991 167 986 q 124 1001 139 996 q 94 1010 108 1006 q 68 1017 79 1014 l 36 1028 l 507 1028 l 476 1015 q 457 1007 468 1010 q 433 1001 446 1004 q 428 999 431 1000 q 422 997 425 999 q 377 984 399 992 q 347 967 356 976 q 344 962 346 964 q 340 957 342 960 q 331 926 332 942 q 329 890 329 910 l 329 551 l 569 779 q 594 801 581 789 q 619 825 607 813 q 628 832 624 828 q 636 840 632 836 q 697 903 671 874 q 722 949 724 933 q 722 949 722 949 q 722 951 722 950 q 722 953 722 953 q 721 954 721 954 q 703 971 715 964 q 678 983 692 978 q 655 992 665 989 q 638 999 644 996 l 596 1018 l 997 1018 l 957 996 q 947 990 953 992 q 936 986 942 989 q 915 980 926 983 q 892 971 903 976 q 878 965 885 968 q 865 957 872 961 q 781 888 829 933 q 681 792 733 842 q 667 778 674 785 q 654 767 661 772 l 425 556 l 703 256 q 801 151 749 204 q 925 46 853 99 q 949 30 938 36 q 972 18 961 24 q 989 12 981 15 q 1007 6 997 8 q 1028 -1 1017 1 q 1054 -10 1040 -4 l 1103 -28 l 1039 -35 q 1035 -35 1038 -35 q 1031 -35 1033 -35 q 1028 -35 1029 -35 q 1026 -35 1028 -35 q 989 -33 1011 -35 q 943 -25 967 -31 q 890 -14 915 -21 q 851 0 865 -7 q 793 38 824 18 q 731 85 763 58 q 706 106 718 94 q 683 129 694 117 l 329 510 l 329 510 z "},"l":{"ha":792,"x_min":36,"x_max":743,"o":"m 329 892 l 329 135 q 332 106 329 119 q 344 82 335 92 q 367 71 353 74 q 394 67 381 68 q 401 67 399 67 q 407 67 404 67 l 578 68 q 598 67 588 67 q 619 71 608 68 q 647 76 633 72 q 671 88 661 81 q 700 119 690 100 q 718 163 710 139 q 722 173 719 168 q 725 182 724 178 l 743 233 l 743 0 l 36 0 l 68 10 q 94 15 79 11 q 124 24 108 19 q 151 34 138 29 q 176 44 165 39 q 189 51 183 47 q 197 58 194 56 q 202 67 200 63 q 207 75 204 71 q 210 92 210 83 q 211 108 211 100 q 211 120 211 114 q 211 133 211 126 l 211 888 q 211 892 211 889 q 213 900 211 896 q 213 907 213 903 q 213 915 213 911 q 212 926 213 921 q 210 936 211 931 q 206 952 208 944 q 197 967 203 960 q 189 974 194 969 q 176 981 183 978 q 151 991 165 986 q 124 1001 138 996 q 94 1010 108 1006 q 68 1017 79 1014 l 36 1028 l 507 1028 l 476 1015 q 457 1007 468 1010 q 433 1001 446 1004 q 428 999 431 1000 q 422 997 425 999 q 377 984 399 992 q 347 967 356 976 q 344 962 346 964 q 340 957 342 960 q 331 926 332 942 q 329 890 329 910 l 329 892 z "},"m":{"ha":1550,"x_min":36,"x_max":1517,"o":"m 354 907 q 428 765 382 847 q 524 593 474 682 q 534 574 529 583 q 544 557 539 565 q 680 327 617 432 q 761 199 743 222 q 886 420 806 271 q 1056 736 967 569 q 1064 751 1060 743 q 1072 765 1068 758 q 1098 813 1085 789 q 1124 860 1111 836 q 1144 899 1135 881 q 1161 935 1153 917 q 1165 943 1163 939 q 1168 951 1167 947 q 1184 987 1176 968 q 1201 1026 1192 1006 l 1278 1028 q 1281 982 1279 1003 q 1283 943 1282 961 q 1284 933 1283 938 q 1285 924 1285 928 q 1288 875 1286 900 q 1293 821 1290 850 q 1303 712 1297 769 q 1314 596 1308 654 q 1340 294 1328 432 q 1354 154 1353 157 q 1355 147 1354 150 q 1356 139 1356 143 q 1363 99 1358 118 q 1374 68 1368 81 q 1401 45 1381 56 q 1446 26 1422 35 q 1467 19 1457 22 q 1488 11 1478 15 l 1517 0 l 1085 0 l 1131 18 q 1141 20 1136 18 q 1151 24 1146 22 q 1153 24 1153 24 q 1156 25 1154 25 q 1198 40 1178 32 q 1225 61 1218 49 q 1240 94 1236 79 q 1243 124 1243 110 q 1242 140 1243 132 q 1240 156 1242 149 q 1238 166 1239 161 q 1238 176 1238 171 l 1181 807 q 1101 665 1156 763 q 986 456 1047 567 q 904 303 944 378 q 833 174 864 229 q 823 154 828 164 q 813 133 818 144 q 808 124 811 129 q 803 114 806 119 q 765 34 782 71 q 743 -11 747 -3 q 722 28 738 0 q 689 88 706 56 q 688 90 688 89 q 688 90 688 90 q 676 111 682 101 q 665 131 671 121 q 414 576 513 414 q 296 774 315 739 l 257 243 q 256 228 257 236 q 254 208 254 219 q 251 178 253 194 q 250 144 250 161 q 250 139 250 142 q 250 135 250 136 q 253 94 250 114 q 265 61 257 75 q 289 42 272 50 q 325 26 306 33 q 331 25 328 26 q 336 24 333 24 q 348 19 342 21 q 360 14 354 17 l 399 0 l 36 0 l 60 11 q 67 13 64 11 q 75 15 71 14 q 83 19 79 18 q 92 22 88 21 q 136 42 115 32 q 165 67 157 53 q 176 117 172 81 q 183 196 181 154 q 184 215 183 206 q 185 233 185 224 q 195 333 190 281 q 203 438 200 385 q 216 650 211 549 q 225 807 221 751 q 228 874 228 843 q 229 935 229 904 q 229 961 229 947 q 229 989 229 975 q 229 1008 229 999 q 229 1026 229 1017 l 310 1028 q 320 995 314 1014 q 335 956 326 976 q 340 939 338 947 q 347 922 343 931 q 351 914 349 918 q 354 906 353 910 l 354 907 z "},"n":{"ha":1299,"x_min":36,"x_max":1276,"o":"m 1068 -3 q 930 151 960 118 q 886 199 900 183 q 867 218 878 207 q 829 257 856 229 q 771 318 800 288 q 711 381 742 349 q 699 394 706 388 q 686 407 692 400 q 428 672 550 549 q 253 846 306 794 l 253 246 q 253 233 253 240 q 253 217 253 225 q 251 198 251 208 q 251 176 251 188 q 251 160 251 168 q 251 143 251 151 q 256 99 253 121 q 267 63 260 76 q 294 39 274 49 q 336 21 314 29 q 349 16 343 18 q 360 13 354 14 l 399 0 l 36 0 l 60 11 q 73 15 67 13 q 86 21 79 18 q 131 42 110 31 q 161 68 153 53 q 170 112 168 81 q 174 179 172 143 q 174 213 174 196 q 174 243 174 229 l 174 1028 l 254 1028 q 290 981 269 1008 q 346 918 311 954 q 474 786 404 858 q 617 639 544 714 q 892 351 764 485 q 1050 192 1021 218 l 1050 783 q 1050 805 1050 793 q 1050 829 1050 817 q 1050 853 1050 842 q 1050 876 1050 865 q 1049 927 1050 904 q 1042 960 1047 950 q 1015 983 1035 974 q 972 1001 994 993 q 968 1003 969 1003 q 965 1004 967 1004 q 951 1010 958 1007 q 938 1015 944 1013 l 914 1028 l 1276 1028 l 1238 1011 q 1230 1007 1233 1008 q 1222 1004 1226 1006 q 1183 985 1200 994 q 1151 963 1165 976 q 1141 930 1144 956 q 1136 875 1138 904 q 1135 842 1135 858 q 1135 814 1135 826 q 1135 792 1135 800 q 1135 785 1135 785 l 1135 -3 l 1068 -3 l 1068 -3 z "},"o":{"ha":1174,"x_min":39,"x_max":1135,"o":"m 563 1047 q 569 1046 565 1046 q 576 1046 572 1046 q 583 1046 579 1046 q 589 1046 586 1046 q 967 903 807 1046 q 1132 518 1126 760 q 964 128 1135 275 q 561 -15 793 -18 q 191 141 343 -14 q 39 518 39 296 q 193 886 39 735 q 563 1046 347 1038 l 563 1047 m 561 969 q 262 830 372 963 q 153 521 151 697 q 272 211 156 351 q 569 60 389 71 q 577 60 574 60 q 583 60 581 60 q 590 58 586 58 q 597 58 593 58 q 892 180 767 58 q 1017 493 1017 301 q 890 825 1017 681 q 576 968 763 969 q 573 968 575 968 q 569 968 571 968 q 565 968 567 968 q 561 968 564 968 l 561 969 z "},"p":{"ha":890,"x_min":78,"x_max":849,"o":"m 849 713 q 849 709 849 710 q 849 708 849 708 q 849 706 849 707 q 849 704 849 706 q 745 501 849 588 q 518 407 642 415 q 505 406 511 406 q 492 406 499 406 q 456 408 474 406 q 421 414 439 410 l 371 426 l 371 135 q 373 94 371 111 q 389 60 375 76 q 418 42 397 49 q 463 28 439 35 q 471 26 467 26 q 479 24 475 25 q 500 17 490 21 q 518 11 510 14 l 549 0 l 78 0 l 110 10 q 135 15 121 11 q 165 24 150 19 q 193 34 179 29 q 218 44 207 39 q 231 51 225 47 q 239 58 236 56 q 247 72 243 65 q 251 85 250 78 q 253 99 253 92 q 254 111 254 106 q 254 119 254 115 q 254 125 254 122 q 253 133 253 129 q 253 139 253 136 l 253 892 q 251 925 253 910 q 238 954 249 940 q 206 976 228 965 q 161 996 185 986 q 134 1006 147 1001 q 110 1015 121 1011 l 79 1028 l 332 1028 q 372 1027 353 1026 q 410 1028 392 1028 q 417 1028 414 1028 q 422 1028 419 1028 q 453 1029 438 1029 q 486 1029 469 1029 q 515 1029 500 1029 q 546 1028 531 1029 q 578 1025 561 1028 q 611 1018 594 1022 q 771 922 697 997 q 849 711 844 847 l 849 713 m 507 951 q 499 950 503 950 q 489 950 494 950 q 476 950 482 950 q 463 950 469 950 q 417 946 439 949 q 388 938 396 943 q 373 915 375 929 q 371 886 371 901 q 371 884 371 885 q 371 882 371 883 l 371 494 l 413 489 q 445 483 429 485 q 476 482 461 482 q 658 543 583 482 q 733 714 733 604 q 733 722 733 718 q 733 728 733 725 q 681 870 729 821 q 576 938 632 919 q 541 946 558 943 q 507 950 524 949 l 507 951 z "},"q":{"ha":1193,"x_min":39,"x_max":1221,"o":"m 710 -11 l 676 -19 l 689 -43 q 706 -60 693 -50 q 736 -82 718 -71 q 768 -98 751 -90 q 801 -112 785 -106 q 869 -139 838 -128 q 931 -157 900 -150 q 1013 -174 971 -168 q 1107 -185 1056 -181 q 1118 -185 1113 -185 q 1128 -186 1124 -186 q 1132 -186 1131 -186 q 1136 -186 1133 -186 q 1151 -187 1143 -186 q 1169 -189 1160 -187 l 1221 -194 l 1179 -212 q 1172 -215 1175 -214 q 1164 -217 1168 -217 q 1135 -222 1150 -221 q 1101 -222 1119 -222 q 1096 -222 1099 -222 q 1090 -222 1093 -222 q 1085 -222 1088 -222 q 1079 -222 1082 -222 q 1060 -222 1069 -222 q 1042 -222 1051 -222 q 782 -190 904 -222 q 583 -108 660 -157 q 565 -97 574 -103 q 549 -85 557 -90 q 528 -68 538 -76 q 508 -51 518 -60 q 490 -33 499 -43 q 469 -12 481 -24 l 442 -7 q 405 2 424 -3 q 367 15 386 7 q 142 188 244 65 q 39 506 39 311 q 194 875 39 725 q 568 1040 350 1025 q 577 1041 572 1040 q 586 1042 582 1042 q 595 1042 590 1042 q 604 1042 600 1042 q 616 1042 610 1042 q 628 1042 622 1042 q 984 892 822 1032 q 1144 525 1146 753 q 1144 521 1144 524 q 1144 517 1144 518 q 1144 512 1144 514 q 1144 507 1144 510 q 1019 163 1136 293 q 710 -11 901 32 l 710 -11 m 567 963 q 267 826 378 956 q 156 519 156 696 q 156 517 156 518 q 156 514 156 515 q 156 511 156 513 q 156 508 156 510 q 278 189 158 315 q 574 47 397 63 q 582 47 578 47 q 590 46 586 46 q 597 46 593 46 q 606 46 601 46 q 896 169 765 47 q 1026 482 1026 290 q 899 817 1028 672 q 582 961 771 963 q 578 961 581 961 q 575 961 576 961 q 571 961 572 961 q 567 961 569 961 l 567 963 z "},"r":{"ha":1061,"x_min":36,"x_max":1011,"o":"m 528 478 l 500 472 l 654 301 q 701 248 679 272 q 743 200 722 224 q 755 187 749 193 q 767 174 761 181 q 802 138 783 156 q 842 99 821 119 q 863 78 854 88 q 882 61 872 69 q 892 53 888 57 q 904 44 897 49 q 933 27 917 36 q 974 6 949 18 l 1011 -11 l 965 -22 q 958 -24 963 -24 q 949 -24 954 -24 q 894 -16 926 -24 q 826 3 861 -8 q 733 74 788 18 q 619 193 678 129 q 617 195 618 194 q 615 197 615 196 q 592 222 603 210 q 569 247 581 235 l 367 464 l 329 464 l 329 135 q 331 94 329 111 q 347 60 333 76 q 377 41 356 49 q 422 28 399 33 q 430 25 426 26 q 438 24 433 24 q 458 17 449 21 q 476 11 468 14 l 507 0 l 36 0 l 68 10 q 94 15 79 11 q 124 24 108 19 q 153 34 139 29 q 176 44 167 39 q 190 51 185 47 q 197 58 194 56 q 207 77 204 67 q 211 99 210 88 q 211 115 211 107 q 211 131 211 122 q 211 135 211 132 q 211 139 211 138 l 211 892 q 209 925 211 910 q 196 954 207 940 q 165 976 186 965 q 119 996 143 986 q 92 1006 106 1001 q 68 1015 79 1011 l 38 1028 l 290 1028 q 329 1027 311 1026 q 365 1029 347 1028 q 371 1029 368 1029 q 376 1029 374 1029 q 407 1030 392 1029 q 439 1031 422 1031 q 470 1030 454 1031 q 504 1028 486 1029 q 526 1025 515 1026 q 547 1022 536 1024 q 701 935 631 1004 q 772 742 772 865 q 726 593 772 647 q 624 511 679 539 q 574 490 599 499 q 528 476 549 482 l 528 478 m 464 965 q 456 964 460 964 q 450 965 453 964 q 442 965 446 965 q 435 965 439 965 q 432 965 433 965 q 429 965 431 965 q 378 962 403 965 q 346 953 354 958 q 331 931 333 944 q 329 901 329 917 q 329 899 329 900 q 329 897 329 899 l 329 522 l 394 524 q 583 584 504 524 q 661 743 663 644 q 661 751 661 747 q 661 760 661 756 q 601 898 654 844 q 483 961 547 951 q 474 963 479 963 q 464 964 469 964 l 464 965 z "},"s":{"ha":681,"x_min":44,"x_max":638,"o":"m 361 1049 q 458 1041 411 1047 q 535 1026 504 1035 q 541 1026 538 1026 q 547 1024 544 1025 l 575 1017 l 578 749 l 519 890 q 460 955 500 939 q 356 974 419 971 q 353 974 354 974 q 350 974 351 974 q 347 974 349 974 q 344 974 346 974 q 202 916 260 974 q 144 778 144 858 q 178 687 144 725 q 253 622 213 649 q 295 598 275 608 q 331 581 315 588 q 352 569 342 575 q 374 558 363 564 q 553 446 475 507 q 635 269 632 385 q 544 57 638 131 q 307 -18 451 -17 q 293 -18 300 -18 q 279 -17 286 -18 q 232 -12 256 -15 q 189 -4 208 -8 q 158 3 172 0 q 136 7 144 6 l 76 24 l 69 288 l 117 165 q 178 90 136 113 q 268 61 221 68 q 284 59 276 60 q 299 57 292 58 q 306 56 303 57 q 313 56 310 56 q 319 56 315 56 q 326 56 322 56 q 472 106 408 56 q 533 233 535 156 q 533 236 533 235 q 533 239 533 238 q 533 240 533 239 q 533 243 533 242 q 484 356 529 317 q 376 428 439 396 q 340 447 358 438 q 301 468 321 457 q 253 494 276 482 q 208 519 231 507 q 94 610 139 560 q 44 757 50 660 q 44 760 44 758 q 44 764 44 763 q 44 767 44 765 q 44 771 44 769 q 142 973 44 900 q 361 1047 240 1046 l 361 1049 z "},"t":{"ha":865,"x_min":36,"x_max":822,"o":"m 36 1050 l 94 1028 l 750 1028 l 822 1054 l 819 743 l 797 817 q 795 820 796 818 q 794 824 794 822 q 790 840 792 832 q 785 857 788 849 q 764 909 775 885 q 733 940 753 933 q 719 944 726 943 q 706 946 713 946 q 692 947 699 947 q 676 947 685 947 q 672 947 674 947 q 667 947 669 947 l 483 949 l 483 135 q 485 94 483 111 q 501 60 488 76 q 531 41 510 49 q 576 28 553 33 q 584 25 581 26 q 592 24 588 24 q 613 17 603 21 q 631 11 622 14 l 661 0 l 190 0 l 222 10 q 248 15 233 11 q 278 24 263 19 q 306 34 292 29 q 331 44 319 39 q 343 51 338 47 q 351 58 349 56 q 359 72 356 65 q 364 85 363 78 q 366 99 365 92 q 367 111 367 106 q 367 119 367 115 q 367 125 367 122 q 365 133 365 129 q 365 139 365 136 l 365 949 l 150 949 q 137 947 143 947 q 125 946 131 947 q 119 943 122 944 q 113 940 115 942 q 86 901 96 929 q 69 842 76 874 q 67 833 68 838 q 65 824 67 828 q 62 810 64 817 q 58 796 60 803 l 43 749 l 36 1050 l 36 1050 z "},"u":{"ha":1225,"x_min":36,"x_max":1185,"o":"m 1008 838 l 1008 403 q 885 70 1008 163 q 603 -21 761 -22 q 331 75 451 -19 q 211 385 211 169 l 211 888 q 211 892 211 889 q 213 900 211 896 q 213 907 213 903 q 213 915 213 911 q 212 926 213 921 q 210 936 211 931 q 206 952 208 944 q 197 967 203 960 q 189 974 194 969 q 176 981 183 978 q 151 991 165 986 q 124 1001 138 996 q 94 1010 108 1006 q 68 1017 79 1014 l 36 1028 l 507 1028 l 476 1015 q 457 1007 468 1010 q 433 1001 446 1004 q 428 999 431 1000 q 422 997 425 999 q 377 984 399 992 q 347 967 356 976 q 344 962 346 964 q 340 957 342 960 q 331 926 332 942 q 329 890 329 910 l 329 381 q 405 142 329 214 q 599 51 481 69 q 619 49 610 50 q 639 49 629 49 q 842 134 754 49 q 929 363 929 219 l 929 882 q 929 883 929 882 q 929 885 929 883 q 929 905 929 894 q 926 926 929 915 q 922 943 925 935 q 913 960 918 951 q 904 966 910 963 q 890 974 899 969 q 867 983 881 978 q 840 993 854 988 q 809 1003 824 997 q 783 1013 794 1008 l 751 1028 l 1185 1028 l 1157 1013 q 1131 1001 1146 1006 q 1101 992 1117 997 q 1056 977 1078 985 q 1028 960 1035 969 q 1019 935 1022 953 q 1013 899 1015 918 q 1009 860 1010 878 q 1008 836 1008 843 l 1008 838 z "},"v":{"ha":1188,"x_min":43,"x_max":1147,"o":"m 343 874 l 619 176 l 876 875 q 881 885 879 879 q 885 899 883 892 q 891 926 889 913 q 893 947 893 939 q 893 951 893 950 q 892 954 893 953 q 868 979 888 968 q 826 999 849 990 q 811 1006 818 1003 q 797 1011 804 1008 l 760 1028 l 1147 1028 l 1117 1017 q 1110 1013 1114 1014 q 1104 1011 1107 1013 q 1086 1005 1096 1008 q 1068 999 1076 1001 q 1022 982 1043 992 q 994 960 1001 972 q 986 946 990 953 q 978 932 982 939 q 969 914 974 924 q 960 893 964 904 q 906 755 947 867 q 817 511 864 643 q 813 501 815 506 q 810 492 811 496 q 721 240 761 357 q 671 92 681 122 q 663 65 667 78 q 656 40 660 53 q 656 40 656 40 q 656 39 656 39 q 649 13 653 26 q 640 -14 644 0 l 569 -14 q 559 8 564 -1 q 550 29 554 18 q 542 49 546 39 q 533 72 538 60 q 474 236 514 132 q 388 454 433 340 q 383 466 386 460 q 378 479 381 472 q 274 733 322 617 q 213 883 226 850 q 206 899 208 892 q 200 914 203 907 q 199 917 199 915 q 197 921 199 919 q 191 935 194 928 q 183 951 188 943 q 159 973 176 964 q 119 990 142 982 q 116 992 118 990 q 111 993 114 993 q 91 1001 101 997 q 71 1011 81 1006 l 43 1028 l 453 1028 l 418 1013 q 400 1005 410 1008 q 379 997 390 1001 q 344 981 360 990 q 324 958 328 972 q 324 956 324 957 q 324 956 324 956 q 322 953 322 954 q 322 951 322 953 q 325 933 322 943 q 331 910 328 922 q 333 904 332 907 q 335 899 333 901 q 340 884 338 890 q 343 872 342 878 l 343 874 z "},"w":{"ha":1783,"x_min":36,"x_max":1749,"o":"m 976 857 q 984 839 981 847 q 990 822 988 831 q 1133 483 1065 646 q 1247 226 1200 321 l 1476 876 q 1481 888 1479 881 q 1485 900 1483 894 q 1492 929 1489 915 q 1494 951 1494 943 q 1494 953 1494 953 q 1494 956 1494 954 q 1493 958 1493 957 q 1493 958 1493 958 q 1469 981 1489 971 q 1426 1000 1450 992 q 1413 1006 1419 1003 q 1400 1011 1407 1008 l 1363 1028 l 1749 1028 l 1718 1017 q 1712 1013 1715 1014 q 1706 1011 1708 1013 q 1688 1005 1697 1008 q 1669 999 1678 1001 q 1624 982 1644 992 q 1596 960 1603 972 q 1588 946 1592 953 q 1581 932 1583 939 q 1571 914 1575 924 q 1563 893 1567 904 q 1510 756 1550 867 q 1426 514 1471 644 q 1424 505 1425 510 q 1419 496 1422 500 q 1336 247 1375 363 q 1288 100 1297 131 q 1281 72 1283 85 q 1276 46 1278 58 q 1276 33 1276 39 q 1275 19 1275 26 q 1274 3 1275 11 q 1272 -14 1274 -4 l 1204 -14 q 1197 8 1200 -1 q 1189 29 1193 18 q 1187 35 1188 32 q 1185 42 1186 39 q 1180 56 1182 49 q 1175 72 1178 64 q 1133 191 1158 124 q 1081 328 1108 258 q 1073 347 1076 338 q 1065 365 1069 357 q 986 563 1024 472 q 936 679 949 653 l 890 781 l 842 663 q 805 560 833 642 q 744 383 776 478 q 744 378 744 381 q 742 375 743 376 q 685 205 711 285 q 649 96 658 125 q 641 68 644 81 q 635 43 638 56 q 634 37 635 40 q 632 31 633 33 q 628 9 631 19 q 622 -14 625 -1 l 554 -14 q 547 8 550 -1 q 540 29 543 18 q 534 49 538 39 q 526 72 531 60 q 467 236 507 132 q 381 454 426 340 q 376 466 379 460 q 371 479 374 472 q 267 733 315 617 q 206 883 219 850 q 201 896 203 890 q 196 907 199 901 q 194 914 194 911 q 190 921 193 917 q 184 935 188 928 q 176 951 181 943 q 152 973 169 964 q 113 990 135 982 q 109 992 111 990 q 104 993 107 993 q 84 1001 94 997 q 64 1011 74 1006 l 36 1028 l 458 1028 l 422 1013 q 401 1004 414 1008 q 375 996 389 1000 q 338 979 356 989 q 317 956 321 969 q 315 949 315 953 q 315 940 315 946 q 316 925 315 933 q 318 907 317 917 q 324 885 321 896 q 329 865 326 874 l 604 211 q 676 408 625 268 q 783 704 726 547 q 810 781 797 743 q 838 857 824 819 q 856 908 847 885 q 871 954 864 932 q 872 956 872 956 q 872 957 872 956 q 889 1003 881 979 q 907 1057 897 1028 q 920 1015 914 1035 q 932 976 926 994 q 936 963 933 969 q 940 949 939 956 q 956 904 947 926 q 976 856 965 882 l 976 857 z "},"x":{"ha":1035,"x_min":36,"x_max":990,"o":"m 531 611 l 674 871 q 679 878 676 874 q 685 889 682 883 q 703 932 696 911 q 710 958 711 953 q 684 983 704 972 q 642 1003 664 993 q 631 1006 636 1004 q 619 1011 625 1008 l 582 1028 l 976 1028 l 946 1017 q 932 1010 939 1013 q 918 1006 925 1008 q 890 997 904 1001 q 860 985 875 992 q 839 972 850 979 q 817 956 828 965 q 787 922 801 942 q 758 879 772 903 l 567 543 l 806 150 q 833 106 819 126 q 856 68 846 86 q 886 43 863 54 q 935 22 910 32 q 949 17 942 19 q 961 11 956 14 l 990 0 l 603 0 l 638 14 q 640 13 639 13 q 644 15 642 14 q 650 18 647 17 q 656 19 653 19 q 690 38 674 28 q 711 65 706 47 q 711 68 711 67 q 711 71 711 69 q 708 89 711 78 q 699 113 704 100 q 694 122 697 117 q 690 132 692 126 q 685 142 688 138 q 679 151 682 147 l 507 440 l 343 151 q 335 135 339 143 q 325 119 331 128 q 324 118 325 118 q 324 117 324 118 q 306 85 314 100 q 300 65 299 69 q 322 42 306 51 q 360 22 339 32 q 369 19 364 21 q 381 14 375 17 l 418 0 l 39 0 l 69 11 q 84 15 76 13 q 99 19 92 17 q 126 28 113 24 q 156 39 140 32 q 176 52 165 44 q 199 69 188 60 q 228 103 214 85 q 256 146 242 122 l 467 506 l 236 882 q 221 903 229 893 q 204 924 213 914 q 186 940 194 932 q 171 954 178 947 q 152 968 164 961 q 126 983 140 975 q 109 990 118 986 q 92 999 100 994 q 78 1005 85 1001 q 67 1011 72 1008 l 36 1028 l 456 1028 l 419 1013 q 408 1007 414 1010 q 396 1001 403 1004 q 363 981 378 993 q 343 951 347 968 q 342 947 342 950 q 342 942 342 944 q 343 927 342 935 q 347 911 344 919 q 353 897 350 904 q 360 883 356 890 q 360 881 360 882 q 363 878 361 879 l 531 611 l 531 611 z "},"y":{"ha":1058,"x_min":42,"x_max":1021,"o":"m 486 486 l 396 657 q 374 697 386 675 q 349 739 363 718 q 334 763 342 751 q 319 786 326 775 q 284 839 301 814 q 253 883 267 864 q 207 935 232 913 q 156 972 182 957 q 125 990 140 982 q 96 1003 110 997 l 42 1029 l 92 1040 q 102 1041 96 1040 q 114 1040 108 1042 q 160 1035 133 1040 q 214 1021 186 1031 q 265 998 240 1011 q 310 967 290 985 q 363 908 338 940 q 411 844 389 876 q 447 789 431 817 q 476 738 463 761 l 558 590 l 719 871 q 724 877 722 874 q 728 885 726 881 q 748 926 740 907 q 754 954 756 946 q 754 956 754 956 q 754 958 754 957 q 747 971 751 965 q 733 982 742 976 q 701 997 721 989 q 651 1017 682 1004 l 628 1028 l 1021 1028 l 992 1017 q 978 1010 985 1013 q 964 1006 971 1008 q 935 997 950 1001 q 906 985 921 992 q 885 972 896 979 q 863 956 874 965 q 847 938 854 949 q 833 917 840 928 q 822 897 828 907 q 810 875 817 886 l 604 526 l 603 135 q 605 98 603 114 q 617 68 607 82 q 619 64 618 65 q 622 60 621 63 q 652 41 631 49 q 697 28 674 33 q 705 25 701 26 q 713 24 708 24 q 733 17 722 21 q 751 11 743 14 l 782 0 l 311 0 l 343 10 q 369 15 354 11 q 399 24 383 19 q 426 34 413 29 q 451 44 440 39 q 464 51 458 47 q 472 58 469 56 q 480 72 476 65 q 485 85 483 78 q 487 99 486 92 q 488 111 488 106 q 488 119 488 115 q 488 125 488 122 q 486 133 486 129 q 486 139 486 136 l 486 486 l 486 486 z "},"z":{"ha":957,"x_min":36,"x_max":917,"o":"m 917 1029 q 876 972 894 997 q 839 922 857 946 q 801 873 819 899 q 760 817 782 847 q 619 626 682 713 q 497 454 556 539 q 488 442 492 449 q 479 429 483 436 q 360 259 421 347 q 225 67 300 171 l 685 68 q 704 67 696 67 q 722 69 713 68 q 740 74 731 72 q 758 81 749 76 q 799 106 782 90 q 828 139 815 122 q 849 171 840 156 q 865 196 857 186 l 904 246 l 813 -19 l 775 0 l 36 0 l 718 957 l 236 957 q 213 954 228 956 q 183 950 199 953 q 147 944 164 947 q 125 936 131 940 q 107 910 115 931 q 92 868 99 890 q 84 840 88 854 q 78 815 81 825 l 58 751 l 54 1043 l 108 1029 l 917 1029 l 917 1029 z "},"{":{"ha":381,"x_min":38,"x_max":363,"o":"m 156 451 l 136 444 l 158 433 q 162 431 160 432 q 165 429 164 431 q 192 415 181 422 q 214 392 204 407 q 222 381 218 386 q 228 371 225 376 q 235 353 232 363 q 238 331 238 343 l 238 -14 q 243 -71 238 -46 q 269 -118 249 -96 q 276 -126 272 -122 q 282 -132 279 -129 q 300 -147 290 -140 q 324 -157 310 -153 l 350 -164 l 307 -164 q 280 -162 293 -164 q 251 -158 267 -161 q 208 -142 229 -153 q 167 -112 186 -131 q 142 -65 150 -96 q 133 -1 135 -35 q 132 37 132 17 q 132 74 132 57 q 132 85 132 79 q 132 96 132 90 l 132 328 l 132 347 q 128 371 132 360 q 118 393 125 382 q 113 399 115 396 q 107 407 110 403 q 92 419 100 415 q 75 428 83 424 q 66 431 71 429 q 56 436 61 433 l 38 446 l 54 453 q 65 456 60 454 q 74 461 69 458 q 94 472 85 465 q 111 486 103 478 q 114 490 113 488 q 117 493 115 492 q 123 502 119 497 q 128 511 126 507 q 136 532 133 521 q 140 557 139 543 l 143 574 l 150 894 q 151 913 150 903 q 156 933 153 924 q 167 967 160 950 q 189 999 175 983 q 244 1035 215 1026 q 311 1044 274 1044 l 363 1046 l 336 1036 q 308 1019 319 1028 q 288 997 297 1011 q 285 994 286 996 q 282 990 283 992 q 272 973 276 982 q 264 954 267 964 q 258 923 260 938 q 256 899 256 908 l 249 610 l 249 588 q 246 565 249 581 q 238 531 243 549 q 228 510 233 519 q 217 492 224 500 q 213 487 215 489 q 210 483 211 485 q 188 465 200 472 q 163 453 176 458 q 158 451 160 451 q 156 450 157 450 l 156 451 z "},"|":{"ha":192,"x_min":36,"x_max":143,"o":"m 142 1044 l 143 -160 l 36 -160 l 36 1044 l 142 1044 l 142 1044 z "},"}":{"ha":407,"x_min":36,"x_max":363,"o":"m 264 443 l 244 450 q 216 461 228 454 q 193 479 204 468 q 188 485 190 482 q 183 490 186 488 q 172 508 176 499 q 163 529 167 518 q 154 563 157 547 q 151 585 151 579 l 151 608 l 144 899 q 142 922 144 907 q 136 953 140 936 q 129 972 133 963 q 118 990 125 982 q 115 994 117 992 q 113 997 114 996 q 92 1018 103 1010 q 64 1033 81 1026 l 36 1044 l 90 1044 q 156 1035 128 1043 q 211 999 185 1026 q 235 963 226 982 q 247 924 243 943 q 249 908 249 915 q 250 892 250 900 l 257 574 l 258 557 q 264 531 261 542 q 272 510 267 519 q 277 501 274 506 q 283 492 281 496 q 306 472 294 479 q 331 458 317 464 q 338 455 333 457 q 346 451 342 453 l 363 444 l 344 438 q 335 432 340 433 q 326 428 331 431 q 317 424 322 426 q 307 417 311 421 q 301 413 304 415 q 293 406 297 410 q 274 378 279 392 q 268 344 268 364 l 268 328 l 268 96 q 268 83 268 89 q 268 72 268 78 q 268 36 268 56 q 267 -3 268 17 q 258 -65 265 -35 q 233 -112 250 -96 q 192 -142 214 -131 q 149 -158 171 -153 q 120 -164 133 -162 q 93 -165 107 -165 l 51 -165 l 76 -157 q 102 -147 92 -153 q 122 -131 113 -140 q 127 -125 125 -128 q 132 -119 129 -122 q 136 -114 135 -117 q 140 -108 138 -111 q 158 -65 154 -87 q 163 -15 163 -43 l 163 331 q 165 353 163 343 q 174 372 168 363 q 180 381 176 376 q 186 392 183 386 q 210 416 197 407 q 242 432 224 425 l 264 443 l 264 443 z "},"~":{"ha":550,"x_min":31,"x_max":514,"o":"m 485 960 q 447 913 469 932 q 400 882 425 893 q 378 876 389 878 q 358 874 368 874 q 312 885 332 874 q 274 911 292 897 q 235 937 256 925 q 189 949 215 949 q 188 949 189 949 q 186 949 188 949 q 144 942 160 947 q 114 928 128 936 q 96 917 106 924 q 75 906 86 911 l 31 883 l 56 929 q 103 983 72 958 q 167 1017 133 1008 q 178 1020 172 1019 q 190 1021 185 1021 q 191 1021 190 1021 q 193 1021 192 1021 q 195 1021 194 1021 q 196 1021 196 1021 q 238 1009 221 1021 q 272 983 256 997 q 306 958 289 969 q 349 946 324 946 q 351 946 350 946 q 353 946 351 946 q 401 953 383 949 q 436 967 419 958 q 456 976 446 971 q 481 989 467 982 l 514 1006 l 485 960 l 485 960 z "},"":{"ha":1119,"x_min":32,"x_max":1136,"o":"m 639 1028 q 644 1008 642 1017 q 650 990 647 999 q 654 972 651 981 q 660 953 657 964 q 717 788 679 893 q 796 571 754 683 q 801 557 799 564 q 807 543 804 550 q 902 290 857 406 q 963 140 947 174 q 971 121 967 129 q 979 103 975 113 q 986 88 982 96 q 994 72 990 81 q 1023 47 1001 58 q 1069 26 1044 36 q 1081 22 1075 25 q 1092 18 1086 19 q 1099 15 1096 17 q 1107 11 1103 13 l 1136 0 l 725 0 l 761 14 q 779 19 769 15 q 800 28 789 24 q 835 44 819 35 q 856 68 851 54 q 856 69 856 68 q 857 71 856 69 q 857 73 857 72 q 857 75 857 74 q 854 93 857 82 q 847 114 851 104 q 844 124 846 119 q 842 132 843 128 q 838 142 840 138 q 835 151 836 147 l 742 413 l 399 413 l 301 153 q 299 147 300 149 q 299 142 299 144 q 294 129 296 136 q 290 115 292 122 q 283 86 286 100 q 281 65 281 72 q 281 63 281 64 q 281 61 281 63 q 302 41 286 49 q 338 26 318 33 q 343 26 340 26 q 347 24 346 25 q 361 19 354 21 q 374 14 368 17 l 411 0 l 32 0 l 63 11 q 84 18 72 14 q 107 26 96 22 q 151 46 131 35 q 179 69 172 57 q 186 83 183 76 q 192 96 189 90 q 196 104 194 100 q 199 114 197 108 q 203 125 201 119 q 208 138 206 131 q 244 219 226 176 q 279 306 261 261 q 299 351 289 328 q 318 397 308 374 q 449 733 390 576 q 521 932 507 889 q 528 957 525 946 q 535 979 532 968 q 536 987 535 983 q 538 994 538 990 q 542 1010 540 1001 q 546 1026 544 1018 l 639 1028 l 639 1028 m 710 485 l 569 849 l 428 485 l 710 485 l 710 485 m 522 1301 l 585 1097 l 386 1160 l 522 1301 l 522 1301 m 765 1301 l 826 1097 l 628 1160 l 765 1301 l 765 1301 z "},"":{"ha":1156,"x_min":32,"x_max":1136,"o":"m 639 1028 q 644 1008 642 1017 q 650 990 647 999 q 654 972 651 981 q 660 953 657 964 q 717 788 679 893 q 796 571 754 683 q 801 557 799 564 q 807 543 804 550 q 902 290 857 406 q 963 140 947 174 q 971 121 967 129 q 979 103 975 113 q 986 88 982 96 q 994 72 990 81 q 1023 47 1001 58 q 1069 26 1044 36 q 1081 22 1075 25 q 1092 18 1086 19 q 1099 15 1096 17 q 1107 11 1103 13 l 1136 0 l 725 0 l 761 14 q 779 19 769 15 q 800 28 789 24 q 835 44 819 35 q 856 68 851 54 q 856 69 856 68 q 857 71 856 69 q 857 73 857 72 q 857 75 857 74 q 854 93 857 82 q 847 114 851 104 q 844 124 846 119 q 842 132 843 128 q 838 142 840 138 q 835 151 836 147 l 742 413 l 399 413 l 301 153 q 299 147 300 149 q 299 142 299 144 q 294 129 296 136 q 290 115 292 122 q 283 86 286 100 q 281 65 281 72 q 281 63 281 64 q 281 61 281 63 q 302 41 286 49 q 338 26 318 33 q 343 26 340 26 q 347 24 346 25 q 361 19 354 21 q 374 14 368 17 l 411 0 l 32 0 l 63 11 q 84 18 72 14 q 107 26 96 22 q 151 46 131 35 q 179 69 172 57 q 186 83 183 76 q 192 96 189 90 q 196 104 194 100 q 199 114 197 108 q 203 125 201 119 q 208 138 206 131 q 244 219 226 176 q 279 306 261 261 q 299 351 289 328 q 318 397 308 374 q 449 733 390 576 q 521 932 507 889 q 528 957 525 946 q 535 979 532 968 q 536 987 535 983 q 538 994 538 990 q 542 1010 540 1001 q 546 1026 544 1018 l 639 1028 l 639 1028 m 710 485 l 569 849 l 428 485 l 710 485 l 710 485 m 592 1336 q 679 1302 642 1335 q 717 1217 717 1269 q 717 1217 717 1217 q 717 1217 717 1217 q 717 1215 717 1215 q 717 1215 717 1215 q 680 1129 715 1165 q 593 1093 644 1093 q 510 1126 546 1093 q 472 1208 475 1160 q 472 1209 472 1208 q 472 1211 472 1210 q 472 1213 472 1213 q 472 1214 472 1214 q 508 1299 472 1263 q 592 1335 543 1335 l 592 1336 m 672 1215 q 648 1269 672 1247 q 592 1292 624 1292 q 537 1267 560 1292 q 514 1211 514 1243 q 514 1211 514 1211 q 514 1211 514 1211 q 514 1210 514 1210 q 514 1210 514 1210 q 538 1156 515 1178 q 592 1135 561 1135 q 649 1158 625 1135 q 672 1214 672 1182 l 672 1215 z "},"":{"ha":1061,"x_min":39,"x_max":1018,"o":"m 565 -29 l 510 -15 q 181 144 315 28 q 39 488 46 261 q 39 496 39 492 q 39 506 39 500 q 209 886 39 738 q 606 1046 379 1035 q 651 1048 629 1047 q 693 1049 672 1049 q 744 1047 719 1049 q 794 1042 769 1046 q 850 1033 822 1039 q 908 1017 878 1026 l 947 1006 l 949 729 l 915 814 q 910 826 913 819 q 906 838 908 832 q 883 893 896 868 q 850 932 871 918 q 840 938 846 935 q 826 943 833 940 q 756 959 800 951 q 667 969 713 967 q 645 971 656 971 q 625 971 635 971 q 617 971 621 971 q 611 971 614 971 q 605 969 608 969 q 597 969 601 969 q 285 832 413 960 q 160 506 158 704 q 294 181 161 317 q 626 49 428 46 q 643 49 635 49 q 660 50 651 50 q 810 82 739 56 q 911 142 881 108 q 932 171 922 154 q 950 204 942 188 q 968 240 960 222 q 983 269 976 257 l 1018 336 l 960 42 l 910 24 q 844 1 864 6 q 813 -7 825 -4 q 808 -8 810 -7 q 804 -8 807 -8 q 790 -10 797 -10 q 769 -14 782 -11 q 741 -17 754 -17 q 715 -18 728 -18 q 708 -19 713 -19 q 700 -19 704 -19 q 670 -20 686 -19 q 636 -24 654 -21 l 599 -31 l 594 -103 l 611 -97 q 624 -94 618 -96 q 636 -92 631 -92 q 645 -90 640 -90 q 656 -89 650 -89 q 746 -125 708 -89 q 785 -210 783 -161 q 745 -315 785 -275 q 644 -356 706 -356 q 601 -351 621 -356 q 565 -336 581 -347 l 543 -321 l 564 -293 l 583 -308 q 611 -322 596 -318 q 642 -326 626 -326 q 710 -296 682 -326 q 738 -225 738 -265 q 738 -223 738 -224 q 738 -221 738 -222 q 710 -155 736 -182 q 644 -125 683 -128 q 642 -125 643 -125 q 639 -125 642 -125 q 629 -126 635 -125 q 618 -126 624 -126 q 607 -129 613 -128 q 596 -132 601 -131 q 588 -134 592 -133 q 581 -136 583 -135 l 558 -144 l 565 -29 l 565 -29 z "},"":{"ha":826,"x_min":36,"x_max":779,"o":"m 36 1028 l 732 1028 l 731 800 l 711 856 q 706 868 708 861 q 701 881 704 875 q 687 915 694 900 q 663 940 679 929 q 638 951 651 947 q 610 957 624 956 q 594 958 601 957 q 578 958 586 958 l 407 960 q 401 958 404 958 q 394 958 399 958 q 362 957 378 958 q 338 947 346 956 q 331 928 332 942 q 329 900 329 915 q 329 899 329 900 q 329 897 329 899 q 329 894 329 896 q 329 890 329 892 l 329 558 l 526 558 q 543 557 535 557 q 560 557 551 557 q 591 559 576 557 q 618 571 606 561 q 624 576 621 574 q 628 581 626 578 q 638 592 635 586 q 646 606 642 597 l 675 667 l 675 340 l 663 372 q 659 382 661 376 q 656 393 657 388 q 653 398 654 396 q 651 403 653 400 q 635 445 644 425 q 611 474 626 465 q 594 482 603 479 q 578 486 586 485 q 560 488 569 488 q 540 488 551 488 q 537 488 539 488 q 533 488 535 488 l 329 489 l 329 147 q 330 132 329 140 q 332 117 331 124 q 340 90 335 101 q 353 74 344 78 q 373 67 364 68 q 392 65 382 65 q 399 65 396 65 q 407 67 403 65 q 414 67 410 67 q 422 67 418 67 l 650 68 q 658 67 654 67 q 667 67 663 67 q 674 65 669 65 q 682 65 678 65 q 696 67 689 65 q 710 71 703 68 q 728 93 721 76 q 743 131 736 110 q 746 140 744 135 q 749 149 747 144 q 755 165 751 157 q 761 181 758 174 l 779 225 l 772 0 l 36 0 l 68 10 q 94 15 79 11 q 124 24 108 19 q 151 34 138 29 q 176 44 165 39 q 189 51 183 47 q 197 58 194 56 q 207 77 204 67 q 211 99 210 88 q 211 107 211 103 q 211 115 211 111 q 211 128 211 122 q 211 139 211 133 l 211 892 q 211 905 211 897 q 211 918 211 913 q 209 944 211 932 q 197 967 207 956 q 189 974 194 969 q 176 981 183 978 q 151 991 165 986 q 124 1001 138 996 q 94 1010 108 1006 q 68 1017 79 1014 l 36 1028 l 36 1028 m 569 1342 l 343 1099 l 468 1406 l 569 1342 l 569 1342 z "},"":{"ha":1301,"x_min":36,"x_max":1276,"o":"m 1068 -3 q 930 151 960 118 q 886 199 900 183 q 867 218 878 207 q 829 257 856 229 q 771 318 800 288 q 711 381 742 349 q 699 394 706 388 q 686 407 692 400 q 428 672 550 549 q 253 846 306 794 l 253 246 q 253 233 253 240 q 253 217 253 225 q 251 198 251 208 q 251 176 251 188 q 251 160 251 168 q 251 143 251 151 q 256 99 253 121 q 267 63 260 76 q 294 39 274 49 q 336 21 314 29 q 349 16 343 18 q 360 13 354 14 l 399 0 l 36 0 l 60 11 q 73 15 67 13 q 86 21 79 18 q 131 42 110 31 q 161 68 153 53 q 170 112 168 81 q 174 179 172 143 q 174 213 174 196 q 174 243 174 229 l 174 1028 l 254 1028 q 290 981 269 1008 q 346 918 311 954 q 474 786 404 858 q 617 639 544 714 q 892 351 764 485 q 1050 192 1021 218 l 1050 783 q 1050 805 1050 793 q 1050 829 1050 817 q 1050 853 1050 842 q 1050 876 1050 865 q 1049 927 1050 904 q 1042 960 1047 950 q 1015 983 1035 974 q 972 1001 994 993 q 968 1003 969 1003 q 965 1004 967 1004 q 951 1010 958 1007 q 938 1015 944 1013 l 914 1028 l 1276 1028 l 1238 1011 q 1230 1007 1233 1008 q 1222 1004 1226 1006 q 1183 985 1200 994 q 1151 963 1165 976 q 1141 930 1144 956 q 1136 875 1138 904 q 1135 842 1135 858 q 1135 814 1135 826 q 1135 792 1135 800 q 1135 785 1135 785 l 1135 -3 l 1068 -3 l 1068 -3 m 900 1182 q 865 1137 886 1156 q 819 1107 843 1118 q 797 1099 808 1101 q 774 1096 785 1096 q 725 1108 746 1096 q 686 1135 704 1119 q 648 1160 668 1149 q 601 1171 628 1171 q 601 1171 601 1171 q 601 1171 601 1171 q 600 1171 600 1171 q 600 1171 600 1171 q 559 1164 575 1169 q 529 1150 543 1158 q 510 1139 519 1144 q 489 1126 500 1133 l 446 1106 l 471 1150 q 522 1208 489 1182 q 592 1242 556 1235 q 599 1242 596 1242 q 606 1243 603 1243 q 608 1243 607 1243 q 610 1243 608 1243 q 653 1231 635 1243 q 688 1204 671 1218 q 722 1178 704 1190 q 763 1167 739 1167 q 765 1167 764 1167 q 767 1167 765 1167 q 817 1175 799 1169 q 851 1189 836 1181 q 872 1199 861 1193 q 896 1211 882 1204 l 928 1228 l 900 1182 l 900 1182 z "},"":{"ha":1181,"x_min":39,"x_max":1135,"o":"m 563 1047 q 569 1046 565 1046 q 576 1046 572 1046 q 583 1046 579 1046 q 589 1046 586 1046 q 967 903 807 1046 q 1132 518 1126 760 q 964 128 1135 275 q 561 -15 793 -18 q 191 141 343 -14 q 39 518 39 296 q 193 886 39 735 q 563 1046 347 1038 l 563 1047 m 561 969 q 262 830 372 963 q 153 521 151 697 q 272 211 156 351 q 569 60 389 71 q 577 60 574 60 q 583 60 581 60 q 590 58 586 58 q 597 58 593 58 q 892 180 767 58 q 1017 493 1017 301 q 890 825 1017 681 q 576 968 763 969 q 573 968 575 968 q 569 968 571 968 q 565 968 567 968 q 561 968 564 968 l 561 969 m 508 1299 l 571 1096 l 372 1158 l 508 1299 l 508 1299 m 751 1299 l 814 1096 l 614 1158 l 751 1299 l 751 1299 z "},"":{"ha":1236,"x_min":36,"x_max":1185,"o":"m 1008 838 l 1008 403 q 885 70 1008 163 q 603 -21 761 -22 q 331 75 451 -19 q 211 385 211 169 l 211 888 q 211 892 211 889 q 213 900 211 896 q 213 907 213 903 q 213 915 213 911 q 212 926 213 921 q 210 936 211 931 q 206 952 208 944 q 197 967 203 960 q 189 974 194 969 q 176 981 183 978 q 151 991 165 986 q 124 1001 138 996 q 94 1010 108 1006 q 68 1017 79 1014 l 36 1028 l 507 1028 l 476 1015 q 457 1007 468 1010 q 433 1001 446 1004 q 428 999 431 1000 q 422 997 425 999 q 377 984 399 992 q 347 967 356 976 q 344 962 346 964 q 340 957 342 960 q 331 926 332 942 q 329 890 329 910 l 329 381 q 405 142 329 214 q 599 51 481 69 q 619 49 610 50 q 639 49 629 49 q 842 134 754 49 q 929 363 929 219 l 929 882 q 929 883 929 882 q 929 885 929 883 q 929 905 929 894 q 926 926 929 915 q 922 943 925 935 q 913 960 918 951 q 904 966 910 963 q 890 974 899 969 q 867 983 881 978 q 840 993 854 988 q 809 1003 824 997 q 783 1013 794 1008 l 751 1028 l 1185 1028 l 1157 1013 q 1131 1001 1146 1006 q 1101 992 1117 997 q 1056 977 1078 985 q 1028 960 1035 969 q 1019 935 1022 953 q 1013 899 1015 918 q 1009 860 1010 878 q 1008 836 1008 843 l 1008 838 m 540 1299 l 603 1096 l 404 1158 l 540 1299 l 540 1299 m 783 1299 l 846 1096 l 646 1158 l 783 1299 l 783 1299 z "},"":{"ha":1157,"x_min":32,"x_max":1136,"o":"m 639 1028 q 644 1008 642 1017 q 650 990 647 999 q 654 972 651 981 q 660 953 657 964 q 717 788 679 893 q 796 571 754 683 q 801 557 799 564 q 807 543 804 550 q 902 290 857 406 q 963 140 947 174 q 971 121 967 129 q 979 103 975 113 q 986 88 982 96 q 994 72 990 81 q 1023 47 1001 58 q 1069 26 1044 36 q 1081 22 1075 25 q 1092 18 1086 19 q 1099 15 1096 17 q 1107 11 1103 13 l 1136 0 l 725 0 l 761 14 q 779 19 769 15 q 800 28 789 24 q 835 44 819 35 q 856 68 851 54 q 856 69 856 68 q 857 71 856 69 q 857 73 857 72 q 857 75 857 74 q 854 93 857 82 q 847 114 851 104 q 844 124 846 119 q 842 132 843 128 q 838 142 840 138 q 835 151 836 147 l 742 413 l 399 413 l 301 153 q 299 147 300 149 q 299 142 299 144 q 294 129 296 136 q 290 115 292 122 q 283 86 286 100 q 281 65 281 72 q 281 63 281 64 q 281 61 281 63 q 302 41 286 49 q 338 26 318 33 q 343 26 340 26 q 347 24 346 25 q 361 19 354 21 q 374 14 368 17 l 411 0 l 32 0 l 63 11 q 84 18 72 14 q 107 26 96 22 q 151 46 131 35 q 179 69 172 57 q 186 83 183 76 q 192 96 189 90 q 196 104 194 100 q 199 114 197 108 q 203 125 201 119 q 208 138 206 131 q 244 219 226 176 q 279 306 261 261 q 299 351 289 328 q 318 397 308 374 q 449 733 390 576 q 521 932 507 889 q 528 957 525 946 q 535 979 532 968 q 536 987 535 983 q 538 994 538 990 q 542 1010 540 1001 q 546 1026 544 1018 l 639 1028 l 639 1028 m 710 485 l 569 849 l 428 485 l 710 485 l 710 485 m 714 1333 l 489 1092 l 614 1399 l 714 1333 l 714 1333 z "},"":{"ha":1171,"x_min":32,"x_max":1136,"o":"m 639 1028 q 644 1008 642 1017 q 650 990 647 999 q 654 972 651 981 q 660 953 657 964 q 717 788 679 893 q 796 571 754 683 q 801 557 799 564 q 807 543 804 550 q 902 290 857 406 q 963 140 947 174 q 971 121 967 129 q 979 103 975 113 q 986 88 982 96 q 994 72 990 81 q 1023 47 1001 58 q 1069 26 1044 36 q 1081 22 1075 25 q 1092 18 1086 19 q 1099 15 1096 17 q 1107 11 1103 13 l 1136 0 l 725 0 l 761 14 q 779 19 769 15 q 800 28 789 24 q 835 44 819 35 q 856 68 851 54 q 856 69 856 68 q 857 71 856 69 q 857 73 857 72 q 857 75 857 74 q 854 93 857 82 q 847 114 851 104 q 844 124 846 119 q 842 132 843 128 q 838 142 840 138 q 835 151 836 147 l 742 413 l 399 413 l 301 153 q 299 147 300 149 q 299 142 299 144 q 294 129 296 136 q 290 115 292 122 q 283 86 286 100 q 281 65 281 72 q 281 63 281 64 q 281 61 281 63 q 302 41 286 49 q 338 26 318 33 q 343 26 340 26 q 347 24 346 25 q 361 19 354 21 q 374 14 368 17 l 411 0 l 32 0 l 63 11 q 84 18 72 14 q 107 26 96 22 q 151 46 131 35 q 179 69 172 57 q 186 83 183 76 q 192 96 189 90 q 196 104 194 100 q 199 114 197 108 q 203 125 201 119 q 208 138 206 131 q 244 219 226 176 q 279 306 261 261 q 299 351 289 328 q 318 397 308 374 q 449 733 390 576 q 521 932 507 889 q 528 957 525 946 q 535 979 532 968 q 536 987 535 983 q 538 994 538 990 q 542 1010 540 1001 q 546 1026 544 1018 l 639 1028 l 639 1028 m 710 485 l 569 849 l 428 485 l 710 485 l 710 485 m 714 1096 l 489 1338 l 589 1403 l 714 1096 l 714 1096 z "},"":{"ha":1167,"x_min":32,"x_max":1136,"o":"m 639 1028 q 644 1008 642 1017 q 650 990 647 999 q 654 972 651 981 q 660 953 657 964 q 717 788 679 893 q 796 571 754 683 q 801 557 799 564 q 807 543 804 550 q 902 290 857 406 q 963 140 947 174 q 971 121 967 129 q 979 103 975 113 q 986 88 982 96 q 994 72 990 81 q 1023 47 1001 58 q 1069 26 1044 36 q 1081 22 1075 25 q 1092 18 1086 19 q 1099 15 1096 17 q 1107 11 1103 13 l 1136 0 l 725 0 l 761 14 q 779 19 769 15 q 800 28 789 24 q 835 44 819 35 q 856 68 851 54 q 856 69 856 68 q 857 71 856 69 q 857 73 857 72 q 857 75 857 74 q 854 93 857 82 q 847 114 851 104 q 844 124 846 119 q 842 132 843 128 q 838 142 840 138 q 835 151 836 147 l 742 413 l 399 413 l 301 153 q 299 147 300 149 q 299 142 299 144 q 294 129 296 136 q 290 115 292 122 q 283 86 286 100 q 281 65 281 72 q 281 63 281 64 q 281 61 281 63 q 302 41 286 49 q 338 26 318 33 q 343 26 340 26 q 347 24 346 25 q 361 19 354 21 q 374 14 368 17 l 411 0 l 32 0 l 63 11 q 84 18 72 14 q 107 26 96 22 q 151 46 131 35 q 179 69 172 57 q 186 83 183 76 q 192 96 189 90 q 196 104 194 100 q 199 114 197 108 q 203 125 201 119 q 208 138 206 131 q 244 219 226 176 q 279 306 261 261 q 299 351 289 328 q 318 397 308 374 q 449 733 390 576 q 521 932 507 889 q 528 957 525 946 q 535 979 532 968 q 536 987 535 983 q 538 994 538 990 q 542 1010 540 1001 q 546 1026 544 1018 l 639 1028 l 639 1028 m 710 485 l 569 849 l 428 485 l 710 485 l 710 485 m 592 1168 l 408 1097 l 592 1297 l 776 1103 l 592 1168 l 592 1168 z "},"":{"ha":1171,"x_min":32,"x_max":1136,"o":"m 639 1028 q 644 1008 642 1017 q 650 990 647 999 q 654 972 651 981 q 660 953 657 964 q 717 788 679 893 q 796 571 754 683 q 801 557 799 564 q 807 543 804 550 q 902 290 857 406 q 963 140 947 174 q 971 121 967 129 q 979 103 975 113 q 986 88 982 96 q 994 72 990 81 q 1023 47 1001 58 q 1069 26 1044 36 q 1081 22 1075 25 q 1092 18 1086 19 q 1099 15 1096 17 q 1107 11 1103 13 l 1136 0 l 725 0 l 761 14 q 779 19 769 15 q 800 28 789 24 q 835 44 819 35 q 856 68 851 54 q 856 69 856 68 q 857 71 856 69 q 857 73 857 72 q 857 75 857 74 q 854 93 857 82 q 847 114 851 104 q 844 124 846 119 q 842 132 843 128 q 838 142 840 138 q 835 151 836 147 l 742 413 l 399 413 l 301 153 q 299 147 300 149 q 299 142 299 144 q 294 129 296 136 q 290 115 292 122 q 283 86 286 100 q 281 65 281 72 q 281 63 281 64 q 281 61 281 63 q 302 41 286 49 q 338 26 318 33 q 343 26 340 26 q 347 24 346 25 q 361 19 354 21 q 374 14 368 17 l 411 0 l 32 0 l 63 11 q 84 18 72 14 q 107 26 96 22 q 151 46 131 35 q 179 69 172 57 q 186 83 183 76 q 192 96 189 90 q 196 104 194 100 q 199 114 197 108 q 203 125 201 119 q 208 138 206 131 q 244 219 226 176 q 279 306 261 261 q 299 351 289 328 q 318 397 308 374 q 449 733 390 576 q 521 932 507 889 q 528 957 525 946 q 535 979 532 968 q 536 987 535 983 q 538 994 538 990 q 542 1010 540 1001 q 546 1026 544 1018 l 639 1028 l 639 1028 m 710 485 l 569 849 l 428 485 l 710 485 l 710 485 m 514 1303 l 575 1099 l 376 1163 l 514 1303 l 514 1303 m 756 1303 l 818 1099 l 619 1163 l 756 1303 l 756 1303 z "},"":{"ha":1167,"x_min":32,"x_max":1136,"o":"m 639 1028 q 644 1008 642 1017 q 650 990 647 999 q 654 972 651 981 q 660 953 657 964 q 717 788 679 893 q 796 571 754 683 q 801 557 799 564 q 807 543 804 550 q 902 290 857 406 q 963 140 947 174 q 971 121 967 129 q 979 103 975 113 q 986 88 982 96 q 994 72 990 81 q 1023 47 1001 58 q 1069 26 1044 36 q 1081 22 1075 25 q 1092 18 1086 19 q 1099 15 1096 17 q 1107 11 1103 13 l 1136 0 l 725 0 l 761 14 q 779 19 769 15 q 800 28 789 24 q 835 44 819 35 q 856 68 851 54 q 856 69 856 68 q 857 71 856 69 q 857 73 857 72 q 857 75 857 74 q 854 93 857 82 q 847 114 851 104 q 844 124 846 119 q 842 132 843 128 q 838 142 840 138 q 835 151 836 147 l 742 413 l 399 413 l 301 153 q 299 147 300 149 q 299 142 299 144 q 294 129 296 136 q 290 115 292 122 q 283 86 286 100 q 281 65 281 72 q 281 63 281 64 q 281 61 281 63 q 302 41 286 49 q 338 26 318 33 q 343 26 340 26 q 347 24 346 25 q 361 19 354 21 q 374 14 368 17 l 411 0 l 32 0 l 63 11 q 84 18 72 14 q 107 26 96 22 q 151 46 131 35 q 179 69 172 57 q 186 83 183 76 q 192 96 189 90 q 196 104 194 100 q 199 114 197 108 q 203 125 201 119 q 208 138 206 131 q 244 219 226 176 q 279 306 261 261 q 299 351 289 328 q 318 397 308 374 q 449 733 390 576 q 521 932 507 889 q 528 957 525 946 q 535 979 532 968 q 536 987 535 983 q 538 994 538 990 q 542 1010 540 1001 q 546 1026 544 1018 l 639 1028 l 639 1028 m 710 485 l 569 849 l 428 485 l 710 485 l 710 485 m 819 1183 q 782 1136 804 1156 q 735 1107 760 1117 q 713 1099 724 1101 q 693 1097 703 1097 q 647 1108 667 1097 q 610 1133 628 1119 q 572 1160 592 1149 q 524 1172 551 1172 q 523 1172 524 1172 q 521 1172 522 1172 q 496 1465 507 1172 q 476 2108 485 1757 q 462 2674 468 2410 q 449 3018 456 2939 q 431 2744 440 3126 q 410 1129 421 2361 l 367 1108 l 392 1153 q 438 1208 408 1182 q 501 1242 468 1233 q 514 1244 508 1243 q 525 1246 519 1246 q 527 1246 526 1246 q 529 1246 528 1246 q 573 1233 554 1246 q 608 1207 592 1221 q 642 1181 624 1193 q 683 1169 660 1169 q 685 1169 685 1169 q 688 1169 686 1169 q 736 1177 718 1172 q 771 1190 754 1182 q 791 1200 781 1194 q 815 1213 801 1206 l 849 1231 l 819 1183 l 819 1183 z "},"":{"ha":1153,"x_min":32,"x_max":1136,"o":"m 639 1028 q 644 1008 642 1017 q 650 990 647 999 q 654 972 651 981 q 660 953 657 964 q 717 788 679 893 q 796 571 754 683 q 801 557 799 564 q 807 543 804 550 q 902 290 857 406 q 963 140 947 174 q 971 121 967 129 q 979 103 975 113 q 986 88 982 96 q 994 72 990 81 q 1023 47 1001 58 q 1069 26 1044 36 q 1081 22 1075 25 q 1092 18 1086 19 q 1099 15 1096 17 q 1107 11 1103 13 l 1136 0 l 725 0 l 761 14 q 779 19 769 15 q 800 28 789 24 q 835 44 819 35 q 856 68 851 54 q 856 69 856 68 q 857 71 856 69 q 857 73 857 72 q 857 75 857 74 q 854 93 857 82 q 847 114 851 104 q 844 124 846 119 q 842 132 843 128 q 838 142 840 138 q 835 151 836 147 l 742 413 l 399 413 l 301 153 q 299 147 300 149 q 299 142 299 144 q 294 129 296 136 q 290 115 292 122 q 283 86 286 100 q 281 65 281 72 q 281 63 281 64 q 281 61 281 63 q 302 41 286 49 q 338 26 318 33 q 343 26 340 26 q 347 24 346 25 q 361 19 354 21 q 374 14 368 17 l 411 0 l 32 0 l 63 11 q 84 18 72 14 q 107 26 96 22 q 151 46 131 35 q 179 69 172 57 q 186 83 183 76 q 192 96 189 90 q 196 104 194 100 q 199 114 197 108 q 203 125 201 119 q 208 138 206 131 q 244 219 226 176 q 279 306 261 261 q 299 351 289 328 q 318 397 308 374 q 449 733 390 576 q 521 932 507 889 q 528 957 525 946 q 535 979 532 968 q 536 987 535 983 q 538 994 538 990 q 542 1010 540 1001 q 546 1026 544 1018 l 639 1028 l 639 1028 m 710 485 l 569 849 l 428 485 l 710 485 l 710 485 m 592 1338 q 679 1303 642 1336 q 717 1219 717 1271 q 717 1219 717 1219 q 717 1219 717 1219 q 717 1218 717 1218 q 717 1218 717 1218 q 680 1131 715 1167 q 593 1094 644 1094 q 510 1128 546 1094 q 472 1210 475 1163 q 472 1210 472 1210 q 472 1213 472 1211 q 472 1215 472 1214 q 472 1215 472 1215 q 508 1300 472 1264 q 592 1336 543 1336 l 592 1338 m 672 1217 q 648 1271 672 1249 q 592 1293 624 1293 q 537 1269 560 1293 q 514 1213 514 1244 q 514 1213 514 1213 q 514 1213 514 1213 q 514 1211 514 1211 q 514 1211 514 1211 q 538 1158 515 1181 q 592 1136 561 1136 q 649 1160 625 1136 q 672 1215 672 1183 l 672 1217 z "},"":{"ha":1061,"x_min":39,"x_max":1018,"o":"m 565 -18 l 510 -6 q 181 155 315 39 q 39 497 46 271 q 39 506 39 501 q 39 515 39 510 q 209 897 39 747 q 606 1057 379 1046 q 648 1059 628 1058 q 686 1058 668 1060 q 747 1056 718 1058 q 803 1050 775 1054 q 855 1041 829 1047 q 908 1026 881 1035 l 947 1017 l 949 740 l 915 825 q 910 837 913 831 q 906 849 908 843 q 883 903 896 878 q 850 943 871 929 q 842 948 847 946 q 831 951 838 950 q 760 969 806 961 q 664 979 714 976 q 645 981 654 981 q 626 981 636 981 q 619 981 622 981 q 613 981 615 981 q 605 979 608 979 q 597 979 601 979 q 285 843 413 971 q 160 517 158 715 q 294 192 161 328 q 626 60 428 57 q 643 60 635 60 q 660 61 651 61 q 810 92 739 67 q 911 153 881 118 q 932 182 922 165 q 951 217 942 199 q 969 251 961 235 q 983 281 976 268 l 1018 347 l 960 51 l 910 35 q 844 10 864 15 q 813 1 825 4 q 808 1 810 1 q 803 0 806 0 q 788 -1 796 0 q 769 -3 781 -1 q 741 -6 754 -6 q 715 -7 728 -7 q 708 -8 713 -8 q 700 -8 704 -8 q 670 -9 686 -8 q 636 -12 654 -10 l 599 -19 l 594 -92 l 611 -86 q 624 -83 618 -85 q 636 -81 631 -81 q 645 -78 640 -79 q 656 -78 650 -78 q 746 -114 708 -78 q 785 -200 783 -150 q 745 -305 785 -264 q 644 -346 706 -346 q 601 -341 621 -346 q 565 -325 581 -336 l 543 -310 l 564 -282 l 583 -297 q 611 -312 596 -308 q 642 -315 626 -315 q 710 -285 682 -315 q 738 -214 738 -254 q 738 -212 738 -212 q 738 -210 738 -211 q 710 -144 736 -171 q 644 -115 683 -117 q 640 -115 643 -115 q 635 -115 638 -115 q 626 -116 631 -115 q 615 -117 621 -117 q 604 -119 610 -118 q 594 -122 599 -121 q 587 -124 590 -124 q 581 -126 583 -125 l 558 -135 l 565 -18 l 565 -18 z "},"":{"ha":822,"x_min":36,"x_max":779,"o":"m 36 1028 l 732 1028 l 731 800 l 711 856 q 706 868 708 861 q 701 881 704 875 q 687 915 694 900 q 663 940 679 929 q 638 951 651 947 q 610 957 624 956 q 594 958 601 957 q 578 958 586 958 l 407 960 q 401 958 404 958 q 394 958 399 958 q 362 957 378 958 q 338 947 346 956 q 331 928 332 942 q 329 900 329 915 q 329 899 329 900 q 329 897 329 899 q 329 894 329 896 q 329 890 329 892 l 329 558 l 526 558 q 543 557 535 557 q 560 557 551 557 q 591 559 576 557 q 618 571 606 561 q 624 576 621 574 q 628 581 626 578 q 638 592 635 586 q 646 606 642 597 l 675 667 l 675 340 l 663 372 q 659 382 661 376 q 656 393 657 388 q 653 398 654 396 q 651 403 653 400 q 635 445 644 425 q 611 474 626 465 q 594 482 603 479 q 578 486 586 485 q 560 488 569 488 q 540 488 551 488 q 537 488 539 488 q 533 488 535 488 l 329 489 l 329 147 q 330 132 329 140 q 332 117 331 124 q 340 90 335 101 q 353 74 344 78 q 373 67 364 68 q 392 65 382 65 q 399 65 396 65 q 407 67 403 65 q 414 67 410 67 q 422 67 418 67 l 650 68 q 658 67 654 67 q 667 67 663 67 q 674 65 669 65 q 682 65 678 65 q 696 67 689 65 q 710 71 703 68 q 728 93 721 76 q 743 131 736 110 q 746 140 744 135 q 749 149 747 144 q 755 165 751 157 q 761 181 758 174 l 779 225 l 772 0 l 36 0 l 68 10 q 94 15 79 11 q 124 24 108 19 q 151 34 138 29 q 176 44 165 39 q 189 51 183 47 q 197 58 194 56 q 207 77 204 67 q 211 99 210 88 q 211 107 211 103 q 211 115 211 111 q 211 128 211 122 q 211 139 211 133 l 211 892 q 211 905 211 897 q 211 918 211 913 q 209 944 211 932 q 197 967 207 956 q 189 974 194 969 q 176 981 183 978 q 151 991 165 986 q 124 1001 138 996 q 94 1010 108 1006 q 68 1017 79 1014 l 36 1028 l 36 1028 m 574 1338 l 347 1096 l 472 1403 l 574 1338 l 574 1338 z "},"":{"ha":822,"x_min":36,"x_max":779,"o":"m 36 1028 l 732 1028 l 731 800 l 711 856 q 706 868 708 861 q 701 881 704 875 q 687 915 694 900 q 663 940 679 929 q 638 951 651 947 q 610 957 624 956 q 594 958 601 957 q 578 958 586 958 l 407 960 q 401 958 404 958 q 394 958 399 958 q 362 957 378 958 q 338 947 346 956 q 331 928 332 942 q 329 900 329 915 q 329 899 329 900 q 329 897 329 899 q 329 894 329 896 q 329 890 329 892 l 329 558 l 526 558 q 543 557 535 557 q 560 557 551 557 q 591 559 576 557 q 618 571 606 561 q 624 576 621 574 q 628 581 626 578 q 638 592 635 586 q 646 606 642 597 l 675 667 l 675 340 l 663 372 q 659 382 661 376 q 656 393 657 388 q 653 398 654 396 q 651 403 653 400 q 635 445 644 425 q 611 474 626 465 q 594 482 603 479 q 578 486 586 485 q 560 488 569 488 q 540 488 551 488 q 537 488 539 488 q 533 488 535 488 l 329 489 l 329 147 q 330 132 329 140 q 332 117 331 124 q 340 90 335 101 q 353 74 344 78 q 373 67 364 68 q 392 65 382 65 q 399 65 396 65 q 407 67 403 65 q 414 67 410 67 q 422 67 418 67 l 650 68 q 658 67 654 67 q 667 67 663 67 q 674 65 669 65 q 682 65 678 65 q 696 67 689 65 q 710 71 703 68 q 728 93 721 76 q 743 131 736 110 q 746 140 744 135 q 749 149 747 144 q 755 165 751 157 q 761 181 758 174 l 779 225 l 772 0 l 36 0 l 68 10 q 94 15 79 11 q 124 24 108 19 q 151 34 138 29 q 176 44 165 39 q 189 51 183 47 q 197 58 194 56 q 207 77 204 67 q 211 99 210 88 q 211 107 211 103 q 211 115 211 111 q 211 128 211 122 q 211 139 211 133 l 211 892 q 211 905 211 897 q 211 918 211 913 q 209 944 211 932 q 197 967 207 956 q 189 974 194 969 q 176 981 183 978 q 151 991 165 986 q 124 1001 138 996 q 94 1010 108 1006 q 68 1017 79 1014 l 36 1028 l 36 1028 m 556 1099 l 329 1340 l 429 1404 l 556 1099 l 556 1099 z "},"":{"ha":831,"x_min":36,"x_max":779,"o":"m 36 1028 l 732 1028 l 731 800 l 711 856 q 706 868 708 861 q 701 881 704 875 q 687 915 694 900 q 663 940 679 929 q 638 951 651 947 q 610 957 624 956 q 594 958 601 957 q 578 958 586 958 l 407 960 q 401 958 404 958 q 394 958 399 958 q 362 957 378 958 q 338 947 346 956 q 331 928 332 942 q 329 900 329 915 q 329 899 329 900 q 329 897 329 899 q 329 894 329 896 q 329 890 329 892 l 329 558 l 526 558 q 543 557 535 557 q 560 557 551 557 q 591 559 576 557 q 618 571 606 561 q 624 576 621 574 q 628 581 626 578 q 638 592 635 586 q 646 606 642 597 l 675 667 l 675 340 l 663 372 q 659 382 661 376 q 656 393 657 388 q 653 398 654 396 q 651 403 653 400 q 635 445 644 425 q 611 474 626 465 q 594 482 603 479 q 578 486 586 485 q 560 488 569 488 q 540 488 551 488 q 537 488 539 488 q 533 488 535 488 l 329 489 l 329 147 q 330 132 329 140 q 332 117 331 124 q 340 90 335 101 q 353 74 344 78 q 373 67 364 68 q 392 65 382 65 q 399 65 396 65 q 407 67 403 65 q 414 67 410 67 q 422 67 418 67 l 650 68 q 658 67 654 67 q 667 67 663 67 q 674 65 669 65 q 682 65 678 65 q 696 67 689 65 q 710 71 703 68 q 728 93 721 76 q 743 131 736 110 q 746 140 744 135 q 749 149 747 144 q 755 165 751 157 q 761 181 758 174 l 779 225 l 772 0 l 36 0 l 68 10 q 94 15 79 11 q 124 24 108 19 q 151 34 138 29 q 176 44 165 39 q 189 51 183 47 q 197 58 194 56 q 207 77 204 67 q 211 99 210 88 q 211 107 211 103 q 211 115 211 111 q 211 128 211 122 q 211 139 211 133 l 211 892 q 211 905 211 897 q 211 918 211 913 q 209 944 211 932 q 197 967 207 956 q 189 974 194 969 q 176 981 183 978 q 151 991 165 986 q 124 1001 138 996 q 94 1010 108 1006 q 68 1017 79 1014 l 36 1028 l 36 1028 m 453 1171 l 269 1100 l 453 1300 l 638 1106 l 453 1171 l 453 1171 z "},"":{"ha":826,"x_min":36,"x_max":779,"o":"m 36 1028 l 732 1028 l 731 800 l 711 856 q 706 868 708 861 q 701 881 704 875 q 687 915 694 900 q 663 940 679 929 q 638 951 651 947 q 610 957 624 956 q 594 958 601 957 q 578 958 586 958 l 407 960 q 401 958 404 958 q 394 958 399 958 q 362 957 378 958 q 338 947 346 956 q 331 928 332 942 q 329 900 329 915 q 329 899 329 900 q 329 897 329 899 q 329 894 329 896 q 329 890 329 892 l 329 558 l 526 558 q 543 557 535 557 q 560 557 551 557 q 591 559 576 557 q 618 571 606 561 q 624 576 621 574 q 628 581 626 578 q 638 592 635 586 q 646 606 642 597 l 675 667 l 675 340 l 663 372 q 659 382 661 376 q 656 393 657 388 q 653 398 654 396 q 651 403 653 400 q 635 445 644 425 q 611 474 626 465 q 594 482 603 479 q 578 486 586 485 q 560 488 569 488 q 540 488 551 488 q 537 488 539 488 q 533 488 535 488 l 329 489 l 329 147 q 330 132 329 140 q 332 117 331 124 q 340 90 335 101 q 353 74 344 78 q 373 67 364 68 q 392 65 382 65 q 399 65 396 65 q 407 67 403 65 q 414 67 410 67 q 422 67 418 67 l 650 68 q 658 67 654 67 q 667 67 663 67 q 674 65 669 65 q 682 65 678 65 q 696 67 689 65 q 710 71 703 68 q 728 93 721 76 q 743 131 736 110 q 746 140 744 135 q 749 149 747 144 q 755 165 751 157 q 761 181 758 174 l 779 225 l 772 0 l 36 0 l 68 10 q 94 15 79 11 q 124 24 108 19 q 151 34 138 29 q 176 44 165 39 q 189 51 183 47 q 197 58 194 56 q 207 77 204 67 q 211 99 210 88 q 211 107 211 103 q 211 115 211 111 q 211 128 211 122 q 211 139 211 133 l 211 892 q 211 905 211 897 q 211 918 211 913 q 209 944 211 932 q 197 967 207 956 q 189 974 194 969 q 176 981 183 978 q 151 991 165 986 q 124 1001 138 996 q 94 1010 108 1006 q 68 1017 79 1014 l 36 1028 l 36 1028 m 347 1303 l 410 1100 l 210 1163 l 347 1303 l 347 1303 m 589 1303 l 651 1100 l 453 1163 l 589 1303 l 589 1303 z "},"":{"ha":542,"x_min":36,"x_max":507,"o":"m 329 892 l 329 135 q 331 94 329 111 q 347 60 333 76 q 377 41 356 49 q 422 28 399 33 q 430 25 426 26 q 438 24 433 24 q 458 17 449 21 q 476 11 468 14 l 507 0 l 36 0 l 68 10 q 94 15 79 11 q 124 24 108 19 q 151 34 138 29 q 176 44 165 39 q 189 51 183 47 q 197 58 194 56 q 205 72 201 65 q 210 85 208 78 q 212 99 211 92 q 213 111 213 106 q 213 119 213 115 q 213 125 213 122 q 211 133 211 129 q 211 139 211 136 l 211 888 q 211 892 211 889 q 213 900 211 896 q 213 907 213 903 q 213 915 213 911 q 212 926 213 921 q 210 936 211 931 q 206 952 208 944 q 197 967 203 960 q 189 974 194 969 q 176 981 183 978 q 151 991 165 986 q 124 1001 138 996 q 94 1010 108 1006 q 68 1017 79 1014 l 36 1028 l 507 1028 l 476 1015 q 457 1007 468 1010 q 433 1001 446 1004 q 428 999 431 1000 q 422 997 425 999 q 377 984 399 992 q 347 967 356 976 q 344 962 346 964 q 340 957 342 960 q 331 926 332 942 q 329 890 329 910 l 329 892 m 381 1339 l 154 1097 l 279 1404 l 381 1339 l 381 1339 z "},"":{"ha":542,"x_min":36,"x_max":507,"o":"m 329 892 l 329 135 q 331 94 329 111 q 347 60 333 76 q 377 41 356 49 q 422 28 399 33 q 430 25 426 26 q 438 24 433 24 q 458 17 449 21 q 476 11 468 14 l 507 0 l 36 0 l 68 10 q 94 15 79 11 q 124 24 108 19 q 151 34 138 29 q 176 44 165 39 q 189 51 183 47 q 197 58 194 56 q 205 72 201 65 q 210 85 208 78 q 212 99 211 92 q 213 111 213 106 q 213 119 213 115 q 213 125 213 122 q 211 133 211 129 q 211 139 211 136 l 211 888 q 211 892 211 889 q 213 900 211 896 q 213 907 213 903 q 213 915 213 911 q 212 926 213 921 q 210 936 211 931 q 206 952 208 944 q 197 967 203 960 q 189 974 194 969 q 176 981 183 978 q 151 991 165 986 q 124 1001 138 996 q 94 1010 108 1006 q 68 1017 79 1014 l 36 1028 l 507 1028 l 476 1015 q 457 1007 468 1010 q 433 1001 446 1004 q 428 999 431 1000 q 422 997 425 999 q 377 984 399 992 q 347 967 356 976 q 344 962 346 964 q 340 957 342 960 q 331 926 332 942 q 329 890 329 910 l 329 892 m 392 1096 l 165 1338 l 265 1403 l 392 1096 l 392 1096 z "},"":{"ha":542,"x_min":36,"x_max":507,"o":"m 329 892 l 329 135 q 331 94 329 111 q 347 60 333 76 q 377 41 356 49 q 422 28 399 33 q 430 25 426 26 q 438 24 433 24 q 458 17 449 21 q 476 11 468 14 l 507 0 l 36 0 l 68 10 q 94 15 79 11 q 124 24 108 19 q 151 34 138 29 q 176 44 165 39 q 189 51 183 47 q 197 58 194 56 q 205 72 201 65 q 210 85 208 78 q 212 99 211 92 q 213 111 213 106 q 213 119 213 115 q 213 125 213 122 q 211 133 211 129 q 211 139 211 136 l 211 888 q 211 892 211 889 q 213 900 211 896 q 213 907 213 903 q 213 915 213 911 q 212 926 213 921 q 210 936 211 931 q 206 952 208 944 q 197 967 203 960 q 189 974 194 969 q 176 981 183 978 q 151 991 165 986 q 124 1001 138 996 q 94 1010 108 1006 q 68 1017 79 1014 l 36 1028 l 507 1028 l 476 1015 q 457 1007 468 1010 q 433 1001 446 1004 q 428 999 431 1000 q 422 997 425 999 q 377 984 399 992 q 347 967 356 976 q 344 962 346 964 q 340 957 342 960 q 331 926 332 942 q 329 890 329 910 l 329 892 m 265 1167 l 82 1096 l 265 1296 l 450 1101 l 265 1167 l 265 1167 z "},"":{"ha":542,"x_min":36,"x_max":507,"o":"m 329 892 l 329 135 q 331 94 329 111 q 347 60 333 76 q 377 41 356 49 q 422 28 399 33 q 430 25 426 26 q 438 24 433 24 q 458 17 449 21 q 476 11 468 14 l 507 0 l 36 0 l 68 10 q 94 15 79 11 q 124 24 108 19 q 151 34 138 29 q 176 44 165 39 q 189 51 183 47 q 197 58 194 56 q 205 72 201 65 q 210 85 208 78 q 212 99 211 92 q 213 111 213 106 q 213 119 213 115 q 213 125 213 122 q 211 133 211 129 q 211 139 211 136 l 211 888 q 211 892 211 889 q 213 900 211 896 q 213 907 213 903 q 213 915 213 911 q 212 926 213 921 q 210 936 211 931 q 206 952 208 944 q 197 967 203 960 q 189 974 194 969 q 176 981 183 978 q 151 991 165 986 q 124 1001 138 996 q 94 1010 108 1006 q 68 1017 79 1014 l 36 1028 l 507 1028 l 476 1015 q 457 1007 468 1010 q 433 1001 446 1004 q 428 999 431 1000 q 422 997 425 999 q 377 984 399 992 q 347 967 356 976 q 344 962 346 964 q 340 957 342 960 q 331 926 332 942 q 329 890 329 910 l 329 892 m 192 1300 l 254 1097 l 56 1160 l 192 1300 l 192 1300 m 435 1300 l 497 1097 l 297 1160 l 435 1300 l 435 1300 z "},"":{"ha":1293,"x_min":36,"x_max":1276,"o":"m 1068 -3 q 930 151 960 118 q 886 199 900 183 q 867 218 878 207 q 829 257 856 229 q 771 318 800 288 q 711 381 742 349 q 699 394 706 388 q 686 407 692 400 q 428 672 550 549 q 253 846 306 794 l 253 246 q 253 233 253 240 q 253 217 253 225 q 251 198 251 208 q 251 176 251 188 q 251 160 251 168 q 251 143 251 151 q 256 99 253 121 q 267 63 260 76 q 294 39 274 49 q 336 21 314 29 q 349 16 343 18 q 360 13 354 14 l 399 0 l 36 0 l 60 11 q 73 15 67 13 q 86 21 79 18 q 131 42 110 31 q 161 68 153 53 q 170 112 168 81 q 174 179 172 143 q 174 213 174 196 q 174 243 174 229 l 174 1028 l 254 1028 q 290 981 269 1008 q 346 918 311 954 q 474 786 404 858 q 617 639 544 714 q 892 351 764 485 q 1050 192 1021 218 l 1050 783 q 1050 805 1050 793 q 1050 829 1050 817 q 1050 853 1050 842 q 1050 876 1050 865 q 1049 927 1050 904 q 1042 960 1047 950 q 1015 983 1035 974 q 972 1001 994 993 q 968 1003 969 1003 q 965 1004 967 1004 q 951 1010 958 1007 q 938 1015 944 1013 l 914 1028 l 1276 1028 l 1238 1011 q 1230 1007 1233 1008 q 1222 1004 1226 1006 q 1183 985 1200 994 q 1151 963 1165 976 q 1141 930 1144 956 q 1136 875 1138 904 q 1135 842 1135 858 q 1135 814 1135 826 q 1135 792 1135 800 q 1135 785 1135 785 l 1135 -3 l 1068 -3 l 1068 -3 m 879 1181 q 844 1135 865 1154 q 799 1106 822 1117 q 776 1097 788 1100 q 753 1094 764 1094 q 705 1106 725 1094 q 667 1133 685 1118 q 629 1158 649 1147 q 583 1169 610 1169 q 583 1169 583 1169 q 581 1169 582 1169 q 538 1163 554 1168 q 507 1149 522 1157 q 489 1138 499 1143 q 468 1126 479 1132 l 425 1106 l 450 1150 q 501 1208 468 1181 q 571 1242 535 1235 q 578 1242 575 1242 q 585 1243 582 1243 q 587 1243 586 1243 q 589 1243 588 1243 q 632 1231 614 1243 q 667 1206 650 1219 q 667 1204 667 1204 q 668 1203 668 1204 q 701 1178 685 1189 q 742 1167 718 1167 q 744 1167 743 1167 q 746 1167 744 1167 q 797 1174 778 1169 q 831 1188 815 1179 q 851 1197 840 1192 q 875 1210 861 1203 l 907 1228 l 879 1181 l 879 1181 z "},"":{"ha":1171,"x_min":39,"x_max":1135,"o":"m 563 1047 q 569 1046 565 1046 q 576 1046 572 1046 q 583 1046 579 1046 q 589 1046 586 1046 q 967 903 807 1046 q 1132 518 1126 760 q 964 128 1135 275 q 561 -15 793 -18 q 191 141 343 -14 q 39 518 39 296 q 193 886 39 735 q 563 1046 347 1038 l 563 1047 m 561 969 q 262 830 372 963 q 153 521 151 697 q 272 211 156 351 q 569 60 389 71 q 577 60 574 60 q 583 60 581 60 q 590 58 586 58 q 597 58 593 58 q 892 180 767 58 q 1017 493 1017 301 q 890 825 1017 681 q 576 968 763 969 q 573 968 575 968 q 569 968 571 968 q 565 968 567 968 q 561 968 564 968 l 561 969 m 703 1338 l 476 1096 l 603 1403 l 703 1338 l 703 1338 z "},"":{"ha":1185,"x_min":39,"x_max":1135,"o":"m 563 1047 q 569 1046 565 1046 q 576 1046 572 1046 q 583 1046 579 1046 q 589 1046 586 1046 q 967 903 807 1046 q 1132 518 1126 760 q 964 128 1135 275 q 561 -15 793 -18 q 191 141 343 -14 q 39 518 39 296 q 193 886 39 735 q 563 1046 347 1038 l 563 1047 m 561 969 q 262 830 372 963 q 153 521 151 697 q 272 211 156 351 q 569 60 389 71 q 577 60 574 60 q 583 60 581 60 q 590 58 586 58 q 597 58 593 58 q 892 180 767 58 q 1017 493 1017 301 q 890 825 1017 681 q 576 968 763 969 q 573 968 575 968 q 569 968 571 968 q 565 968 567 968 q 561 968 564 968 l 561 969 m 699 1099 l 472 1340 l 574 1404 l 699 1099 l 699 1099 z "},"":{"ha":1190,"x_min":39,"x_max":1135,"o":"m 563 1047 q 569 1046 565 1046 q 576 1046 572 1046 q 583 1046 579 1046 q 589 1046 586 1046 q 967 903 807 1046 q 1132 518 1126 760 q 964 128 1135 275 q 561 -15 793 -18 q 191 141 343 -14 q 39 518 39 296 q 193 886 39 735 q 563 1046 347 1038 l 563 1047 m 561 969 q 262 830 372 963 q 153 521 151 697 q 272 211 156 351 q 569 60 389 71 q 577 60 574 60 q 583 60 581 60 q 590 58 586 58 q 597 58 593 58 q 892 180 767 58 q 1017 493 1017 301 q 890 825 1017 681 q 576 968 763 969 q 573 968 575 968 q 569 968 571 968 q 565 968 567 968 q 561 968 564 968 l 561 969 m 589 1169 l 406 1099 l 589 1299 l 775 1104 l 589 1169 l 589 1169 z "},"":{"ha":1181,"x_min":39,"x_max":1135,"o":"m 563 1047 q 569 1046 565 1046 q 576 1046 572 1046 q 583 1046 579 1046 q 589 1046 586 1046 q 967 903 807 1046 q 1132 518 1126 760 q 964 128 1135 275 q 561 -15 793 -18 q 191 141 343 -14 q 39 518 39 296 q 193 886 39 735 q 563 1046 347 1038 l 563 1047 m 561 969 q 262 830 372 963 q 153 521 151 697 q 272 211 156 351 q 569 60 389 71 q 577 60 574 60 q 583 60 581 60 q 590 58 586 58 q 597 58 593 58 q 892 180 767 58 q 1017 493 1017 301 q 890 825 1017 681 q 576 968 763 969 q 573 968 575 968 q 569 968 571 968 q 565 968 567 968 q 561 968 564 968 l 561 969 m 500 1299 l 563 1096 l 363 1158 l 500 1299 l 500 1299 m 742 1299 l 804 1096 l 606 1158 l 742 1299 l 742 1299 z "},"":{"ha":1175,"x_min":39,"x_max":1135,"o":"m 563 1047 q 569 1046 565 1046 q 576 1046 572 1046 q 583 1046 579 1046 q 589 1046 586 1046 q 967 903 807 1046 q 1132 518 1126 760 q 964 128 1135 275 q 561 -15 793 -18 q 191 141 343 -14 q 39 518 39 296 q 193 886 39 735 q 563 1046 347 1038 l 563 1047 m 561 969 q 262 830 372 963 q 153 521 151 697 q 272 211 156 351 q 569 60 389 71 q 577 60 574 60 q 583 60 581 60 q 590 58 586 58 q 597 58 593 58 q 892 180 767 58 q 1017 493 1017 301 q 890 825 1017 681 q 576 968 763 969 q 573 968 575 968 q 569 968 571 968 q 565 968 567 968 q 561 968 564 968 l 561 969 m 826 1185 q 789 1138 811 1157 q 742 1107 767 1118 q 720 1101 731 1103 q 700 1099 710 1099 q 652 1110 672 1099 q 613 1138 632 1122 q 575 1163 594 1151 q 529 1174 556 1174 q 529 1174 529 1174 q 529 1174 529 1174 q 528 1174 528 1174 q 528 1174 528 1174 q 485 1167 501 1172 q 456 1153 469 1161 q 438 1142 447 1149 q 417 1131 428 1136 l 372 1108 l 397 1154 q 444 1208 414 1183 q 508 1242 475 1233 q 520 1245 514 1244 q 532 1246 526 1246 q 534 1246 533 1246 q 536 1246 535 1246 q 578 1234 561 1246 q 613 1208 596 1222 q 614 1208 614 1208 q 615 1207 614 1207 q 648 1182 631 1193 q 688 1171 665 1171 q 690 1171 689 1171 q 692 1171 690 1171 q 692 1171 692 1171 q 694 1171 693 1171 q 743 1178 725 1172 q 778 1192 761 1183 q 798 1201 788 1196 q 822 1214 808 1207 l 856 1231 l 826 1185 l 826 1185 z "},"":{"ha":1240,"x_min":36,"x_max":1185,"o":"m 1008 843 l 1008 410 q 885 77 1008 169 q 603 -14 761 -15 q 331 82 451 -12 q 211 392 211 176 l 211 894 q 211 899 211 896 q 213 907 211 903 q 213 914 213 910 q 213 922 213 918 q 212 933 213 928 q 210 943 211 938 q 206 959 208 951 q 197 974 203 967 q 190 980 194 976 q 179 986 186 983 q 153 997 168 992 q 124 1007 139 1003 q 94 1017 108 1013 q 68 1024 79 1021 l 36 1035 l 507 1035 l 476 1022 q 458 1015 468 1018 q 438 1008 449 1011 q 430 1007 433 1008 q 422 1004 426 1006 q 377 991 399 999 q 347 972 356 983 q 331 938 333 956 q 329 897 329 921 l 329 388 q 405 149 329 221 q 599 58 481 76 q 619 56 610 57 q 639 56 629 56 q 842 140 754 56 q 929 369 929 225 l 929 889 q 929 890 929 889 q 929 892 929 890 q 929 912 929 901 q 926 933 929 922 q 922 950 925 942 q 913 967 918 958 q 904 973 910 969 q 890 981 899 976 q 867 990 881 985 q 840 1000 854 994 q 809 1010 824 1004 q 783 1019 794 1015 l 751 1035 l 1185 1035 l 1157 1019 q 1131 1008 1146 1013 q 1101 999 1117 1004 q 1056 984 1078 992 q 1028 967 1035 976 q 1019 942 1022 960 q 1013 904 1015 925 q 1009 867 1010 885 q 1008 842 1008 849 l 1008 843 m 742 1342 l 515 1100 l 640 1407 l 742 1342 l 742 1342 z "},"":{"ha":1228,"x_min":36,"x_max":1185,"o":"m 1008 838 l 1008 403 q 885 70 1008 163 q 603 -21 761 -22 q 331 75 451 -19 q 211 385 211 169 l 211 888 q 211 892 211 889 q 213 900 211 896 q 213 907 213 903 q 213 915 213 911 q 212 926 213 921 q 210 936 211 931 q 206 952 208 944 q 197 967 203 960 q 189 974 194 969 q 176 981 183 978 q 151 991 165 986 q 124 1001 138 996 q 94 1010 108 1006 q 68 1017 79 1014 l 36 1028 l 507 1028 l 476 1015 q 457 1007 468 1010 q 433 1001 446 1004 q 428 999 431 1000 q 422 997 425 999 q 377 984 399 992 q 347 967 356 976 q 344 962 346 964 q 340 957 342 960 q 331 926 332 942 q 329 890 329 910 l 329 381 q 405 142 329 214 q 599 51 481 69 q 619 49 610 50 q 639 49 629 49 q 842 134 754 49 q 929 363 929 219 l 929 882 q 929 883 929 882 q 929 885 929 883 q 929 905 929 894 q 926 926 929 915 q 922 943 925 935 q 913 960 918 951 q 904 966 910 963 q 890 974 899 969 q 867 983 881 978 q 840 993 854 988 q 809 1003 824 997 q 783 1013 794 1008 l 751 1028 l 1185 1028 l 1157 1013 q 1131 1001 1146 1006 q 1101 992 1117 997 q 1056 977 1078 985 q 1028 960 1035 969 q 1019 935 1022 953 q 1013 899 1015 918 q 1009 860 1010 878 q 1008 836 1008 843 l 1008 838 m 724 1099 l 497 1342 l 599 1406 l 724 1099 l 724 1099 z "},"":{"ha":1240,"x_min":36,"x_max":1185,"o":"m 1008 838 l 1008 403 q 885 70 1008 163 q 603 -21 761 -22 q 331 75 451 -19 q 211 385 211 169 l 211 888 q 211 892 211 889 q 213 900 211 896 q 213 907 213 903 q 213 915 213 911 q 212 926 213 921 q 210 936 211 931 q 206 952 208 944 q 197 967 203 960 q 189 974 194 969 q 176 981 183 978 q 151 991 165 986 q 124 1001 138 996 q 94 1010 108 1006 q 68 1017 79 1014 l 36 1028 l 507 1028 l 476 1015 q 457 1007 468 1010 q 433 1001 446 1004 q 428 999 431 1000 q 422 997 425 999 q 377 984 399 992 q 347 967 356 976 q 344 962 346 964 q 340 957 342 960 q 331 926 332 942 q 329 890 329 910 l 329 381 q 405 142 329 214 q 599 51 481 69 q 619 49 610 50 q 639 49 629 49 q 842 134 754 49 q 929 363 929 219 l 929 882 q 929 883 929 882 q 929 885 929 883 q 929 905 929 894 q 926 926 929 915 q 922 943 925 935 q 913 960 918 951 q 904 966 910 963 q 890 974 899 969 q 867 983 881 978 q 840 993 854 988 q 809 1003 824 997 q 783 1013 794 1008 l 751 1028 l 1185 1028 l 1157 1013 q 1131 1001 1146 1006 q 1101 992 1117 997 q 1056 977 1078 985 q 1028 960 1035 969 q 1019 935 1022 953 q 1013 899 1015 918 q 1009 860 1010 878 q 1008 836 1008 843 l 1008 838 m 621 1168 l 438 1097 l 621 1297 l 807 1103 l 621 1168 l 621 1168 z "},"":{"ha":1246,"x_min":36,"x_max":1185,"o":"m 1008 838 l 1008 403 q 885 70 1008 163 q 603 -21 761 -22 q 331 75 451 -19 q 211 385 211 169 l 211 888 q 211 892 211 889 q 213 900 211 896 q 213 907 213 903 q 213 915 213 911 q 212 926 213 921 q 210 936 211 931 q 206 952 208 944 q 197 967 203 960 q 189 974 194 969 q 176 981 183 978 q 151 991 165 986 q 124 1001 138 996 q 94 1010 108 1006 q 68 1017 79 1014 l 36 1028 l 507 1028 l 476 1015 q 457 1007 468 1010 q 433 1001 446 1004 q 428 999 431 1000 q 422 997 425 999 q 377 984 399 992 q 347 967 356 976 q 344 962 346 964 q 340 957 342 960 q 331 926 332 942 q 329 890 329 910 l 329 381 q 405 142 329 214 q 599 51 481 69 q 619 49 610 50 q 639 49 629 49 q 842 134 754 49 q 929 363 929 219 l 929 882 q 929 883 929 882 q 929 885 929 883 q 929 905 929 894 q 926 926 929 915 q 922 943 925 935 q 913 960 918 951 q 904 966 910 963 q 890 974 899 969 q 867 983 881 978 q 840 993 854 988 q 809 1003 824 997 q 783 1013 794 1008 l 751 1028 l 1185 1028 l 1157 1013 q 1131 1001 1146 1006 q 1101 992 1117 997 q 1056 977 1078 985 q 1028 960 1035 969 q 1019 935 1022 953 q 1013 899 1015 918 q 1009 860 1010 878 q 1008 836 1008 843 l 1008 838 m 547 1301 l 610 1099 l 411 1161 l 547 1301 l 547 1301 m 790 1301 l 851 1099 l 653 1161 l 790 1301 l 790 1301 z "},"":{"ha":711,"x_min":40,"x_max":669,"o":"m 410 3 q 392 1 404 1 q 367 1 379 1 q 361 1 364 1 q 356 1 358 1 q 349 1 353 1 q 343 1 346 1 q 318 1 329 1 q 301 1 307 1 l 289 3 l 290 19 q 292 69 290 25 q 296 171 294 113 q 297 196 297 183 q 299 219 297 208 q 300 274 299 247 q 301 325 301 301 q 301 391 301 361 q 301 449 301 421 q 301 469 301 460 q 301 490 301 479 q 301 531 301 510 q 301 578 301 553 l 301 594 l 292 594 q 265 592 289 593 q 213 590 240 592 q 192 590 201 590 q 174 589 182 589 q 153 588 164 589 q 132 586 143 588 q 117 585 125 586 q 101 585 108 585 q 65 581 81 582 q 47 579 50 579 l 40 581 l 40 586 q 40 587 40 586 q 40 588 40 588 q 41 592 40 590 q 42 599 42 594 q 42 613 42 604 q 43 636 43 621 q 43 639 43 638 q 43 642 43 640 q 43 643 43 642 q 43 646 43 644 q 43 649 43 647 q 43 651 43 650 q 42 663 43 657 q 42 672 42 668 q 41 683 42 678 q 40 690 40 688 l 40 696 l 47 696 q 62 693 51 694 q 88 690 72 692 q 122 686 103 688 q 163 685 140 685 q 165 685 164 685 q 168 685 167 685 q 169 685 168 685 q 172 685 171 685 q 190 685 181 685 q 210 685 200 685 q 261 685 238 685 q 290 685 285 685 l 299 686 l 299 706 q 298 738 299 711 q 296 793 297 764 q 295 813 296 803 q 294 831 294 822 q 294 857 294 843 q 292 885 293 871 q 290 908 290 896 q 289 929 289 919 q 284 982 286 960 q 282 1011 282 1004 l 281 1028 l 290 1026 q 314 1024 299 1024 q 347 1024 329 1024 q 353 1024 350 1024 q 358 1024 356 1024 q 367 1024 363 1024 q 376 1024 372 1024 q 402 1024 390 1024 q 419 1025 414 1024 l 428 1028 l 428 1013 q 426 981 428 1006 q 421 926 424 957 q 419 906 419 917 q 417 886 418 896 q 415 858 417 872 q 414 831 414 843 q 413 813 414 822 q 413 793 413 803 q 410 738 411 764 q 410 704 410 711 l 410 686 l 419 686 q 449 685 425 685 q 503 685 474 685 q 520 685 511 685 q 538 685 529 685 q 540 685 539 685 q 543 685 542 685 q 546 685 544 685 q 549 685 547 685 q 589 686 569 685 q 622 690 608 688 q 647 693 638 692 q 661 694 657 694 l 669 696 l 669 692 q 669 681 669 688 q 668 668 668 675 q 667 659 667 664 q 665 649 667 654 q 665 642 665 646 q 665 636 665 639 q 666 613 665 621 q 668 599 667 604 q 669 592 668 594 q 669 588 669 590 q 669 587 669 588 q 669 585 669 586 l 669 581 l 661 581 q 643 581 658 579 q 607 585 628 582 q 592 585 600 585 q 576 586 583 586 q 555 588 565 588 q 535 589 544 589 q 517 590 526 589 q 496 590 507 590 q 444 592 468 592 q 417 593 419 593 l 408 594 l 408 579 q 408 531 408 553 q 408 490 408 510 q 408 469 408 479 q 408 449 408 460 q 408 391 408 421 q 408 325 408 361 q 409 274 408 301 q 411 219 410 247 q 412 176 411 197 q 414 133 413 154 q 417 56 415 88 q 419 18 419 24 l 419 3 l 410 3 l 410 3 z "},"":{"ha":650,"x_min":42,"x_max":607,"o":"m 397 910 q 415 910 407 910 q 429 910 422 910 q 443 909 436 910 q 456 908 450 908 q 474 906 465 907 q 493 903 483 904 q 514 899 504 901 q 532 894 524 897 q 549 890 540 893 q 567 885 557 888 l 563 718 l 533 774 q 531 777 532 775 q 528 781 529 779 q 508 805 518 797 q 483 819 497 813 q 476 822 479 821 q 468 825 472 824 q 451 832 460 829 q 436 836 443 835 q 425 837 431 836 q 413 838 419 838 q 410 838 411 838 q 407 838 408 838 q 404 838 406 838 q 401 838 403 838 l 401 336 q 441 338 424 335 q 475 349 458 342 q 497 358 486 353 q 518 371 507 364 q 523 374 521 372 q 526 376 525 375 q 548 396 539 386 q 565 417 557 406 q 573 428 569 422 q 581 439 576 433 l 607 481 l 578 306 q 554 294 565 299 q 532 288 543 290 q 504 280 518 283 q 474 274 490 276 q 456 272 464 272 q 440 269 449 271 q 424 269 432 269 q 407 268 417 268 l 407 164 l 333 164 l 333 264 l 286 278 q 110 389 178 306 q 42 586 42 472 q 115 784 43 701 q 286 893 188 867 l 325 906 l 325 1004 l 397 1004 l 397 910 l 397 910 m 329 829 l 296 819 q 194 739 236 803 q 153 594 151 675 q 153 590 153 593 q 153 586 153 588 q 153 581 153 583 q 153 576 153 579 q 199 435 158 499 q 286 354 239 372 q 292 352 289 353 q 299 350 296 351 l 329 343 l 329 829 l 329 829 z "},"":{"ha":785,"x_min":25,"x_max":743,"o":"m 397 1019 q 403 1018 400 1018 q 408 1018 406 1018 q 414 1018 411 1018 q 419 1018 417 1018 q 525 1005 475 1018 q 610 976 575 992 q 620 972 615 974 q 629 967 625 969 l 681 940 l 665 717 l 639 815 q 562 913 621 883 q 433 942 503 942 q 422 942 428 942 q 411 940 417 942 q 400 940 406 940 q 389 939 394 939 q 275 891 328 931 q 196 806 222 851 q 182 773 188 789 q 176 742 176 757 q 182 668 176 701 q 200 606 188 635 l 268 451 l 461 451 l 461 379 l 294 379 q 299 340 297 358 q 301 304 301 322 q 300 272 301 289 q 294 236 299 256 q 294 230 294 233 q 292 224 293 226 q 281 183 288 203 q 267 147 274 164 q 255 119 261 132 q 244 97 249 106 l 603 99 q 615 98 610 97 q 625 100 619 99 q 636 102 631 100 q 647 106 642 104 q 663 119 654 107 q 681 149 672 131 q 690 165 686 156 q 699 182 694 174 q 714 217 707 200 q 726 246 721 235 l 743 285 l 724 0 l 25 0 l 67 40 q 91 61 79 50 q 113 83 103 72 q 181 169 154 125 q 210 272 208 214 q 207 310 210 294 q 199 342 204 326 q 192 359 196 350 q 183 378 189 368 l 35 379 l 35 451 l 147 451 l 118 508 q 115 513 117 510 q 113 519 114 515 q 109 525 111 522 q 106 532 107 528 q 70 612 86 571 q 54 703 54 653 q 54 717 54 710 q 56 732 54 725 q 169 936 69 860 q 397 1018 268 1013 l 397 1019 z "},"":{"ha":713,"x_min":39,"x_max":656,"o":"m 135 585 l 150 599 l 136 608 q 94 658 111 625 q 75 726 78 690 q 75 730 75 728 q 75 733 75 732 q 75 736 75 735 q 75 739 75 738 q 75 742 75 740 q 75 744 75 743 q 75 755 75 750 q 76 764 75 760 q 160 951 83 865 q 364 1042 236 1036 q 370 1042 367 1042 q 376 1042 374 1042 q 424 1040 401 1042 q 463 1035 447 1038 q 474 1033 469 1033 q 482 1031 479 1032 q 498 1026 486 1029 q 524 1018 510 1022 q 551 1009 539 1013 q 567 1004 563 1006 l 582 1000 l 581 992 q 578 970 581 988 q 575 931 576 953 q 575 926 575 928 q 575 921 575 924 q 573 904 574 913 q 572 889 572 896 q 572 876 572 883 q 569 863 571 869 q 569 863 569 863 q 569 861 569 863 q 567 825 568 842 q 565 804 565 808 l 567 790 l 524 792 l 514 907 l 508 913 q 476 938 496 926 q 433 956 456 950 q 383 969 408 964 q 335 974 358 974 q 218 939 269 974 q 153 828 167 904 q 151 819 151 824 q 151 811 151 815 q 184 736 151 767 q 257 686 217 706 q 315 663 288 671 q 354 650 342 654 l 376 646 l 397 638 q 453 619 419 628 q 521 596 486 610 q 526 594 524 594 q 531 592 528 593 q 626 518 599 563 q 656 426 654 474 q 656 422 656 424 q 656 417 656 419 q 656 408 656 413 q 656 400 656 404 q 640 335 654 364 q 608 285 625 306 q 592 267 600 275 q 578 253 585 258 l 549 228 l 556 224 q 615 163 593 199 q 638 76 638 128 q 638 74 638 75 q 638 69 638 72 q 636 55 638 63 q 633 39 635 47 q 526 -133 615 -53 q 332 -231 436 -212 q 315 -233 324 -232 q 299 -235 307 -235 q 295 -235 297 -235 q 292 -235 293 -235 q 288 -235 290 -235 q 285 -235 286 -235 q 192 -222 238 -235 q 115 -194 147 -210 q 95 -185 104 -190 q 79 -176 86 -181 l 68 -171 l 86 43 l 128 43 l 128 -31 q 156 -94 128 -65 q 217 -139 183 -122 q 245 -150 231 -146 q 271 -156 260 -154 q 301 -158 286 -158 q 329 -158 315 -158 q 485 -118 424 -158 q 546 19 546 -78 q 546 22 546 21 q 546 24 546 22 q 522 85 546 60 q 449 133 497 111 q 368 167 415 150 q 261 204 321 183 l 208 224 q 126 260 158 240 q 78 299 94 279 q 47 351 53 325 q 39 397 42 376 q 39 399 39 399 q 39 400 39 400 q 39 406 39 403 q 39 413 39 410 q 59 489 39 454 q 103 550 79 524 q 119 568 111 560 q 135 583 128 576 l 135 585 m 528 263 q 538 276 533 269 q 546 292 542 283 q 555 313 551 301 q 560 338 558 325 q 562 351 561 344 q 563 364 563 357 q 560 387 563 375 q 553 410 558 399 q 518 458 543 435 q 446 496 493 481 l 190 579 l 168 556 q 140 507 147 532 q 133 451 133 482 q 133 447 133 450 q 133 440 133 443 q 213 351 136 388 q 383 286 290 315 q 427 272 406 279 q 469 258 449 265 q 477 256 474 257 q 483 254 481 256 l 515 244 l 528 263 l 528 263 z "},"":{"ha":879,"x_min":42,"x_max":836,"o":"m 733 989 q 706 965 717 982 q 694 908 694 947 l 694 897 l 694 -44 l 694 -64 q 700 -87 694 -78 q 715 -103 706 -97 q 731 -110 722 -107 q 747 -115 739 -112 q 776 -119 763 -118 q 800 -121 790 -121 l 828 -122 l 828 -161 l 803 -161 q 772 -160 799 -161 q 707 -160 746 -160 q 669 -158 689 -158 q 629 -158 649 -158 q 585 -157 607 -157 q 544 -157 564 -157 q 503 -157 525 -157 q 458 -157 481 -157 q 416 -158 438 -158 q 375 -160 394 -158 q 306 -160 335 -160 q 271 -161 278 -161 l 249 -161 l 249 -121 l 282 -118 q 287 -118 285 -118 q 293 -118 289 -118 q 309 -117 300 -118 q 326 -115 318 -117 q 349 -109 338 -114 q 367 -96 360 -104 q 383 -70 378 -83 q 388 -39 388 -57 l 386 544 l 371 544 q 300 558 357 544 q 176 606 243 571 q 81 699 121 636 q 42 832 42 761 q 45 870 42 851 q 56 907 49 889 q 163 1020 88 990 q 328 1049 239 1050 l 350 1049 q 381 1046 356 1047 q 444 1043 407 1044 q 482 1041 463 1042 q 522 1039 501 1040 q 562 1038 542 1039 q 600 1038 582 1038 q 632 1038 615 1038 q 667 1038 649 1038 q 715 1040 692 1039 q 760 1040 739 1040 q 798 1042 782 1042 q 818 1043 814 1043 l 836 1044 l 836 1001 l 819 1001 q 801 999 814 1000 q 771 996 788 997 q 751 992 761 994 q 733 988 740 990 l 733 989 m 589 990 l 496 989 l 497 -104 l 588 -104 l 589 990 l 589 990 m 388 600 l 388 990 l 364 992 q 362 990 363 990 q 358 990 361 990 q 327 985 347 990 q 286 968 307 981 q 232 913 257 950 q 203 813 207 876 q 203 807 203 810 q 203 801 203 804 q 251 672 203 729 q 375 601 299 615 l 388 600 l 388 600 z "},"":{"ha":875,"x_min":36,"x_max":839,"o":"m 329 135 q 329 132 329 133 q 329 128 329 131 q 330 110 329 122 q 332 85 331 97 q 335 68 333 76 q 340 53 338 60 q 344 44 343 49 q 349 36 346 40 q 363 19 354 25 q 386 7 371 13 l 411 0 l 36 0 l 68 10 q 94 15 79 11 q 124 24 108 19 q 151 34 138 29 q 176 44 165 39 q 189 51 183 47 q 197 58 194 56 q 202 67 200 63 q 207 75 204 71 q 210 92 210 83 q 211 108 211 100 q 211 120 211 114 q 211 133 211 126 l 211 892 q 209 925 211 910 q 196 954 207 940 q 166 974 188 965 q 119 992 144 983 q 90 1002 104 997 q 64 1013 75 1007 l 36 1028 l 289 1028 q 324 1026 307 1026 q 358 1026 342 1026 q 364 1027 361 1026 q 369 1028 367 1028 q 432 1028 400 1028 q 503 1026 464 1028 q 680 964 603 1022 q 763 799 757 906 q 763 795 763 797 q 763 792 763 793 q 763 788 763 790 q 763 785 763 786 q 722 656 763 710 q 613 565 681 601 l 569 543 l 650 517 q 781 431 732 489 q 838 288 831 374 q 838 281 838 285 q 839 275 838 278 q 839 269 839 272 q 839 263 839 265 q 783 92 838 168 q 618 11 728 15 q 616 11 617 11 q 614 11 615 11 q 610 11 613 11 q 607 11 608 11 q 574 19 589 13 q 549 36 558 26 l 526 60 l 586 68 q 597 67 593 67 q 604 68 601 68 q 610 69 607 68 q 614 69 613 69 q 625 72 619 69 q 640 78 631 74 q 701 144 681 94 q 722 251 722 194 q 721 280 722 267 q 717 307 719 293 q 633 432 700 394 q 483 497 567 469 q 472 501 478 499 q 458 506 465 503 l 426 532 l 451 556 q 460 560 456 557 q 469 565 465 563 q 500 581 485 574 q 531 597 515 589 q 621 660 583 625 q 658 760 658 694 q 658 772 658 765 q 657 783 658 778 q 590 921 647 886 q 465 958 533 956 q 457 958 461 958 q 447 958 453 958 q 434 958 440 958 q 421 958 428 958 q 376 954 397 957 q 346 947 354 951 q 331 925 333 939 q 329 894 329 911 q 329 893 329 894 q 329 890 329 892 l 329 497 l 329 135 l 329 135 z "},"":{"ha":1115,"x_min":49,"x_max":1064,"o":"m 556 1017 q 937 856 810 1015 q 1064 506 1064 697 q 1064 503 1064 504 q 1064 501 1064 503 q 935 156 1063 313 q 556 0 808 0 q 175 158 301 0 q 49 508 49 317 q 49 510 49 510 q 49 513 49 511 q 177 858 50 701 q 556 1015 304 1015 l 556 1017 m 556 54 q 895 194 782 53 q 1010 503 1008 335 q 1010 505 1010 504 q 1010 507 1010 506 q 897 818 1010 676 q 556 960 783 960 q 216 819 329 960 q 103 510 103 678 q 103 508 103 508 q 103 506 103 507 q 216 194 103 336 q 556 53 329 53 l 556 54 m 499 515 l 503 529 l 531 528 q 535 526 533 526 q 539 526 538 526 q 542 526 540 526 q 547 526 544 526 q 639 561 597 529 q 681 642 681 593 q 681 644 681 643 q 681 646 681 644 q 681 647 681 646 q 681 649 681 647 q 656 717 676 689 q 589 751 636 746 q 572 753 581 753 q 553 754 563 754 q 528 753 540 754 q 506 750 515 751 q 493 749 499 750 q 485 747 488 747 l 472 744 l 472 299 q 475 280 472 288 q 483 265 478 272 q 493 258 488 261 q 504 256 499 256 q 514 254 510 254 q 522 253 518 254 q 525 253 524 253 q 528 253 526 253 l 547 253 l 547 229 l 533 229 q 519 228 529 228 q 494 231 508 229 q 478 231 488 231 q 461 233 469 232 q 448 233 454 233 q 435 233 442 233 q 424 233 429 233 q 413 233 418 233 q 394 231 403 232 q 376 231 385 231 q 351 228 363 229 q 335 228 340 228 l 321 229 l 321 254 l 344 256 q 353 254 349 254 q 364 256 358 254 q 374 259 369 257 q 383 265 379 261 q 393 280 390 272 q 396 297 396 288 l 396 717 q 394 731 396 726 q 392 742 393 736 q 388 745 390 743 q 385 750 386 747 q 374 756 382 754 q 358 760 367 758 q 341 761 349 761 q 331 761 333 761 l 321 763 l 321 786 l 335 786 q 348 784 338 785 q 374 783 358 783 q 391 783 382 783 q 408 782 400 782 q 422 782 415 782 q 436 782 429 782 q 459 782 447 782 q 483 782 471 782 q 506 783 494 782 q 529 783 518 783 q 565 784 550 783 q 583 785 581 785 l 597 788 q 600 786 599 786 q 603 786 601 786 q 606 786 604 786 q 608 786 607 786 q 626 785 617 786 q 646 783 636 785 q 709 760 679 778 q 751 707 739 742 q 758 683 756 694 q 760 660 760 671 q 740 594 760 625 q 686 539 721 563 q 674 531 681 535 q 660 525 667 528 q 631 515 644 518 q 611 510 617 511 l 604 510 l 783 274 q 787 269 783 272 q 793 264 790 267 q 796 262 794 263 q 799 260 797 261 q 801 259 800 260 q 804 257 803 258 q 806 256 806 257 q 808 254 807 256 q 811 253 810 254 q 814 253 813 253 q 821 251 818 251 q 825 250 824 250 l 831 251 l 831 229 l 824 229 q 811 228 817 228 q 800 229 806 229 q 789 230 794 229 q 776 231 783 231 q 766 231 771 231 q 757 229 761 231 q 745 228 751 229 q 732 228 739 228 l 722 228 l 499 515 l 499 515 z "},"":{"ha":1101,"x_min":35,"x_max":1050,"o":"m 542 1017 q 923 856 796 1015 q 1050 506 1050 697 q 1050 503 1050 504 q 1050 501 1050 503 q 922 156 1049 313 q 542 0 794 0 q 161 158 288 0 q 35 508 35 317 q 35 510 35 510 q 35 513 35 511 q 163 858 36 701 q 542 1015 290 1015 l 542 1017 m 542 54 q 881 194 768 53 q 996 503 994 335 q 996 505 996 504 q 996 507 996 506 q 883 818 996 676 q 542 960 769 960 q 202 819 315 960 q 89 510 89 678 q 89 508 89 508 q 89 506 89 507 q 202 194 89 336 q 542 53 315 53 l 542 54 m 713 689 l 713 697 q 713 699 713 697 q 711 701 713 700 q 689 724 707 713 q 650 744 671 736 q 633 750 642 747 q 615 754 624 753 q 608 756 614 754 q 596 757 603 757 q 573 760 586 758 q 546 761 560 761 q 524 760 535 761 q 503 757 514 760 q 369 669 408 736 q 329 519 329 601 q 329 508 329 514 q 331 497 329 503 q 331 486 331 492 q 332 475 332 481 q 410 320 343 382 q 564 254 476 258 q 574 254 569 254 q 585 254 579 254 q 673 267 639 254 q 733 293 707 279 l 751 304 l 757 296 l 743 261 l 725 251 q 709 244 718 247 q 689 236 700 240 q 646 224 669 229 q 597 214 622 218 q 581 213 589 214 q 564 213 572 213 q 562 213 563 213 q 560 213 561 213 q 344 283 429 217 q 247 465 260 350 q 245 488 246 476 q 244 508 244 499 q 308 691 246 625 q 444 781 369 757 q 462 785 453 783 q 481 789 471 788 q 498 792 489 790 q 515 793 507 793 q 533 794 524 794 q 550 794 542 794 q 591 793 572 794 q 622 790 610 792 q 631 788 628 789 q 638 788 635 788 q 651 785 644 786 q 667 781 658 783 q 675 779 671 781 q 683 776 679 778 q 720 767 704 772 q 743 761 736 763 l 753 760 l 736 640 l 713 640 l 713 689 l 713 689 z "},"":{"ha":1176,"x_min":43,"x_max":1129,"o":"m 782 518 l 586 936 l 586 588 q 588 572 586 578 q 594 558 589 565 q 603 552 599 554 q 613 549 608 550 q 621 548 617 549 q 628 547 625 547 q 632 547 631 547 q 635 547 633 547 l 651 547 l 651 526 l 640 526 q 629 526 638 525 q 610 528 621 526 q 594 528 603 528 q 578 529 586 529 q 570 529 574 529 q 563 529 567 529 q 560 529 561 529 q 557 529 558 529 q 554 529 556 529 q 551 529 553 529 q 547 529 550 529 q 543 529 544 529 q 530 528 536 529 q 518 528 524 528 q 504 526 511 526 q 492 525 497 525 l 481 526 l 481 549 l 500 550 q 508 549 504 549 q 518 550 513 549 q 528 553 524 551 q 536 558 532 554 q 545 572 543 565 q 547 586 547 578 l 547 963 q 546 976 547 971 q 543 986 544 982 q 540 989 542 988 q 538 993 539 990 q 528 999 535 997 q 513 1001 521 1000 q 497 1003 504 1003 q 488 1003 490 1003 l 481 1004 l 481 1026 l 492 1026 q 500 1024 494 1025 q 513 1024 506 1024 q 519 1022 515 1022 q 526 1021 522 1022 q 533 1021 529 1021 q 540 1021 538 1021 q 551 1021 546 1021 q 561 1021 556 1021 q 572 1022 567 1022 q 582 1024 578 1022 q 599 1024 592 1024 q 610 1025 607 1025 l 618 1026 l 806 628 l 881 781 q 910 840 899 817 q 933 886 922 864 q 934 889 933 888 q 936 892 935 890 q 951 924 943 907 q 968 961 958 940 q 973 972 971 967 q 976 981 975 976 q 978 985 978 983 q 981 990 979 988 q 984 1001 982 996 q 988 1013 986 1007 l 993 1026 l 1003 1026 q 1013 1024 1006 1025 q 1028 1024 1019 1024 q 1038 1022 1032 1022 q 1049 1021 1043 1022 q 1056 1021 1053 1021 q 1064 1021 1060 1021 q 1072 1021 1068 1021 q 1079 1021 1075 1021 q 1090 1022 1085 1022 q 1099 1024 1094 1022 q 1113 1024 1107 1024 q 1122 1025 1119 1025 l 1129 1026 l 1129 1004 l 1119 1004 q 1110 1003 1117 1003 q 1094 1001 1103 1003 q 1081 999 1088 1000 q 1071 993 1074 997 q 1068 989 1069 990 q 1065 986 1067 988 q 1063 976 1064 982 q 1061 961 1061 971 l 1061 588 q 1063 572 1061 578 q 1071 558 1065 565 q 1080 552 1075 554 q 1090 549 1085 550 q 1097 548 1093 549 q 1104 547 1100 547 q 1108 547 1106 547 q 1111 547 1110 547 l 1128 547 l 1128 526 l 1117 526 q 1103 526 1113 525 q 1082 528 1094 526 q 1067 528 1075 528 q 1051 529 1060 528 q 1040 529 1046 529 q 1028 529 1033 529 q 1017 529 1022 529 q 1007 529 1013 529 q 990 528 999 528 q 975 528 982 528 q 953 526 963 526 q 939 525 943 525 l 925 526 l 925 549 l 946 550 q 954 549 950 549 q 964 550 958 549 q 974 553 969 551 q 982 558 978 554 q 991 572 989 565 q 993 586 993 578 l 993 938 l 796 518 l 782 518 l 782 518 m 331 549 l 347 547 l 347 526 l 336 526 q 323 526 332 525 q 301 528 314 526 q 287 528 294 528 q 271 529 279 528 q 259 529 265 529 q 247 529 253 529 q 237 529 242 529 q 226 529 232 529 q 210 528 218 528 q 194 528 201 528 q 172 526 182 526 q 158 525 163 525 l 144 526 l 144 549 l 165 550 q 174 549 169 549 q 183 550 178 549 q 193 553 189 551 q 201 558 197 554 q 210 572 208 565 q 213 586 213 578 l 213 990 l 100 986 q 97 985 99 985 q 92 983 94 985 q 89 983 90 983 q 86 981 88 982 q 85 978 86 979 q 83 975 83 976 q 79 968 81 972 q 78 960 78 964 l 69 910 l 47 910 l 43 1028 l 56 1026 q 74 1024 58 1025 q 113 1024 89 1024 q 147 1023 129 1024 q 182 1022 164 1022 q 201 1022 192 1022 q 219 1022 211 1022 q 234 1022 226 1022 q 249 1022 242 1022 q 280 1023 264 1022 q 313 1024 296 1024 q 397 1024 358 1024 q 440 1025 436 1025 l 453 1028 l 449 910 l 428 910 l 422 956 q 422 959 422 957 q 421 963 421 961 q 418 972 419 967 q 414 979 417 976 q 406 985 411 983 q 394 986 401 986 l 282 990 l 282 588 q 283 572 282 578 q 290 558 285 565 q 299 552 294 554 q 311 549 304 550 q 317 548 314 549 q 324 547 319 547 q 327 547 325 547 q 331 547 329 547 l 331 549 z "},"":{"ha":318,"x_min":46,"x_max":272,"o":"m 272 963 l 46 721 l 172 1028 l 272 963 l 272 963 z "},"":{"ha":525,"x_min":39,"x_max":481,"o":"m 176 1028 l 239 824 l 39 888 l 176 1028 l 176 1028 m 418 1028 l 481 824 l 282 888 l 418 1028 l 418 1028 z "},"":{"ha":432,"x_min":0,"x_max":0,"o":""},"":{"ha":1467,"x_min":22,"x_max":1419,"o":"m 740 1028 l 1368 1028 l 1371 794 l 1351 850 q 1347 862 1349 856 q 1342 875 1344 868 q 1326 908 1335 893 q 1303 935 1318 924 q 1274 947 1289 943 q 1242 953 1258 951 q 1230 953 1236 953 q 1217 953 1224 953 l 1047 954 q 1042 953 1044 953 q 1035 953 1039 953 q 1002 951 1018 953 q 978 942 986 950 q 971 924 972 936 q 969 900 969 913 q 969 897 969 899 q 969 893 969 894 q 969 890 969 892 q 969 886 969 888 l 969 554 l 1167 554 q 1177 553 1172 553 q 1186 553 1182 553 q 1197 551 1192 551 q 1206 551 1201 551 q 1234 554 1221 551 q 1258 565 1247 557 q 1263 569 1261 567 q 1265 572 1264 571 q 1274 581 1271 576 q 1281 590 1276 586 q 1283 596 1282 593 q 1286 601 1285 599 l 1314 661 l 1314 335 l 1303 367 q 1297 380 1300 372 q 1292 396 1294 388 q 1292 397 1292 396 q 1292 397 1292 397 q 1274 441 1283 421 q 1250 468 1265 461 q 1235 475 1243 472 q 1222 479 1228 478 q 1202 482 1213 482 q 1181 482 1192 482 q 1177 482 1179 482 q 1174 482 1175 482 l 969 483 l 969 142 q 970 126 969 135 q 972 111 971 118 q 978 84 974 96 q 993 68 983 72 q 1013 61 1004 63 q 1032 60 1022 60 q 1040 60 1036 60 q 1047 61 1043 60 q 1054 61 1050 61 q 1063 61 1058 61 l 1290 63 q 1298 61 1294 61 q 1306 61 1301 61 q 1308 60 1307 60 q 1310 60 1308 60 q 1315 60 1313 60 q 1319 60 1317 60 q 1334 61 1326 60 q 1350 67 1342 63 q 1369 88 1361 72 q 1383 125 1376 104 q 1386 134 1385 129 q 1390 143 1388 139 q 1395 160 1392 151 q 1401 175 1399 168 l 1419 219 l 1414 0 l 717 0 l 751 14 q 765 18 758 15 q 781 25 772 21 q 813 42 797 32 q 833 68 829 53 q 838 86 836 75 q 839 110 839 97 q 839 115 839 113 q 839 121 839 118 q 838 127 838 124 q 838 133 838 131 l 833 413 l 467 413 l 297 147 q 288 129 292 139 q 281 110 283 119 q 273 85 275 97 q 271 67 271 74 q 271 66 271 67 q 272 64 271 65 q 272 62 272 63 q 272 61 272 61 q 292 41 276 49 q 328 26 308 33 q 333 25 331 26 q 339 24 336 24 q 352 19 346 21 q 364 14 358 17 l 401 0 l 22 0 l 53 11 q 74 18 63 14 q 97 26 86 22 q 142 46 121 35 q 169 69 163 57 q 178 83 174 76 q 186 94 182 89 q 200 115 193 104 q 215 138 207 125 q 305 271 257 199 q 403 418 353 343 q 411 430 407 424 q 419 443 415 436 q 618 749 528 607 q 721 932 708 892 q 728 957 725 946 q 733 979 731 968 q 735 990 735 985 q 736 1000 736 994 q 738 1013 738 1006 q 740 1026 739 1019 l 740 1028 m 829 485 l 828 960 l 521 485 l 829 485 l 829 485 z "},"":{"ha":1188,"x_min":39,"x_max":1135,"o":"m 563 1047 q 569 1046 565 1046 q 576 1046 572 1046 q 583 1046 579 1046 q 589 1046 586 1046 q 723 1031 658 1046 q 846 986 788 1015 l 876 1032 l 1017 1032 l 940 926 q 1078 753 1026 857 q 1132 518 1129 650 q 964 128 1135 275 q 561 -15 793 -18 q 432 1 494 -15 q 314 49 369 18 l 286 8 l 151 8 l 224 111 q 89 289 139 183 q 39 518 39 394 q 193 886 39 735 q 563 1046 347 1038 l 563 1047 m 369 126 q 464 81 414 99 q 569 60 514 63 q 576 60 572 60 q 583 60 579 60 q 590 58 586 58 q 596 58 593 58 q 891 180 765 58 q 1017 493 1017 301 q 980 681 1017 592 q 878 838 943 771 l 369 126 l 369 126 m 369 126 l 878 839 l 369 126 l 369 126 m 790 908 q 690 952 743 936 q 576 968 636 968 q 573 968 575 968 q 569 968 571 968 q 565 968 567 968 q 561 968 564 968 q 262 830 372 963 q 153 521 151 697 q 189 346 153 431 q 286 196 225 261 l 790 908 l 790 908 m 790 908 l 286 197 l 790 908 l 790 908 z "},"":{"ha":432,"x_min":0,"x_max":0,"o":""},"":{"ha":661,"x_min":39,"x_max":611,"o":"m 39 -1 l 39 51 l 606 51 l 606 -1 l 39 -1 l 39 -1 m 297 488 l 297 736 l 364 736 l 364 486 l 611 486 l 611 417 l 361 417 l 361 168 l 297 168 l 297 417 l 50 417 l 50 488 l 297 488 l 297 488 z "},"":{"ha":432,"x_min":0,"x_max":0,"o":""},"":{"ha":432,"x_min":0,"x_max":0,"o":""},"":{"ha":1076,"x_min":36,"x_max":1015,"o":"m 864 515 l 597 517 l 597 457 l 861 457 l 861 383 l 597 383 l 599 135 q 601 94 599 111 q 617 60 603 76 q 647 41 625 49 q 692 28 668 33 q 699 25 696 26 q 707 24 703 24 q 728 17 718 21 q 746 11 738 14 l 775 0 l 306 0 l 338 10 q 363 15 349 11 q 393 24 378 19 q 421 34 407 29 q 446 44 435 39 q 458 51 453 47 q 467 58 464 56 q 474 72 471 65 q 479 85 478 78 q 481 99 481 92 q 482 111 482 106 q 482 119 482 115 q 482 125 482 122 q 481 133 481 129 q 481 139 481 136 l 479 383 l 221 383 l 221 457 l 479 457 l 481 486 l 467 517 l 224 515 l 224 590 l 426 589 l 392 657 q 369 697 382 675 q 343 739 357 718 q 331 759 338 749 q 318 779 324 769 q 281 835 299 808 q 247 883 263 863 q 203 933 228 911 q 156 969 179 954 q 123 988 139 979 q 92 1003 107 996 l 36 1029 l 85 1040 q 95 1041 89 1040 q 107 1040 101 1042 q 153 1035 126 1040 q 208 1021 179 1031 q 260 998 235 1011 q 304 967 285 985 q 358 908 332 940 q 406 844 383 876 q 442 789 425 817 q 471 738 458 761 l 551 590 l 714 871 q 719 878 717 874 q 725 889 722 883 q 744 932 736 911 q 750 958 751 953 q 724 981 744 971 q 682 1001 704 992 q 670 1006 676 1004 q 658 1011 664 1008 l 621 1028 l 1015 1028 l 985 1017 q 971 1010 978 1013 q 957 1006 964 1008 q 926 996 942 1001 q 894 982 910 990 q 876 970 885 976 q 857 956 867 964 q 840 937 847 947 q 826 914 833 926 q 816 895 821 906 q 804 875 811 885 l 636 589 l 864 590 l 864 515 l 864 515 z "},"":{"ha":850,"x_min":-10,"x_max":796,"o":"m 36 740 l 161 740 l 161 231 q 199 119 161 169 q 296 69 236 69 q 325 73 310 69 q 357 83 340 76 q 442 140 403 101 q 481 226 481 179 l 481 740 l 603 740 l 603 164 q 603 149 603 156 q 606 135 604 142 q 631 69 611 99 q 683 40 651 40 q 688 40 686 40 q 693 42 690 40 q 735 64 719 47 q 758 107 751 81 l 769 147 l 796 147 l 786 101 q 747 30 778 60 q 681 -15 715 0 q 649 -26 664 -22 q 619 -29 633 -29 q 617 -29 618 -29 q 614 -29 615 -29 q 611 -28 613 -28 q 608 -28 610 -28 q 605 -27 607 -28 q 600 -26 603 -26 q 517 24 556 -17 q 478 118 479 64 l 440 82 q 402 47 422 63 q 363 17 382 31 q 305 -11 333 0 q 253 -22 276 -22 q 253 -22 253 -22 q 253 -22 253 -22 q 251 -22 251 -22 q 251 -22 251 -22 q 212 -17 235 -22 q 165 -1 189 -11 q 120 24 142 8 q 82 63 99 40 l 82 11 q 88 -45 82 -21 q 103 -93 94 -69 q 106 -99 104 -96 q 108 -107 107 -103 q 126 -161 118 -132 q 135 -231 133 -190 q 135 -233 135 -232 q 135 -235 135 -233 q 114 -298 133 -269 q 61 -326 94 -326 q 61 -326 61 -326 q 61 -326 61 -326 q 60 -326 60 -326 q 60 -326 60 -326 q 8 -299 26 -326 q -10 -240 -10 -272 q -10 -237 -10 -239 q -10 -236 -10 -236 q -10 -233 -10 -235 q -10 -231 -10 -232 q -3 -170 -10 -194 q 11 -124 3 -146 q 13 -123 13 -124 q 13 -121 13 -122 q 25 -85 19 -104 q 33 -43 31 -67 q 34 -31 33 -36 q 35 -19 35 -25 q 36 -11 36 -15 q 36 -1 36 -7 l 36 740 l 36 740 z "},"":{"ha":432,"x_min":0,"x_max":0,"o":""},"":{"ha":432,"x_min":0,"x_max":0,"o":""},"":{"ha":432,"x_min":0,"x_max":0,"o":""},"":{"ha":432,"x_min":0,"x_max":0,"o":""},"":{"ha":432,"x_min":0,"x_max":0,"o":""},"":{"ha":647,"x_min":38,"x_max":594,"o":"m 38 467 l 38 492 l 593 492 l 593 467 l 38 467 l 38 467 m 344 1038 q 347 1026 346 1031 q 349 1018 347 1022 q 351 1008 350 1013 q 354 999 353 1004 q 383 915 364 968 q 424 806 401 863 q 426 799 425 803 q 428 793 426 796 q 477 665 454 724 q 507 589 500 606 q 510 583 508 586 q 513 576 511 579 q 513 574 513 575 q 515 572 514 572 q 519 564 517 568 q 524 554 521 560 q 537 542 526 547 q 561 532 547 536 q 563 531 561 531 q 565 531 564 531 q 572 526 568 528 q 581 524 576 525 l 594 519 l 388 519 l 406 526 q 415 528 410 526 q 426 532 421 531 q 443 541 435 536 q 453 553 451 546 q 453 555 453 554 q 453 557 453 556 q 452 566 453 561 q 450 576 451 571 q 448 583 449 579 q 446 589 447 586 q 444 592 444 590 q 443 596 443 594 l 396 728 l 222 728 l 174 596 q 173 592 174 593 q 171 589 172 590 q 170 583 171 586 q 168 576 169 581 q 164 560 165 568 q 164 549 163 551 q 176 538 167 542 q 197 529 186 533 q 198 529 197 529 q 199 529 199 529 q 204 527 201 528 q 210 525 207 526 l 229 519 l 38 519 l 53 525 q 64 527 58 525 q 76 532 69 529 q 98 542 88 536 q 113 553 108 547 q 115 560 114 557 q 118 567 117 564 q 119 569 119 568 q 119 569 119 569 q 123 578 121 574 q 126 588 125 582 q 144 628 135 607 q 161 671 153 649 q 172 694 167 682 q 181 718 176 706 q 248 888 218 808 q 285 989 278 967 q 289 1001 288 996 q 292 1013 290 1007 q 294 1024 292 1018 q 297 1036 296 1029 l 344 1038 l 344 1038 m 379 764 l 308 947 l 238 764 l 379 764 l 379 764 z "},"":{"ha":631,"x_min":38,"x_max":589,"o":"m 38 461 l 38 488 l 589 488 l 589 461 l 38 461 l 38 461 m 299 1044 q 303 1043 301 1043 q 307 1043 304 1043 q 310 1043 308 1043 q 314 1043 313 1043 q 502 972 422 1043 q 583 779 582 900 q 500 585 586 658 q 299 513 414 511 q 113 591 189 514 q 38 779 38 668 q 115 963 38 888 q 299 1043 192 1039 l 299 1044 m 299 1006 q 149 935 204 1001 q 94 781 93 868 q 154 626 96 696 q 303 550 213 556 q 307 550 306 550 q 311 550 308 550 q 315 550 313 550 q 318 550 317 550 q 463 611 401 550 q 526 767 525 672 q 463 933 526 861 q 307 1004 400 1004 q 303 1004 306 1004 q 299 1004 301 1004 l 299 1006 z "},"":{"ha":432,"x_min":0,"x_max":0,"o":""},"":{"ha":1467,"x_min":22,"x_max":1419,"o":"m 740 1028 l 1368 1028 l 1371 794 l 1351 850 q 1347 862 1349 856 q 1342 875 1344 868 q 1326 908 1335 893 q 1303 935 1318 924 q 1274 947 1289 943 q 1242 953 1258 951 q 1230 953 1236 953 q 1217 953 1224 953 l 1047 954 q 1042 953 1044 953 q 1035 953 1039 953 q 1002 951 1018 953 q 978 942 986 950 q 971 924 972 936 q 969 900 969 913 q 969 897 969 899 q 969 893 969 894 q 969 890 969 892 q 969 886 969 888 l 969 554 l 1167 554 q 1177 553 1172 553 q 1186 553 1182 553 q 1197 551 1192 551 q 1206 551 1201 551 q 1234 554 1221 551 q 1258 565 1247 557 q 1263 569 1261 567 q 1265 572 1264 571 q 1274 581 1271 576 q 1281 590 1276 586 q 1283 596 1282 593 q 1286 601 1285 599 l 1314 661 l 1314 335 l 1303 367 q 1297 380 1300 372 q 1292 396 1294 388 q 1292 397 1292 396 q 1292 397 1292 397 q 1274 441 1283 421 q 1250 468 1265 461 q 1235 475 1243 472 q 1222 479 1228 478 q 1202 482 1213 482 q 1181 482 1192 482 q 1177 482 1179 482 q 1174 482 1175 482 l 969 483 l 969 142 q 970 126 969 135 q 972 111 971 118 q 978 84 974 96 q 993 68 983 72 q 1013 61 1004 63 q 1032 60 1022 60 q 1040 60 1036 60 q 1047 61 1043 60 q 1054 61 1050 61 q 1063 61 1058 61 l 1290 63 q 1298 61 1294 61 q 1306 61 1301 61 q 1308 60 1307 60 q 1310 60 1308 60 q 1315 60 1313 60 q 1319 60 1317 60 q 1334 61 1326 60 q 1350 67 1342 63 q 1369 88 1361 72 q 1383 125 1376 104 q 1386 134 1385 129 q 1390 143 1388 139 q 1395 160 1392 151 q 1401 175 1399 168 l 1419 219 l 1414 0 l 717 0 l 751 14 q 764 18 757 15 q 778 24 771 21 q 810 42 794 31 q 831 68 826 53 q 834 85 833 75 q 835 107 835 96 q 835 113 835 110 q 835 121 835 117 q 833 127 833 124 q 833 133 833 131 l 833 413 l 467 413 l 297 147 q 288 129 292 139 q 281 110 283 119 q 273 85 275 97 q 271 67 271 74 q 271 66 271 67 q 272 64 271 65 q 272 62 272 63 q 272 61 272 61 q 292 41 276 49 q 328 26 308 33 q 333 25 331 26 q 339 24 336 24 q 352 19 346 21 q 364 14 358 17 l 401 0 l 22 0 l 53 11 q 74 18 63 14 q 97 26 86 22 q 142 46 121 35 q 169 69 163 57 q 178 83 174 76 q 186 94 182 89 q 200 115 193 104 q 215 138 207 125 q 305 271 257 199 q 403 418 353 343 q 411 430 407 424 q 419 443 415 436 q 618 749 528 607 q 721 932 708 892 q 728 957 725 946 q 733 979 731 968 q 735 990 735 985 q 736 1000 736 994 q 738 1013 738 1006 q 740 1026 739 1019 l 740 1028 m 831 485 l 828 960 l 521 485 l 831 485 l 831 485 z "},"":{"ha":1188,"x_min":39,"x_max":1135,"o":"m 563 1047 q 576 1046 569 1046 q 588 1046 582 1046 q 724 1030 658 1046 q 849 985 790 1014 l 882 1032 l 1021 1032 l 944 924 q 1078 751 1028 854 q 1132 518 1129 649 q 964 128 1135 275 q 561 -15 793 -18 q 434 0 496 -15 q 318 46 372 15 l 290 8 l 156 8 l 226 108 q 90 288 140 181 q 39 518 39 394 q 193 886 39 735 q 563 1046 347 1038 l 563 1047 m 372 125 q 466 79 417 96 q 569 60 515 63 q 576 60 572 60 q 583 60 579 60 q 590 58 586 58 q 596 58 593 58 q 891 180 765 58 q 1017 493 1017 301 q 981 681 1017 592 q 881 835 944 769 l 372 125 l 372 125 m 372 125 l 881 836 l 372 125 l 372 125 m 793 907 q 690 951 746 935 q 575 968 635 968 q 572 968 574 968 q 568 968 569 968 q 565 968 567 968 q 561 968 563 968 q 262 830 372 963 q 153 521 151 697 q 189 344 153 431 q 288 193 225 258 l 793 907 l 793 907 m 793 907 l 288 194 l 793 907 l 793 907 z "},"":{"ha":714,"x_min":38,"x_max":669,"o":"m 326 383 l 288 325 q 252 268 263 285 q 235 239 242 251 q 227 225 231 232 q 218 210 224 218 q 206 186 210 196 q 199 168 201 176 q 197 165 197 167 q 196 163 197 164 q 193 153 194 158 q 190 143 192 149 l 240 167 q 245 167 243 167 q 249 169 247 168 q 262 178 256 174 q 276 188 268 183 q 320 207 293 199 q 396 217 347 215 q 402 217 399 217 q 408 217 406 217 q 445 214 426 217 q 483 206 464 211 q 611 123 553 185 q 669 -43 669 61 q 580 -265 669 -179 q 346 -360 490 -350 q 342 -360 344 -360 q 338 -360 339 -360 q 333 -360 335 -360 q 328 -360 331 -360 q 126 -282 214 -360 q 38 -86 39 -204 q 60 63 38 -17 q 169 268 83 142 l 278 426 l 326 383 l 326 383 m 336 131 q 207 65 263 119 q 144 -53 151 10 q 143 -61 143 -57 q 143 -69 143 -65 q 143 -72 143 -71 q 143 -75 143 -74 q 143 -76 143 -75 q 143 -79 143 -78 q 210 -225 149 -167 q 357 -286 272 -283 q 361 -286 360 -286 q 364 -286 363 -286 q 520 -222 456 -286 q 585 -57 585 -157 q 585 -51 585 -54 q 585 -47 585 -49 q 583 -42 583 -44 q 583 -36 583 -39 q 511 88 578 44 q 367 131 444 132 q 359 131 363 131 q 351 131 356 131 q 344 130 347 131 q 336 129 340 129 l 336 131 m 338 451 l 272 678 l 490 607 l 338 451 l 338 451 z "},"":{"ha":313,"x_min":49,"x_max":258,"o":"m 86 -326 l 106 404 l 176 369 l 217 -360 l 86 -326 l 86 -326 m 114 468 l 49 678 l 258 618 l 114 468 l 114 468 z "},"":{"ha":432,"x_min":0,"x_max":0,"o":""},"":{"ha":432,"x_min":0,"x_max":0,"o":""},"":{"ha":701,"x_min":75,"x_max":703,"o":"m 626 1033 q 612 1035 618 1032 q 600 1044 606 1039 q 597 1047 599 1046 q 594 1049 596 1047 q 588 1054 592 1051 q 581 1060 585 1057 q 573 1063 576 1063 q 567 1064 569 1064 q 534 1013 543 1063 q 518 900 525 964 q 517 890 517 894 q 515 879 517 885 q 508 819 513 849 q 499 765 504 790 l 492 738 l 631 738 l 624 681 l 476 681 l 392 256 q 372 169 385 219 q 342 64 360 118 q 263 -103 311 -26 q 146 -179 214 -179 q 131 -178 139 -179 q 115 -175 124 -178 q 88 -156 100 -171 q 75 -122 75 -140 q 75 -116 75 -119 q 76 -110 75 -112 q 102 -74 85 -87 q 143 -58 119 -60 q 145 -58 144 -58 q 147 -58 146 -58 q 164 -65 158 -58 q 172 -78 169 -71 q 174 -78 174 -78 q 174 -79 174 -79 q 181 -90 176 -85 q 192 -99 185 -96 q 197 -100 194 -100 q 200 -100 199 -100 q 247 -40 229 -99 q 276 88 264 18 q 285 133 282 111 q 293 176 289 156 q 295 183 294 179 q 296 190 296 188 l 393 681 l 239 681 l 243 740 l 415 740 l 424 778 q 433 822 428 799 q 446 869 439 846 q 520 1061 474 974 q 636 1149 567 1149 q 642 1149 639 1149 q 649 1147 646 1149 q 686 1128 669 1143 q 703 1094 703 1114 q 702 1090 703 1093 q 700 1083 701 1086 q 672 1045 692 1058 q 626 1032 653 1032 l 626 1033 z "},"":{"ha":432,"x_min":0,"x_max":0,"o":""},"":{"ha":432,"x_min":0,"x_max":0,"o":""},"":{"ha":744,"x_min":36,"x_max":704,"o":"m 36 474 l 332 693 l 332 550 l 122 399 l 328 253 l 328 100 l 36 328 l 36 474 l 36 474 m 408 474 l 704 693 l 704 550 l 493 399 l 700 253 l 700 100 l 408 328 l 408 474 l 408 474 z "},"":{"ha":758,"x_min":43,"x_max":711,"o":"m 43 693 l 339 474 l 339 328 l 47 100 l 47 253 l 254 399 l 43 550 l 43 693 l 43 693 m 415 693 l 711 474 l 711 328 l 419 100 l 419 253 l 625 399 l 415 550 l 415 693 l 415 693 z "},"":{"ha":839,"x_min":38,"x_max":794,"o":"m 189 140 l 258 -86 l 38 -15 l 189 140 l 189 140 m 460 140 l 529 -86 l 308 -15 l 460 140 l 460 140 m 726 140 l 794 -86 l 574 -15 l 726 140 l 726 140 z "},"":{"ha":1167,"x_min":32,"x_max":1136,"o":"m 639 1028 q 644 1008 642 1017 q 650 990 647 999 q 654 972 651 981 q 660 953 657 964 q 717 788 679 893 q 796 571 754 683 q 801 557 799 564 q 807 543 804 550 q 902 290 857 406 q 963 140 947 174 q 971 121 967 129 q 979 103 975 113 q 986 88 982 96 q 994 72 990 81 q 1023 47 1001 58 q 1069 26 1044 36 q 1081 22 1075 25 q 1092 18 1086 19 q 1099 15 1096 17 q 1107 11 1103 13 l 1136 0 l 725 0 l 761 14 q 779 19 769 15 q 800 28 789 24 q 835 44 819 35 q 856 68 851 54 q 856 69 856 68 q 857 71 856 69 q 857 73 857 72 q 857 75 857 74 q 854 93 857 82 q 847 114 851 104 q 844 124 846 119 q 842 132 843 128 q 838 142 840 138 q 835 151 836 147 l 742 413 l 399 413 l 301 153 q 299 147 300 149 q 299 142 299 144 q 294 129 296 136 q 290 115 292 122 q 283 86 286 100 q 281 65 281 72 q 281 63 281 64 q 281 61 281 63 q 302 41 286 49 q 338 26 318 33 q 343 26 340 26 q 347 24 346 25 q 361 19 354 21 q 374 14 368 17 l 411 0 l 32 0 l 63 11 q 84 18 72 14 q 107 26 96 22 q 151 46 131 35 q 179 69 172 57 q 186 83 183 76 q 192 96 189 90 q 196 104 194 100 q 199 114 197 108 q 203 125 201 119 q 208 138 206 131 q 244 219 226 176 q 279 306 261 261 q 299 351 289 328 q 318 397 308 374 q 449 733 390 576 q 521 932 507 889 q 528 957 525 946 q 535 979 532 968 q 536 987 535 983 q 538 994 538 990 q 542 1010 540 1001 q 546 1026 544 1018 l 639 1028 l 639 1028 m 710 485 l 569 849 l 428 485 l 710 485 l 710 485 m 719 1096 l 493 1338 l 594 1403 l 719 1096 l 719 1096 z "},"":{"ha":1181,"x_min":32,"x_max":1136,"o":"m 639 1028 q 644 1008 642 1017 q 650 990 647 999 q 654 972 651 981 q 660 953 657 964 q 717 788 679 893 q 796 571 754 683 q 801 557 799 564 q 807 543 804 550 q 902 290 857 406 q 963 140 947 174 q 971 121 967 129 q 979 103 975 113 q 986 88 982 96 q 994 72 990 81 q 1023 47 1001 58 q 1069 26 1044 36 q 1081 22 1075 25 q 1092 18 1086 19 q 1099 15 1096 17 q 1107 11 1103 13 l 1136 0 l 725 0 l 761 14 q 779 19 769 15 q 800 28 789 24 q 835 44 819 35 q 856 68 851 54 q 856 69 856 68 q 857 71 856 69 q 857 73 857 72 q 857 75 857 74 q 854 93 857 82 q 847 114 851 104 q 844 124 846 119 q 842 132 843 128 q 838 142 840 138 q 835 151 836 147 l 742 413 l 399 413 l 301 153 q 299 147 300 149 q 299 142 299 144 q 294 129 296 136 q 290 115 292 122 q 283 86 286 100 q 281 65 281 72 q 281 63 281 64 q 281 61 281 63 q 302 41 286 49 q 338 26 318 33 q 343 26 340 26 q 347 24 346 25 q 361 19 354 21 q 374 14 368 17 l 411 0 l 32 0 l 63 11 q 84 18 72 14 q 107 26 96 22 q 151 46 131 35 q 179 69 172 57 q 186 83 183 76 q 192 96 189 90 q 196 104 194 100 q 199 114 197 108 q 203 125 201 119 q 208 138 206 131 q 244 219 226 176 q 279 306 261 261 q 299 351 289 328 q 318 397 308 374 q 449 733 390 576 q 521 932 507 889 q 528 957 525 946 q 535 979 532 968 q 536 987 535 983 q 538 994 538 990 q 542 1010 540 1001 q 546 1026 544 1018 l 639 1028 l 639 1028 m 710 485 l 569 849 l 428 485 l 710 485 l 710 485 m 832 1185 q 794 1138 817 1157 q 747 1108 772 1118 q 725 1101 736 1104 q 704 1099 714 1099 q 658 1110 678 1099 q 619 1136 638 1122 q 581 1162 600 1150 q 533 1174 561 1174 q 533 1174 533 1174 q 533 1174 533 1174 q 532 1174 532 1174 q 532 1174 532 1174 q 490 1167 506 1172 q 460 1153 474 1161 q 442 1142 451 1149 q 421 1131 432 1136 l 378 1108 l 403 1154 q 451 1210 419 1185 q 519 1243 483 1236 q 528 1245 524 1244 q 538 1246 533 1246 q 540 1246 539 1246 q 542 1246 540 1246 q 584 1234 567 1246 q 618 1207 601 1222 q 651 1182 635 1193 q 692 1171 668 1171 q 694 1171 693 1171 q 696 1171 694 1171 q 697 1171 696 1171 q 699 1171 697 1171 q 749 1178 731 1172 q 785 1192 768 1183 q 803 1203 793 1197 q 826 1214 814 1208 l 860 1231 l 832 1185 l 832 1185 z "},"":{"ha":1181,"x_min":39,"x_max":1135,"o":"m 563 1047 q 569 1046 565 1046 q 576 1046 572 1046 q 583 1046 579 1046 q 589 1046 586 1046 q 967 903 807 1046 q 1132 518 1126 760 q 964 128 1135 275 q 561 -15 793 -18 q 191 141 343 -14 q 39 518 39 296 q 193 886 39 735 q 563 1046 347 1038 l 563 1047 m 561 969 q 262 830 372 963 q 153 521 151 697 q 272 211 156 351 q 569 60 389 71 q 577 60 574 60 q 583 60 581 60 q 590 58 586 58 q 597 58 593 58 q 892 180 767 58 q 1017 493 1017 301 q 890 825 1017 681 q 576 968 763 969 q 573 968 575 968 q 569 968 571 968 q 565 968 567 968 q 561 968 564 968 l 561 969 m 808 1182 q 771 1135 793 1154 q 724 1104 749 1115 q 702 1098 713 1100 q 682 1096 692 1096 q 634 1108 654 1096 q 596 1133 614 1119 q 594 1134 594 1133 q 593 1135 594 1135 q 556 1160 575 1149 q 511 1171 538 1171 q 511 1171 511 1171 q 511 1171 511 1171 q 510 1171 510 1171 q 510 1171 510 1171 q 467 1164 483 1169 q 436 1150 451 1158 q 418 1139 428 1144 q 397 1126 408 1133 l 354 1106 l 379 1150 q 431 1208 397 1182 q 500 1242 464 1235 q 508 1242 504 1242 q 514 1243 511 1243 q 516 1243 515 1243 q 518 1243 517 1243 q 562 1231 543 1243 q 597 1204 581 1218 q 631 1178 613 1190 q 672 1167 649 1167 q 674 1167 674 1167 q 676 1167 675 1167 q 725 1175 707 1169 q 760 1188 743 1181 q 780 1199 769 1193 q 804 1211 790 1204 l 838 1228 l 808 1182 l 808 1182 z "},"":{"ha":1622,"x_min":39,"x_max":1586,"o":"m 1019 0 l 1019 186 q 819 37 940 89 q 561 -15 699 -15 q 191 141 343 -14 q 39 518 39 296 q 193 886 39 735 q 563 1046 347 1038 q 576 1046 569 1046 q 588 1046 582 1046 q 830 994 717 1046 q 1019 846 943 942 l 1019 1028 l 1538 1028 l 1538 800 l 1517 856 q 1513 865 1515 860 q 1510 876 1511 871 q 1494 913 1503 896 q 1468 940 1486 929 q 1438 953 1454 949 q 1406 958 1422 957 q 1394 958 1400 958 q 1383 958 1389 958 l 1214 960 q 1208 958 1211 958 q 1201 958 1206 958 q 1169 957 1185 958 q 1143 947 1153 956 q 1137 928 1138 942 q 1136 900 1136 915 q 1136 899 1136 900 q 1136 899 1136 899 q 1136 895 1136 897 q 1136 890 1136 893 l 1136 558 l 1333 558 q 1350 557 1342 557 q 1367 557 1358 557 q 1398 559 1383 557 q 1425 571 1413 561 q 1431 576 1428 574 q 1435 581 1433 578 q 1442 589 1439 585 q 1449 600 1446 593 q 1449 603 1449 601 q 1451 606 1450 604 l 1481 667 l 1481 340 l 1468 372 q 1466 376 1467 374 q 1465 379 1465 378 q 1462 391 1464 385 q 1458 403 1460 397 q 1442 445 1451 425 q 1417 474 1432 465 q 1403 481 1410 478 q 1389 485 1396 483 q 1369 488 1379 488 q 1346 488 1358 488 q 1342 488 1344 488 q 1339 488 1340 488 l 1136 489 l 1136 147 q 1137 132 1136 140 q 1139 117 1138 124 q 1145 90 1140 101 q 1158 74 1150 78 q 1169 69 1164 71 q 1179 67 1174 68 q 1188 65 1183 65 q 1199 65 1193 65 q 1206 65 1203 65 q 1214 67 1210 65 q 1221 67 1217 67 q 1229 67 1225 67 l 1457 68 q 1465 67 1461 67 q 1472 67 1469 67 q 1480 65 1476 65 q 1488 65 1483 65 q 1495 65 1492 65 q 1501 67 1499 65 q 1508 68 1504 67 q 1515 71 1511 69 q 1535 94 1528 76 q 1550 132 1543 111 q 1552 140 1551 136 q 1554 149 1553 144 q 1560 165 1557 157 q 1567 181 1564 174 l 1586 225 l 1579 0 l 1019 0 l 1019 0 m 153 522 q 272 211 156 351 q 569 60 389 71 q 576 60 572 60 q 583 60 579 60 q 590 58 586 58 q 596 58 593 58 q 891 180 765 58 q 1017 493 1017 301 q 890 824 1017 681 q 578 968 764 968 q 569 968 574 968 q 561 968 565 968 q 262 830 372 963 q 153 521 151 697 l 153 522 z "},"":{"ha":1631,"x_min":39,"x_max":1586,"o":"m 1019 0 l 1019 186 q 819 37 940 89 q 561 -15 699 -15 q 191 141 343 -14 q 39 518 39 296 q 193 886 39 735 q 563 1046 347 1038 q 576 1046 569 1046 q 588 1046 582 1046 q 830 994 717 1046 q 1019 846 943 942 l 1019 1028 l 1538 1028 l 1538 800 l 1517 856 q 1513 865 1515 860 q 1510 876 1511 871 q 1494 913 1503 896 q 1468 940 1486 929 q 1438 953 1454 949 q 1406 958 1422 957 q 1394 958 1400 958 q 1383 958 1389 958 l 1214 960 q 1208 958 1211 958 q 1201 958 1206 958 q 1169 957 1185 958 q 1143 947 1153 956 q 1137 928 1138 942 q 1136 900 1136 915 q 1136 899 1136 900 q 1136 899 1136 899 q 1136 895 1136 897 q 1136 890 1136 893 l 1136 558 l 1333 558 q 1350 557 1342 557 q 1367 557 1358 557 q 1398 559 1383 557 q 1425 571 1413 561 q 1431 576 1428 574 q 1435 581 1433 578 q 1442 589 1439 585 q 1449 600 1446 593 q 1449 603 1449 601 q 1451 606 1450 604 l 1481 667 l 1481 340 l 1468 372 q 1466 376 1467 374 q 1465 379 1465 378 q 1462 391 1464 385 q 1458 403 1460 397 q 1442 445 1451 425 q 1417 474 1432 465 q 1403 481 1410 478 q 1389 485 1396 483 q 1369 488 1379 488 q 1346 488 1358 488 q 1342 488 1344 488 q 1339 488 1340 488 l 1136 489 l 1136 147 q 1137 132 1136 140 q 1139 117 1138 124 q 1145 90 1140 101 q 1158 74 1150 78 q 1169 69 1164 71 q 1179 67 1174 68 q 1188 65 1183 65 q 1199 65 1193 65 q 1206 65 1203 65 q 1214 67 1210 65 q 1221 67 1217 67 q 1229 67 1225 67 l 1457 68 q 1465 67 1461 67 q 1472 67 1469 67 q 1480 65 1476 65 q 1488 65 1483 65 q 1495 65 1492 65 q 1501 67 1499 65 q 1508 68 1504 67 q 1515 71 1511 69 q 1535 94 1528 76 q 1550 132 1543 111 q 1552 140 1551 136 q 1554 149 1553 144 q 1560 165 1557 157 q 1567 181 1564 174 l 1586 225 l 1579 0 l 1019 0 l 1019 0 m 561 969 q 262 830 372 963 q 153 521 151 697 q 272 211 156 351 q 569 60 389 71 q 577 60 574 60 q 583 60 581 60 q 590 58 586 58 q 597 58 593 58 q 892 180 767 58 q 1017 493 1017 301 q 890 825 1017 681 q 576 968 763 969 q 573 968 575 968 q 569 968 571 968 q 565 968 567 968 q 561 968 564 968 l 561 969 z "},"":{"ha":1128,"x_min":38,"x_max":1076,"o":"m 194 485 l 944 485 q 947 483 946 483 q 951 483 949 483 q 965 483 957 483 q 982 485 974 483 q 1004 490 993 486 q 1022 503 1015 494 q 1026 509 1024 506 q 1029 515 1028 513 q 1031 518 1031 517 q 1033 521 1032 519 q 1042 540 1038 529 q 1054 564 1047 550 l 1076 606 l 1076 286 l 1065 310 q 1057 324 1061 315 q 1049 342 1053 332 q 1048 344 1049 343 q 1047 346 1047 344 q 1037 365 1042 356 q 1028 381 1032 374 q 1006 394 1021 392 q 972 397 990 397 q 958 397 965 397 q 943 397 950 397 l 174 399 q 170 397 172 397 q 165 397 168 397 q 151 397 160 397 q 132 394 142 396 q 114 388 122 392 q 99 378 106 385 q 88 363 94 372 q 76 344 82 354 q 75 341 76 343 q 72 336 74 339 q 61 317 67 326 q 51 300 56 307 l 38 278 l 38 606 l 60 565 q 72 540 67 550 q 81 521 76 529 q 83 518 82 519 q 85 515 83 517 q 88 509 86 513 q 92 503 90 506 q 111 492 96 496 q 144 486 126 489 q 174 484 160 485 q 194 483 188 483 l 194 485 z "},"":{"ha":688,"x_min":47,"x_max":646,"o":"m 47 744 l 403 1103 l 214 638 l 47 744 l 47 744 m 290 746 l 646 1104 l 458 638 l 290 746 l 290 746 z "},"":{"ha":697,"x_min":46,"x_max":654,"o":"m 654 947 l 300 589 l 489 1056 l 654 947 l 654 947 m 401 949 l 46 590 l 235 1057 l 401 949 l 401 949 z "},"":{"ha":449,"x_min":47,"x_max":403,"o":"m 47 744 l 403 1103 l 214 638 l 47 744 l 47 744 z "},"":{"ha":453,"x_min":53,"x_max":408,"o":"m 408 949 l 53 590 l 242 1057 l 408 949 l 408 949 z "},"":{"ha":432,"x_min":0,"x_max":0,"o":""},"":{"ha":432,"x_min":0,"x_max":0,"o":""},"":{"ha":1074,"x_min":42,"x_max":1021,"o":"m 486 486 l 396 657 q 374 697 386 675 q 349 739 363 718 q 334 763 342 751 q 319 786 326 775 q 284 839 301 814 q 253 883 267 864 q 207 935 232 913 q 156 972 182 957 q 125 990 140 982 q 96 1003 110 997 l 42 1029 l 92 1040 q 102 1041 96 1040 q 114 1040 108 1042 q 160 1035 133 1040 q 214 1021 186 1031 q 265 998 240 1011 q 310 967 290 985 q 363 908 338 940 q 411 844 389 876 q 447 789 431 817 q 476 738 463 761 l 558 590 l 719 871 q 724 877 722 874 q 728 885 726 881 q 748 926 740 907 q 754 954 756 946 q 754 956 754 956 q 754 958 754 957 q 747 971 751 965 q 733 982 742 976 q 701 997 721 989 q 651 1017 682 1004 l 628 1028 l 1021 1028 l 992 1017 q 978 1010 985 1013 q 964 1006 971 1008 q 935 997 950 1001 q 906 985 921 992 q 885 972 896 979 q 863 956 874 965 q 847 938 854 949 q 833 917 840 928 q 822 897 828 907 q 810 875 817 886 l 604 526 l 603 135 q 605 98 603 114 q 617 68 607 82 q 619 64 618 65 q 622 60 621 63 q 652 41 631 49 q 697 28 674 33 q 705 25 701 26 q 713 24 708 24 q 733 17 722 21 q 751 11 743 14 l 782 0 l 311 0 l 343 10 q 369 15 354 11 q 399 24 383 19 q 426 34 413 29 q 451 44 440 39 q 464 51 458 47 q 472 58 469 56 q 480 72 476 65 q 485 85 483 78 q 487 99 486 92 q 488 111 488 106 q 488 119 488 115 q 488 125 488 122 q 486 133 486 129 q 486 139 486 136 l 486 486 l 486 486 m 457 1301 l 519 1097 l 321 1160 l 457 1301 l 457 1301 m 700 1301 l 761 1097 l 563 1160 l 700 1301 l 700 1301 z "},"":{"ha":1074,"x_min":42,"x_max":1021,"o":"m 486 486 l 396 657 q 374 697 386 675 q 349 739 363 718 q 334 763 342 751 q 319 786 326 775 q 284 839 301 814 q 253 883 267 864 q 207 935 232 913 q 156 972 182 957 q 125 990 140 982 q 96 1003 110 997 l 42 1029 l 92 1040 q 102 1041 96 1040 q 114 1040 108 1042 q 160 1035 133 1040 q 214 1021 186 1031 q 265 998 240 1011 q 310 967 290 985 q 363 908 338 940 q 411 844 389 876 q 447 789 431 817 q 476 738 463 761 l 558 590 l 719 871 q 724 877 722 874 q 728 885 726 881 q 748 926 740 907 q 754 954 756 946 q 754 956 754 956 q 754 958 754 957 q 747 971 751 965 q 733 982 742 976 q 701 997 721 989 q 651 1017 682 1004 l 628 1028 l 1021 1028 l 992 1017 q 978 1010 985 1013 q 964 1006 971 1008 q 935 997 950 1001 q 906 985 921 992 q 885 972 896 979 q 863 956 874 965 q 847 938 854 949 q 833 917 840 928 q 822 897 828 907 q 810 875 817 886 l 604 526 l 603 135 q 605 98 603 114 q 617 68 607 82 q 619 64 618 65 q 622 60 621 63 q 652 41 631 49 q 697 28 674 33 q 705 25 701 26 q 713 24 708 24 q 733 17 722 21 q 751 11 743 14 l 782 0 l 311 0 l 343 10 q 369 15 354 11 q 399 24 383 19 q 426 34 413 29 q 451 44 440 39 q 464 51 458 47 q 472 58 469 56 q 480 72 476 65 q 485 85 483 78 q 487 99 486 92 q 488 111 488 106 q 488 119 488 115 q 488 125 488 122 q 486 133 486 129 q 486 139 486 136 l 486 486 l 486 486 m 461 1301 l 524 1097 l 325 1160 l 461 1301 l 461 1301 m 704 1301 l 767 1097 l 567 1160 l 704 1301 l 704 1301 z "},"":{"ha":625,"x_min":24,"x_max":583,"o":"m 583 1043 l 111 -14 l 24 -14 l 494 1043 l 583 1043 l 583 1043 z "},"":{"ha":467,"x_min":53,"x_max":419,"o":"m 56 244 l 104 294 q 84 335 90 313 q 78 382 78 358 q 85 433 78 408 q 107 478 93 457 q 99 487 107 478 q 81 506 90 496 q 61 524 69 515 q 53 532 53 532 l 88 569 q 96 560 88 568 q 115 540 104 551 q 133 522 125 531 q 142 514 142 514 q 182 532 160 525 q 231 539 204 539 q 233 539 232 539 q 235 539 233 539 q 235 539 235 539 q 238 539 236 539 q 285 530 264 538 q 324 511 307 522 q 333 520 324 511 q 351 540 342 529 q 371 559 363 550 q 379 568 379 568 l 417 532 q 408 522 417 531 q 389 501 399 513 q 369 482 378 492 q 360 472 360 472 q 378 431 372 454 q 385 385 385 408 q 378 340 385 363 q 360 299 372 318 q 369 289 360 299 q 390 268 378 279 q 410 248 401 257 q 419 239 419 239 l 383 204 l 325 263 q 283 239 307 247 q 232 231 260 231 q 230 231 231 231 q 229 231 229 231 q 227 231 228 231 q 225 231 226 231 q 179 240 200 232 q 142 257 158 247 q 134 249 142 257 q 117 232 126 242 q 99 215 107 224 q 92 207 92 207 l 56 244 l 56 244 m 225 278 q 226 276 225 276 q 228 276 226 276 q 230 276 229 276 q 231 276 231 276 q 310 310 282 276 q 338 382 338 343 q 338 384 338 383 q 338 386 338 385 q 311 460 338 426 q 232 494 285 493 q 230 494 231 494 q 228 494 229 494 q 147 460 174 494 q 119 383 119 425 q 146 311 119 344 q 225 276 172 278 l 225 278 z "},"":{"ha":392,"x_min":36,"x_max":354,"o":"m 354 113 l 36 349 l 36 506 l 350 750 l 350 586 l 128 429 l 354 267 l 354 113 l 354 113 z "},"":{"ha":392,"x_min":38,"x_max":356,"o":"m 38 744 l 356 508 l 356 351 l 42 108 l 42 271 l 264 428 l 38 590 l 38 744 l 38 744 z "},"":{"ha":1269,"x_min":36,"x_max":1217,"o":"m 36 1028 l 704 1028 l 704 800 l 685 856 q 680 868 682 861 q 675 881 678 875 q 660 915 668 900 q 636 940 653 929 q 607 952 622 949 q 575 957 592 956 q 563 958 569 958 q 550 958 557 958 l 407 960 q 401 958 404 958 q 394 958 399 958 q 362 957 378 958 q 338 947 346 956 q 330 934 332 942 q 328 919 328 926 q 328 913 328 917 q 329 906 328 910 q 329 903 329 904 q 329 900 329 901 q 329 895 329 897 q 329 890 329 893 l 329 558 l 514 558 q 531 557 522 557 q 546 557 539 557 q 578 559 563 557 q 606 571 593 561 q 611 576 608 574 q 615 581 614 578 q 623 589 619 585 q 629 600 626 593 q 630 603 629 601 q 632 606 631 604 l 661 667 l 661 340 l 649 372 q 644 383 646 376 q 640 396 642 389 q 640 399 640 397 q 639 403 639 401 q 622 445 631 425 q 597 474 614 465 q 582 481 589 478 q 567 485 575 483 q 549 488 558 488 q 528 488 539 488 q 524 488 526 488 q 521 488 522 488 l 329 489 l 329 135 q 331 94 329 111 q 347 60 333 76 q 377 41 356 49 q 422 28 399 33 q 430 25 426 26 q 438 24 433 24 q 458 17 449 21 q 476 11 468 14 l 507 0 l 36 0 l 68 10 q 94 15 79 11 q 124 24 108 19 q 151 34 138 29 q 176 44 165 39 q 189 51 183 47 q 197 58 194 56 q 205 72 201 65 q 210 85 208 78 q 212 99 211 92 q 213 111 213 106 q 213 119 213 115 q 213 125 213 122 q 211 133 211 129 q 211 139 211 136 l 211 892 q 211 905 211 897 q 211 918 211 913 q 209 944 211 932 q 197 967 207 956 q 189 974 194 969 q 176 981 183 978 q 151 991 165 986 q 124 1001 138 996 q 94 1010 108 1006 q 68 1017 79 1014 l 36 1028 l 36 1028 m 1040 892 l 1040 135 q 1042 94 1040 111 q 1058 60 1044 76 q 1088 41 1067 49 q 1133 28 1110 33 q 1141 25 1138 26 q 1149 24 1144 24 q 1169 17 1160 21 q 1188 11 1179 14 l 1217 0 l 747 0 l 779 10 q 805 15 790 11 q 835 24 819 19 q 863 34 849 29 q 888 44 876 39 q 900 51 894 47 q 908 58 906 56 q 916 72 913 65 q 921 85 919 78 q 923 99 922 92 q 924 111 924 106 q 924 119 924 115 q 924 125 924 122 q 922 133 922 129 q 922 139 922 136 l 922 888 q 922 892 922 889 q 924 900 922 896 q 924 907 924 903 q 924 915 924 911 q 923 926 924 921 q 921 936 922 931 q 917 952 919 944 q 908 967 914 960 q 900 974 906 969 q 888 981 894 978 q 863 991 876 986 q 835 1001 849 996 q 805 1010 819 1006 q 779 1017 790 1014 l 747 1028 l 1217 1028 l 1188 1015 q 1168 1007 1179 1010 q 1144 1001 1157 1004 q 1139 999 1142 1000 q 1133 997 1136 999 q 1088 984 1110 992 q 1058 967 1067 976 q 1055 962 1057 964 q 1051 957 1053 960 q 1042 926 1043 942 q 1040 890 1040 910 l 1040 892 z "},"":{"ha":1500,"x_min":36,"x_max":1454,"o":"m 36 1028 l 704 1028 l 704 800 l 685 856 q 680 868 682 861 q 675 881 678 875 q 660 915 668 900 q 636 940 653 929 q 607 952 622 949 q 575 957 592 956 q 563 958 569 958 q 550 958 557 958 l 407 960 q 401 958 404 958 q 394 958 399 958 q 362 957 378 958 q 338 947 346 956 q 330 934 332 942 q 328 919 328 926 q 328 913 328 917 q 329 906 328 910 q 329 903 329 904 q 329 900 329 901 q 329 895 329 897 q 329 890 329 893 l 329 558 l 514 558 q 531 557 522 557 q 546 557 539 557 q 578 559 563 557 q 606 571 593 561 q 611 576 608 574 q 615 581 614 578 q 623 589 619 585 q 629 600 626 593 q 630 603 629 601 q 632 606 631 604 l 661 667 l 661 340 l 649 372 q 644 383 646 376 q 640 396 642 389 q 640 399 640 397 q 639 403 639 401 q 622 445 631 425 q 597 474 614 465 q 582 481 589 478 q 567 485 575 483 q 549 488 558 488 q 528 488 539 488 q 524 488 526 488 q 521 488 522 488 l 329 489 l 329 135 q 331 94 329 111 q 347 60 333 76 q 377 41 356 49 q 422 28 399 33 q 430 25 426 26 q 438 24 433 24 q 458 17 449 21 q 476 11 468 14 l 507 0 l 36 0 l 68 10 q 94 15 79 11 q 124 24 108 19 q 151 34 138 29 q 176 44 165 39 q 189 51 183 47 q 197 58 194 56 q 205 72 201 65 q 210 85 208 78 q 212 99 211 92 q 213 111 213 106 q 213 119 213 115 q 213 125 213 122 q 211 133 211 129 q 211 139 211 136 l 211 892 q 211 905 211 897 q 211 918 211 913 q 209 944 211 932 q 197 967 207 956 q 189 974 194 969 q 176 981 183 978 q 151 991 165 986 q 124 1001 138 996 q 94 1010 108 1006 q 68 1017 79 1014 l 36 1028 l 36 1028 m 1040 892 l 1040 135 q 1043 106 1040 119 q 1056 82 1046 92 q 1083 69 1065 72 q 1118 67 1100 67 l 1288 68 q 1306 67 1296 67 q 1328 69 1317 68 q 1357 76 1343 72 q 1382 88 1371 81 q 1413 124 1403 101 q 1432 174 1424 147 q 1434 178 1433 176 q 1435 182 1435 181 l 1453 233 l 1454 0 l 747 0 l 779 10 q 805 15 790 11 q 835 24 819 19 q 863 34 849 29 q 888 44 876 39 q 900 51 894 47 q 908 58 906 56 q 913 67 911 63 q 918 75 915 71 q 922 92 921 83 q 922 108 922 100 q 922 120 922 114 q 922 133 922 126 l 922 888 q 922 892 922 889 q 924 900 922 896 q 924 907 924 903 q 924 915 924 911 q 923 926 924 921 q 921 936 922 931 q 917 952 919 944 q 908 967 914 960 q 900 974 906 969 q 888 981 894 978 q 863 991 876 986 q 835 1001 849 996 q 805 1010 819 1006 q 779 1017 790 1014 l 747 1028 l 1217 1028 l 1188 1015 q 1168 1007 1179 1010 q 1144 1001 1157 1004 q 1139 999 1142 1000 q 1133 997 1136 999 q 1088 984 1110 992 q 1058 967 1067 976 q 1055 962 1057 964 q 1051 957 1053 960 q 1042 926 1043 942 q 1040 890 1040 910 l 1040 892 z "}}}
